<?xml version="1.0" encoding="utf-8"?>
<!-- Generator: Adobe Illustrator 21.0.2, SVG Export Plug-In . SVG Version: 6.00 Build 0)  -->
<svg version="1.1" id="Capa_1" xmlns="http://www.w3.org/2000/svg" xmlns:xlink="http://www.w3.org/1999/xlink" x="0px" y="0px"
	 viewBox="0 0 90 90" style="enable-background:new 0 0 90 90;" xml:space="preserve">
<style type="text/css">
	.st0{fill:none;stroke:#000000;stroke-width:3;stroke-miterlimit:10;}
	.st1{fill:none;stroke:#000000;stroke-width:3;stroke-linecap:round;stroke-linejoin:round;stroke-miterlimit:10;}
	.st2{fill:none;stroke:#000000;stroke-width:2;stroke-miterlimit:10;}
</style>
<circle class="st0" cx="72.1" cy="68.2" r="7.5"/>
<polyline class="st1" points="70.4,60.5 70.4,51 16.4,51 16.4,75 68.9,75 "/>
<polyline class="st1" points="22.9,50.9 40.4,34.7 40.4,43.6 68.2,15.8 "/>
<polyline class="st1" points="55.9,15 68.4,15 68.4,26.5 "/>
<line class="st2" x1="42.9" y1="51.5" x2="42.9" y2="73.5"/>
<g>
	<path d="M39.5,70.7c-0.9-0.4-1.6-0.9-2.1-1.6c-0.5-0.7-0.7-1.5-0.7-2.5v-0.5c0-0.2,0.1-0.4,0.4-0.4h2c0.3,0,0.4,0.1,0.4,0.3v0.4
		c0,0.7,0.3,1.3,1,1.8c0.7,0.5,1.5,0.7,2.6,0.7c1,0,1.7-0.2,2.2-0.6c0.5-0.4,0.7-0.9,0.7-1.6c0-0.4-0.1-0.8-0.4-1.1
		c-0.3-0.3-0.7-0.6-1.2-0.8c-0.5-0.2-1.3-0.6-2.3-0.9c-1.1-0.4-2.1-0.8-2.8-1.1c-0.7-0.4-1.3-0.8-1.8-1.5c-0.5-0.6-0.7-1.4-0.7-2.3
		c0-1.4,0.5-2.4,1.5-3.2c1-0.8,2.4-1.2,4.1-1.2c1.2,0,2.3,0.2,3.2,0.6c0.9,0.4,1.6,1,2.2,1.7s0.8,1.6,0.8,2.5v0.3
		c0,0.2-0.1,0.4-0.4,0.4h-2c-0.1,0-0.2,0-0.3-0.1c-0.1-0.1-0.1-0.1-0.1-0.2v-0.3c0-0.7-0.3-1.3-0.9-1.8c-0.6-0.5-1.5-0.8-2.6-0.8
		c-0.9,0-1.6,0.2-2.1,0.5c-0.5,0.4-0.7,0.9-0.7,1.5c0,0.5,0.1,0.8,0.4,1.1c0.3,0.3,0.6,0.6,1.2,0.8c0.5,0.2,1.3,0.5,2.4,0.9
		c1.1,0.4,2.1,0.8,2.7,1.1c0.7,0.3,1.3,0.8,1.8,1.4c0.5,0.6,0.7,1.4,0.7,2.3c0,0.9-0.2,1.7-0.7,2.4c-0.5,0.7-1.2,1.2-2.1,1.6
		c-0.9,0.4-2,0.6-3.2,0.6S40.4,71,39.5,70.7z"/>
</g>
</svg>
