<?xml version="1.0" encoding="utf-8"?>
<!-- Generator: Adobe Illustrator 21.0.2, SVG Export Plug-In . SVG Version: 6.00 Build 0)  -->
<svg version="1.1" id="Capa_1" xmlns="http://www.w3.org/2000/svg" xmlns:xlink="http://www.w3.org/1999/xlink" x="0px" y="0px"
	 viewBox="0 0 90 90" style="enable-background:new 0 0 90 90;" xml:space="preserve">
<g>
	<path d="M17.8,75.8c-0.1,0-0.2,0-0.2,0c-0.8-0.1-1.4-0.9-1.2-1.7L19.7,53c0.1-0.3,1.8-6.7,10-8v-4.2c-1.9-1.8-3-4.2-3-6.9
		c0-5.1,4.2-9.3,9.3-9.3s9.3,4.2,9.3,9.3c0,2.9-1.3,5.6-3.6,7.4v4c7.1,1.8,8.5,7.6,8.6,7.9l3.1,16c0.2,0.8-0.4,1.6-1.2,1.8
		c-0.8,0.2-1.6-0.4-1.8-1.2l-3.1-16c0-0.1-1.3-4.8-7.4-5.9l-1.2-0.2v-8l0.7-0.4c1.8-1.2,2.9-3.2,2.9-5.3c0-3.5-2.8-6.3-6.3-6.3
		s-6.3,2.8-6.3,6.3c0,2,0.9,3.8,2.5,5l0.6,0.4v8.4l-1.4,0.1c-6.9,0.6-8.5,5.4-8.7,5.9l-3.3,20.9C19.2,75.3,18.5,75.8,17.8,75.8z"/>
	<path d="M76.2,76.5c-0.7,0-1.3-0.5-1.5-1.2l-5.4-26.5c0-0.1-1.3-4.8-7.4-5.9l-1.2-0.2v-8l0.7-0.4c1.8-1.2,2.9-3.2,2.9-5.3
		c0-3.5-2.8-6.3-6.3-6.3s-6.3,2.8-6.3,6.3c0,2,0.9,3.8,2.5,5l0.6,0.5v7.9l-1.2,0.3c-1.9,0.4-4.2,1.2-4.7,1.8
		c-0.6,0.6-1.5,0.6-2.1,0.1c-0.6-0.6-0.6-1.5-0.1-2.1c1.1-1.2,3.5-2,5.1-2.4v-4c-1.9-1.8-3-4.2-3-6.9c0-5.1,4.2-9.3,9.3-9.3
		s9.3,4.2,9.3,9.3c0,2.9-1.3,5.6-3.6,7.4v4c7.1,1.8,8.5,7.6,8.6,7.9l5.4,26.6c0.2,0.8-0.4,1.6-1.2,1.8
		C76.4,76.5,76.3,76.5,76.2,76.5z"/>
</g>
</svg>
