<?xml version="1.0" encoding="utf-8"?>
<!-- Generator: Adobe Illustrator 21.0.2, SVG Export Plug-In . SVG Version: 6.00 Build 0)  -->
<svg version="1.1" id="Capa_1" xmlns="http://www.w3.org/2000/svg" xmlns:xlink="http://www.w3.org/1999/xlink" x="0px" y="0px"
	 viewBox="0 0 90 90" style="enable-background:new 0 0 90 90;" xml:space="preserve">
<path d="M77.2,74.9l-3.8-10.3c-0.1-0.2-0.2-0.4-0.3-0.5L40.6,31.6c1.8-5.1,0.4-10.8-3.5-14.7c-3.5-3.5-8.7-3.9-10.8-3.9
	c-0.9,0-3.5,0-4.3,1.9c-0.7,1.7,0.8,3.3,1.1,3.5l5.6,5.6l-4.6,4.6c-0.9-0.9-2.1-2.1-3.2-3.2c-0.9-0.9-1.7-1.7-2.1-2.2
	c-1-1-2-1.5-2.9-1.5c-2.2,0-3.1,2.5-3.3,4.6c-0.1,3.9,1.4,7.7,4.3,10.6c2.7,2.7,6.4,4.2,10.2,4.2c1.8,0,3.5-0.3,5.1-1l32.3,32.3
	c0.1,0.1,0.3,0.3,0.5,0.3l6.6,2.6l0.3,0.3l0.1-0.1l3.2,1.2c0.2,0.1,0.4,0.1,0.5,0.1c0.4,0,0.8-0.2,1.1-0.4
	C77.3,76.1,77.4,75.5,77.2,74.9z M71,66.7l1.2,3.2l-1.8,1.8l-3.2-1.2l0.2-3.6L71,66.7z M32,37.2c-1.5,0.7-3.2,1.1-4.8,1.1
	c-3,0-5.9-1.2-8.1-3.4c-2.3-2.3-3.5-5.3-3.4-8.3c0-0.6,0.2-1.3,0.4-1.7c0.1,0.1,0.4,0.2,0.7,0.6c0.4,0.4,1.2,1.2,2.1,2.2
	c1.2,1.2,2.5,2.5,3.4,3.4c0.8,0.8,1.5,0.9,2,0.9c0.9,0,1.6-0.5,2-0.9l5.1-5.1c0.2-0.2,0.7-0.7,0.7-1.6c0-0.5-0.1-1.3-0.9-2.2
	l-5.8-5.8c0,0-0.1-0.1-0.2-0.2c0.3,0,0.7-0.1,1.2-0.1c3.5,0,6.8,1.1,8.6,3c3.3,3.3,4.3,8.1,2.5,12.4c-0.2,0.6-0.1,1.2,0.3,1.7
	l30.8,30.8L65.9,64c-0.8,0-1.4,0.6-1.4,1.4l-0.2,2.7L33.7,37.4C33.3,37,32.6,36.9,32,37.2z"/>
</svg>
