<?xml version="1.0" encoding="utf-8"?>
<!-- Generator: Adobe Illustrator 21.0.2, SVG Export Plug-In . SVG Version: 6.00 Build 0)  -->
<svg version="1.1" id="Capa_1" xmlns="http://www.w3.org/2000/svg" xmlns:xlink="http://www.w3.org/1999/xlink" x="0px" y="0px"
	 viewBox="0 0 90 90" style="enable-background:new 0 0 90 90;" xml:space="preserve">
<g>
	<path d="M30,69c-3.4,0-6.2-2.8-6.2-6.2s2.8-6.2,6.2-6.2s6.2,2.8,6.2,6.2S33.4,69,30,69z M30,59.7c-1.7,0-3.2,1.4-3.2,3.2
		S28.3,66,30,66s3.2-1.4,3.2-3.2S31.7,59.7,30,59.7z"/>
	<path d="M20,30c-3.4,0-6.2-2.8-6.2-6.2s2.8-6.2,6.2-6.2s6.2,2.8,6.2,6.2S23.4,30,20,30z M20,20.7c-1.7,0-3.2,1.4-3.2,3.2
		S18.3,27,20,27s3.2-1.4,3.2-3.2S21.7,20.7,20,20.7z"/>
	<path d="M50,30c-3.4,0-6.2-2.8-6.2-6.2s2.8-6.2,6.2-6.2s6.2,2.8,6.2,6.2S53.4,30,50,30z M50,20.7c-1.7,0-3.2,1.4-3.2,3.2
		S48.3,27,50,27s3.2-1.4,3.2-3.2S51.7,20.7,50,20.7z"/>
	<path d="M60,50c-3.4,0-6.2-2.8-6.2-6.2s2.8-6.2,6.2-6.2s6.2,2.8,6.2,6.2S63.4,50,60,50z M60,40.7c-1.7,0-3.2,1.4-3.2,3.2
		S58.3,47,60,47s3.2-1.4,3.2-3.2S61.7,40.7,60,40.7z"/>
	<path d="M70,80c-3.4,0-6.2-2.8-6.2-6.2s2.8-6.2,6.2-6.2s6.2,2.8,6.2,6.2S73.4,80,70,80z M70,70.7c-1.7,0-3.2,1.4-3.2,3.2
		S68.3,77,70,77s3.2-1.4,3.2-3.2S71.7,70.7,70,70.7z"/>
	<path d="M45,24.7H25c-0.8,0-1.5-0.7-1.5-1.5s0.7-1.5,1.5-1.5h20c0.8,0,1.5,0.7,1.5,1.5S45.9,24.7,45,24.7z"/>
	<path d="M69.1,70.5c-0.6,0-1.2-0.4-1.4-1L60.4,49c-0.3-0.8,0.1-1.6,0.9-1.9c0.8-0.3,1.6,0.1,1.9,0.9l7.2,20.5
		c0.3,0.8-0.1,1.6-0.9,1.9C69.4,70.5,69.2,70.5,69.1,70.5z"/>
	<path d="M57.7,41.1c-0.5,0-1-0.3-1.3-0.7l-6.7-10.9c-0.4-0.7-0.2-1.6,0.5-2.1c0.7-0.4,1.6-0.2,2.1,0.5L59,38.8
		c0.4,0.7,0.2,1.6-0.5,2.1C58.2,41,58,41.1,57.7,41.1z"/>
	<path d="M30,59.7c-0.6,0-1.2-0.4-1.4-1L18.6,29c-0.3-0.8,0.2-1.6,0.9-1.9c0.8-0.3,1.6,0.2,1.9,0.9l10,29.7c0.3,0.8-0.2,1.6-0.9,1.9
		C30.3,59.6,30.2,59.7,30,59.7z"/>
	<path d="M31.1,59.4c-0.2,0-0.5-0.1-0.7-0.2c-0.7-0.4-1-1.3-0.6-2l15.9-30c0.4-0.7,1.3-1,2-0.6c0.7,0.4,1,1.3,0.6,2l-15.9,30
		C32.2,59.1,31.7,59.4,31.1,59.4z"/>
	<path d="M66.8,72c-0.4,0-0.8-0.1-1.1-0.4l-43-43.3c-0.6-0.6-0.6-1.5,0-2.1c0.6-0.6,1.5-0.6,2.1,0l43,43.3c0.6,0.6,0.6,1.5,0,2.1
		C67.6,71.8,67.2,72,66.8,72z"/>
	<path d="M65.5,76c-0.2,0-0.3,0-0.5-0.1L34.7,65.5c-0.8-0.3-1.2-1.1-0.9-1.9c0.3-0.8,1.1-1.2,1.9-0.9L66,73.1
		c0.8,0.3,1.2,1.1,0.9,1.9C66.7,75.6,66.1,76,65.5,76z"/>
	<path d="M32.8,60.5c-0.5,0-1-0.3-1.3-0.8c-0.4-0.7-0.1-1.6,0.6-2l22.9-12.6c0.7-0.4,1.6-0.1,2,0.6s0.1,1.6-0.6,2L33.5,60.3
		C33.3,60.4,33,60.5,32.8,60.5z"/>
</g>
</svg>
