<svg id="Capa_1" data-name="Capa 1" xmlns="http://www.w3.org/2000/svg" viewBox="0 0 146 201">
  <title>ejemplo-rangos</title>
  <g>
    <polyline points="0.36 12.02 76.92 55.85 77.58 144.07 1.69 188.45" style="fill: none;stroke: #999;stroke-miterlimit: 10;stroke-width: 0.5px"/>
    <polyline points="0.46 26.14 64.77 62.96 65.33 137.05 1.58 174.33" style="fill: none;stroke: #605ff6;stroke-miterlimit: 10;stroke-width: 2px"/>
    <polyline points="0.56 38.94 53.75 69.4 54.21 130.69 1.49 161.52" style="fill: none;stroke: #999;stroke-miterlimit: 10;stroke-width: 0.5px"/>
    <polyline points="0.66 51.64 42.83 75.79 43.19 124.38 1.39 148.83" style="fill: none;stroke: #c3c3fb;stroke-miterlimit: 10;stroke-width: 2px"/>
    <polyline points="0.75 64.18 32.04 82.1 32.31 118.15 1.29 136.29" style="fill: none;stroke: #999;stroke-miterlimit: 10;stroke-width: 0.5px"/>
    <line x1="76.91" y1="55.85" x2="0.65" y2="100.55" style="fill: none;stroke: #999;stroke-miterlimit: 10;stroke-width: 0.5px"/>
    <line x1="0.65" y1="100.55" x2="77.58" y2="144.07" style="fill: none;stroke: #999;stroke-miterlimit: 10;stroke-width: 0.5px"/>
    <path d="M.65,95.57a4.63,4.63,0,0,1,0,9.26" style="fill: #9e005d"/>
  </g>
  <g>
    <line x1="24" y1="39.5" x2="25" y2="39.5" style="fill: none;stroke: #605ff6;stroke-miterlimit: 10"/>
    <line x1="28" y1="39.5" x2="132" y2="39.5" style="fill: none;stroke: #605ff6;stroke-miterlimit: 10;stroke-dasharray: 3,3"/>
    <line x1="133" y1="39.5" x2="135" y2="39.5" style="fill: none;stroke: #605ff6;stroke-miterlimit: 10"/>
  </g>
  <circle cx="134.73" cy="39.92" r="2.87" style="fill: #605ff6"/>
  <g>
    <line x1="43" y1="106.5" x2="44" y2="106.5" style="fill: none;stroke: #c3c3fb;stroke-miterlimit: 10"/>
    <line x1="47" y1="106.5" x2="132" y2="106.5" style="fill: none;stroke: #c3c3fb;stroke-miterlimit: 10;stroke-dasharray: 3,3"/>
    <line x1="133" y1="106.5" x2="135" y2="106.5" style="fill: none;stroke: #c3c3fb;stroke-miterlimit: 10"/>
  </g>
  <circle cx="134.73" cy="106.92" r="2.87" style="fill: #c3c3fb"/>
</svg>
