<svg id="Capa_1" data-name="Capa 1" xmlns="http://www.w3.org/2000/svg" xmlns:xlink="http://www.w3.org/1999/xlink" viewBox="0 0 95 191">
  <defs>
    <clipPath id="clip-path">
      <circle cx="364.96" cy="31.15" r="11.04" style="fill: none"/>
    </clipPath>
    <clipPath id="clip-path-2">
      <polygon points="335.46 -29.29 376.6 -5.67 376.8 41.78 335 65.95 335 55.97 348.33 24.87 368.03 -0.68 335.69 -19.47 335.46 -29.29" style="fill: none"/>
    </clipPath>
    <clipPath id="clip-path-3">
      <polygon points="335.46 -29.29 376.6 -5.67 377.01 41.55 335.65 65.95 335.32 55.99 351.79 22.76 368.03 -0.68 335.5 -19.36 335.46 -29.29" style="fill: none"/>
    </clipPath>
    <clipPath id="clip-path-4">
      <polygon points="219.61 36.81 272.77 67.33 273.03 128.66 219 159.9 219 147 261.94 122.38 261.7 73.79 219.9 49.5 219.61 36.81" style="fill: none"/>
    </clipPath>
    <clipPath id="clip-path-5">
      <polygon points="219.61 36.81 272.77 67.33 273.3 128.36 219.84 159.9 219.42 147.03 262.19 122.38 261.7 73.79 219.66 49.64 219.61 36.81" style="fill: none"/>
    </clipPath>
    <clipPath id="clip-path-6">
      <polygon points="0.61 36.81 53.77 67.33 54.03 128.66 0 159.9 0 147 42.94 122.38 42.7 73.79 0.9 49.5 0.61 36.81" style="fill: none"/>
    </clipPath>
    <clipPath id="clip-path-7">
      <polygon points="0.61 36.81 53.77 67.33 54.3 128.36 0.84 159.9 0.42 147.03 43.19 122.38 42.7 73.79 0.66 49.64 0.61 36.81" style="fill: none"/>
    </clipPath>
  </defs>
  <title>grafico</title>
  <g style="clip-path: url(#clip-path)">
    <g>
      <g style="clip-path: url(#clip-path-2)">
        <g>
          <line x1="64.91" y1="179.52" x2="320.9" y2="-76.48" style="fill: none;stroke: #ccc;stroke-miterlimit: 10;stroke-width: 0.5px"/>
          <line x1="70.32" y1="179.52" x2="326.32" y2="-76.48" style="fill: none;stroke: #ccc;stroke-miterlimit: 10;stroke-width: 0.5px"/>
          <line x1="75.74" y1="179.52" x2="331.73" y2="-76.48" style="fill: none;stroke: #ccc;stroke-miterlimit: 10;stroke-width: 0.5px"/>
          <line x1="81.16" y1="179.52" x2="337.15" y2="-76.48" style="fill: none;stroke: #ccc;stroke-miterlimit: 10;stroke-width: 0.5px"/>
          <line x1="86.57" y1="179.52" x2="342.56" y2="-76.48" style="fill: none;stroke: #ccc;stroke-miterlimit: 10;stroke-width: 0.5px"/>
          <line x1="91.99" y1="179.52" x2="347.98" y2="-76.48" style="fill: none;stroke: #ccc;stroke-miterlimit: 10;stroke-width: 0.5px"/>
        </g>
      </g>
      <g style="clip-path: url(#clip-path-3)">
        <g>
          <line x1="62.59" y1="178.74" x2="318.58" y2="-77.25" style="fill: none;stroke: #ccc;stroke-miterlimit: 10;stroke-width: 0.5px"/>
          <line x1="68" y1="178.74" x2="323.99" y2="-77.25" style="fill: none;stroke: #ccc;stroke-miterlimit: 10;stroke-width: 0.5px"/>
          <line x1="73.42" y1="178.74" x2="329.41" y2="-77.25" style="fill: none;stroke: #ccc;stroke-miterlimit: 10;stroke-width: 0.5px"/>
          <line x1="78.83" y1="178.74" x2="334.83" y2="-77.25" style="fill: none;stroke: #ccc;stroke-miterlimit: 10;stroke-width: 0.5px"/>
          <line x1="84.25" y1="178.74" x2="340.24" y2="-77.25" style="fill: none;stroke: #ccc;stroke-miterlimit: 10;stroke-width: 0.5px"/>
          <line x1="89.67" y1="178.74" x2="345.66" y2="-77.25" style="fill: none;stroke: #ccc;stroke-miterlimit: 10;stroke-width: 0.5px"/>
          <line x1="95.08" y1="178.74" x2="351.08" y2="-77.25" style="fill: none;stroke: #ccc;stroke-miterlimit: 10;stroke-width: 0.5px"/>
        </g>
      </g>
    </g>
  </g>
  <g>
    <g style="clip-path: url(#clip-path-4)">
      <g>
        <line x1="-130.07" y1="306.68" x2="200.79" y2="-24.18" style="fill: none;stroke: #ccc;stroke-miterlimit: 10;stroke-width: 0.5px"/>
        <line x1="-123.07" y1="306.68" x2="207.79" y2="-24.18" style="fill: none;stroke: #ccc;stroke-miterlimit: 10;stroke-width: 0.5px"/>
        <line x1="-116.07" y1="306.68" x2="214.79" y2="-24.18" style="fill: none;stroke: #ccc;stroke-miterlimit: 10;stroke-width: 0.5px"/>
        <line x1="-109.07" y1="306.68" x2="221.79" y2="-24.18" style="fill: none;stroke: #ccc;stroke-miterlimit: 10;stroke-width: 0.5px"/>
        <line x1="-102.07" y1="306.68" x2="228.79" y2="-24.18" style="fill: none;stroke: #ccc;stroke-miterlimit: 10;stroke-width: 0.5px"/>
        <line x1="-95.07" y1="306.68" x2="235.79" y2="-24.18" style="fill: none;stroke: #ccc;stroke-miterlimit: 10;stroke-width: 0.5px"/>
        <line x1="-88.07" y1="306.68" x2="242.79" y2="-24.18" style="fill: none;stroke: #ccc;stroke-miterlimit: 10;stroke-width: 0.5px"/>
        <line x1="-81.07" y1="306.68" x2="249.79" y2="-24.18" style="fill: none;stroke: #ccc;stroke-miterlimit: 10;stroke-width: 0.5px"/>
        <line x1="-74.07" y1="306.68" x2="256.79" y2="-24.18" style="fill: none;stroke: #ccc;stroke-miterlimit: 10;stroke-width: 0.5px"/>
        <line x1="-67.07" y1="306.68" x2="263.79" y2="-24.18" style="fill: none;stroke: #ccc;stroke-miterlimit: 10;stroke-width: 0.5px"/>
        <line x1="-60.07" y1="306.68" x2="270.79" y2="-24.18" style="fill: none;stroke: #ccc;stroke-miterlimit: 10;stroke-width: 0.5px"/>
        <line x1="-53.07" y1="306.68" x2="277.79" y2="-24.18" style="fill: none;stroke: #ccc;stroke-miterlimit: 10;stroke-width: 0.5px"/>
        <line x1="-46.07" y1="306.68" x2="284.79" y2="-24.18" style="fill: none;stroke: #ccc;stroke-miterlimit: 10;stroke-width: 0.5px"/>
        <line x1="-39.07" y1="306.68" x2="291.79" y2="-24.18" style="fill: none;stroke: #ccc;stroke-miterlimit: 10;stroke-width: 0.5px"/>
        <line x1="-32.07" y1="306.68" x2="298.79" y2="-24.18" style="fill: none;stroke: #ccc;stroke-miterlimit: 10;stroke-width: 0.5px"/>
        <line x1="-25.07" y1="306.68" x2="305.79" y2="-24.18" style="fill: none;stroke: #ccc;stroke-miterlimit: 10;stroke-width: 0.5px"/>
        <line x1="-18.07" y1="306.68" x2="312.79" y2="-24.18" style="fill: none;stroke: #ccc;stroke-miterlimit: 10;stroke-width: 0.5px"/>
        <line x1="-11.07" y1="306.68" x2="319.79" y2="-24.18" style="fill: none;stroke: #ccc;stroke-miterlimit: 10;stroke-width: 0.5px"/>
        <line x1="-4.07" y1="306.68" x2="326.79" y2="-24.18" style="fill: none;stroke: #ccc;stroke-miterlimit: 10;stroke-width: 0.5px"/>
        <line x1="2.93" y1="306.68" x2="333.79" y2="-24.18" style="fill: none;stroke: #ccc;stroke-miterlimit: 10;stroke-width: 0.5px"/>
        <line x1="9.93" y1="306.68" x2="340.79" y2="-24.18" style="fill: none;stroke: #ccc;stroke-miterlimit: 10;stroke-width: 0.5px"/>
        <line x1="16.93" y1="306.68" x2="347.79" y2="-24.18" style="fill: none;stroke: #ccc;stroke-miterlimit: 10;stroke-width: 0.5px"/>
        <line x1="23.93" y1="306.68" x2="354.79" y2="-24.18" style="fill: none;stroke: #ccc;stroke-miterlimit: 10;stroke-width: 0.5px"/>
        <line x1="30.93" y1="306.68" x2="361.79" y2="-24.18" style="fill: none;stroke: #ccc;stroke-miterlimit: 10;stroke-width: 0.5px"/>
        <line x1="37.93" y1="306.68" x2="368.79" y2="-24.18" style="fill: none;stroke: #ccc;stroke-miterlimit: 10;stroke-width: 0.5px"/>
        <line x1="44.93" y1="306.68" x2="375.79" y2="-24.18" style="fill: none;stroke: #ccc;stroke-miterlimit: 10;stroke-width: 0.5px"/>
        <line x1="51.93" y1="306.68" x2="382.79" y2="-24.18" style="fill: none;stroke: #ccc;stroke-miterlimit: 10;stroke-width: 0.5px"/>
        <line x1="58.93" y1="306.68" x2="389.79" y2="-24.18" style="fill: none;stroke: #ccc;stroke-miterlimit: 10;stroke-width: 0.5px"/>
        <line x1="65.93" y1="306.68" x2="396.79" y2="-24.18" style="fill: none;stroke: #ccc;stroke-miterlimit: 10;stroke-width: 0.5px"/>
        <line x1="72.93" y1="306.68" x2="403.79" y2="-24.18" style="fill: none;stroke: #ccc;stroke-miterlimit: 10;stroke-width: 0.5px"/>
        <line x1="79.93" y1="306.68" x2="410.79" y2="-24.18" style="fill: none;stroke: #ccc;stroke-miterlimit: 10;stroke-width: 0.5px"/>
        <line x1="86.93" y1="306.68" x2="417.79" y2="-24.18" style="fill: none;stroke: #ccc;stroke-miterlimit: 10;stroke-width: 0.5px"/>
        <line x1="93.93" y1="306.68" x2="424.79" y2="-24.18" style="fill: none;stroke: #ccc;stroke-miterlimit: 10;stroke-width: 0.5px"/>
      </g>
    </g>
    <g style="clip-path: url(#clip-path-5)">
      <g>
        <line x1="-133.07" y1="305.68" x2="197.79" y2="-25.18" style="fill: none;stroke: #ccc;stroke-miterlimit: 10;stroke-width: 0.5px"/>
        <line x1="-126.07" y1="305.68" x2="204.79" y2="-25.18" style="fill: none;stroke: #ccc;stroke-miterlimit: 10;stroke-width: 0.5px"/>
        <line x1="-119.07" y1="305.68" x2="211.79" y2="-25.18" style="fill: none;stroke: #ccc;stroke-miterlimit: 10;stroke-width: 0.5px"/>
        <line x1="-112.07" y1="305.68" x2="218.79" y2="-25.18" style="fill: none;stroke: #ccc;stroke-miterlimit: 10;stroke-width: 0.5px"/>
        <line x1="-105.07" y1="305.68" x2="225.79" y2="-25.18" style="fill: none;stroke: #ccc;stroke-miterlimit: 10;stroke-width: 0.5px"/>
        <line x1="-98.07" y1="305.68" x2="232.79" y2="-25.18" style="fill: none;stroke: #ccc;stroke-miterlimit: 10;stroke-width: 0.5px"/>
        <line x1="-91.07" y1="305.68" x2="239.79" y2="-25.18" style="fill: none;stroke: #ccc;stroke-miterlimit: 10;stroke-width: 0.5px"/>
        <line x1="-84.07" y1="305.68" x2="246.79" y2="-25.18" style="fill: none;stroke: #ccc;stroke-miterlimit: 10;stroke-width: 0.5px"/>
        <line x1="-77.07" y1="305.68" x2="253.79" y2="-25.18" style="fill: none;stroke: #ccc;stroke-miterlimit: 10;stroke-width: 0.5px"/>
        <line x1="-70.07" y1="305.68" x2="260.79" y2="-25.18" style="fill: none;stroke: #ccc;stroke-miterlimit: 10;stroke-width: 0.5px"/>
        <line x1="-63.07" y1="305.68" x2="267.79" y2="-25.18" style="fill: none;stroke: #ccc;stroke-miterlimit: 10;stroke-width: 0.5px"/>
        <line x1="-56.07" y1="305.68" x2="274.79" y2="-25.18" style="fill: none;stroke: #ccc;stroke-miterlimit: 10;stroke-width: 0.5px"/>
        <line x1="-49.07" y1="305.68" x2="281.79" y2="-25.18" style="fill: none;stroke: #ccc;stroke-miterlimit: 10;stroke-width: 0.5px"/>
        <line x1="-42.07" y1="305.68" x2="288.79" y2="-25.18" style="fill: none;stroke: #ccc;stroke-miterlimit: 10;stroke-width: 0.5px"/>
        <line x1="-35.07" y1="305.68" x2="295.79" y2="-25.18" style="fill: none;stroke: #ccc;stroke-miterlimit: 10;stroke-width: 0.5px"/>
        <line x1="-28.07" y1="305.68" x2="302.79" y2="-25.18" style="fill: none;stroke: #ccc;stroke-miterlimit: 10;stroke-width: 0.5px"/>
        <line x1="-21.07" y1="305.68" x2="309.79" y2="-25.18" style="fill: none;stroke: #ccc;stroke-miterlimit: 10;stroke-width: 0.5px"/>
        <line x1="-14.07" y1="305.68" x2="316.79" y2="-25.18" style="fill: none;stroke: #ccc;stroke-miterlimit: 10;stroke-width: 0.5px"/>
        <line x1="-7.07" y1="305.68" x2="323.79" y2="-25.18" style="fill: none;stroke: #ccc;stroke-miterlimit: 10;stroke-width: 0.5px"/>
        <line x1="-0.07" y1="305.68" x2="330.79" y2="-25.18" style="fill: none;stroke: #ccc;stroke-miterlimit: 10;stroke-width: 0.5px"/>
        <line x1="6.93" y1="305.68" x2="337.79" y2="-25.18" style="fill: none;stroke: #ccc;stroke-miterlimit: 10;stroke-width: 0.5px"/>
        <line x1="13.93" y1="305.68" x2="344.79" y2="-25.18" style="fill: none;stroke: #ccc;stroke-miterlimit: 10;stroke-width: 0.5px"/>
        <line x1="20.93" y1="305.68" x2="351.79" y2="-25.18" style="fill: none;stroke: #ccc;stroke-miterlimit: 10;stroke-width: 0.5px"/>
        <line x1="27.93" y1="305.68" x2="358.79" y2="-25.18" style="fill: none;stroke: #ccc;stroke-miterlimit: 10;stroke-width: 0.5px"/>
        <line x1="34.93" y1="305.68" x2="365.79" y2="-25.18" style="fill: none;stroke: #ccc;stroke-miterlimit: 10;stroke-width: 0.5px"/>
        <line x1="41.93" y1="305.68" x2="372.79" y2="-25.18" style="fill: none;stroke: #ccc;stroke-miterlimit: 10;stroke-width: 0.5px"/>
        <line x1="48.93" y1="305.68" x2="379.79" y2="-25.18" style="fill: none;stroke: #ccc;stroke-miterlimit: 10;stroke-width: 0.5px"/>
        <line x1="55.93" y1="305.68" x2="386.79" y2="-25.18" style="fill: none;stroke: #ccc;stroke-miterlimit: 10;stroke-width: 0.5px"/>
        <line x1="62.93" y1="305.68" x2="393.79" y2="-25.18" style="fill: none;stroke: #ccc;stroke-miterlimit: 10;stroke-width: 0.5px"/>
        <line x1="69.93" y1="305.68" x2="400.79" y2="-25.18" style="fill: none;stroke: #ccc;stroke-miterlimit: 10;stroke-width: 0.5px"/>
        <line x1="76.93" y1="305.68" x2="407.79" y2="-25.18" style="fill: none;stroke: #ccc;stroke-miterlimit: 10;stroke-width: 0.5px"/>
        <line x1="83.93" y1="305.68" x2="414.79" y2="-25.18" style="fill: none;stroke: #ccc;stroke-miterlimit: 10;stroke-width: 0.5px"/>
        <line x1="90.93" y1="305.68" x2="421.79" y2="-25.18" style="fill: none;stroke: #ccc;stroke-miterlimit: 10;stroke-width: 0.5px"/>
      </g>
    </g>
  </g>
  <g>
    <g style="clip-path: url(#clip-path-6)">
      <g>
        <line x1="-328.07" y1="306.68" x2="2.79" y2="-24.18" style="fill: none;stroke: #ccc;stroke-miterlimit: 10;stroke-width: 0.5px"/>
        <line x1="-321.07" y1="306.68" x2="9.79" y2="-24.18" style="fill: none;stroke: #ccc;stroke-miterlimit: 10;stroke-width: 0.5px"/>
        <line x1="-314.07" y1="306.68" x2="16.79" y2="-24.18" style="fill: none;stroke: #ccc;stroke-miterlimit: 10;stroke-width: 0.5px"/>
        <line x1="-307.07" y1="306.68" x2="23.79" y2="-24.18" style="fill: none;stroke: #ccc;stroke-miterlimit: 10;stroke-width: 0.5px"/>
        <line x1="-300.07" y1="306.68" x2="30.79" y2="-24.18" style="fill: none;stroke: #ccc;stroke-miterlimit: 10;stroke-width: 0.5px"/>
        <line x1="-293.07" y1="306.68" x2="37.79" y2="-24.18" style="fill: none;stroke: #ccc;stroke-miterlimit: 10;stroke-width: 0.5px"/>
        <line x1="-286.07" y1="306.68" x2="44.79" y2="-24.18" style="fill: none;stroke: #ccc;stroke-miterlimit: 10;stroke-width: 0.5px"/>
        <line x1="-279.07" y1="306.68" x2="51.79" y2="-24.18" style="fill: none;stroke: #ccc;stroke-miterlimit: 10;stroke-width: 0.5px"/>
        <line x1="-272.07" y1="306.68" x2="58.79" y2="-24.18" style="fill: none;stroke: #ccc;stroke-miterlimit: 10;stroke-width: 0.5px"/>
        <line x1="-265.07" y1="306.68" x2="65.79" y2="-24.18" style="fill: none;stroke: #ccc;stroke-miterlimit: 10;stroke-width: 0.5px"/>
        <line x1="-258.07" y1="306.68" x2="72.79" y2="-24.18" style="fill: none;stroke: #ccc;stroke-miterlimit: 10;stroke-width: 0.5px"/>
        <line x1="-251.07" y1="306.68" x2="79.79" y2="-24.18" style="fill: none;stroke: #ccc;stroke-miterlimit: 10;stroke-width: 0.5px"/>
        <line x1="-244.07" y1="306.68" x2="86.79" y2="-24.18" style="fill: none;stroke: #ccc;stroke-miterlimit: 10;stroke-width: 0.5px"/>
        <line x1="-237.07" y1="306.68" x2="93.79" y2="-24.18" style="fill: none;stroke: #ccc;stroke-miterlimit: 10;stroke-width: 0.5px"/>
        <line x1="-230.07" y1="306.68" x2="100.79" y2="-24.18" style="fill: none;stroke: #ccc;stroke-miterlimit: 10;stroke-width: 0.5px"/>
        <line x1="-223.07" y1="306.68" x2="107.79" y2="-24.18" style="fill: none;stroke: #ccc;stroke-miterlimit: 10;stroke-width: 0.5px"/>
        <line x1="-216.07" y1="306.68" x2="114.79" y2="-24.18" style="fill: none;stroke: #ccc;stroke-miterlimit: 10;stroke-width: 0.5px"/>
        <line x1="-209.07" y1="306.68" x2="121.79" y2="-24.18" style="fill: none;stroke: #ccc;stroke-miterlimit: 10;stroke-width: 0.5px"/>
        <line x1="-202.07" y1="306.68" x2="128.79" y2="-24.18" style="fill: none;stroke: #ccc;stroke-miterlimit: 10;stroke-width: 0.5px"/>
        <line x1="-195.07" y1="306.68" x2="135.79" y2="-24.18" style="fill: none;stroke: #ccc;stroke-miterlimit: 10;stroke-width: 0.5px"/>
        <line x1="-188.07" y1="306.68" x2="142.79" y2="-24.18" style="fill: none;stroke: #ccc;stroke-miterlimit: 10;stroke-width: 0.5px"/>
        <line x1="-181.07" y1="306.68" x2="149.79" y2="-24.18" style="fill: none;stroke: #ccc;stroke-miterlimit: 10;stroke-width: 0.5px"/>
        <line x1="-174.07" y1="306.68" x2="156.79" y2="-24.18" style="fill: none;stroke: #ccc;stroke-miterlimit: 10;stroke-width: 0.5px"/>
        <line x1="-167.07" y1="306.68" x2="163.79" y2="-24.18" style="fill: none;stroke: #ccc;stroke-miterlimit: 10;stroke-width: 0.5px"/>
        <line x1="-160.07" y1="306.68" x2="170.79" y2="-24.18" style="fill: none;stroke: #ccc;stroke-miterlimit: 10;stroke-width: 0.5px"/>
        <line x1="-153.07" y1="306.68" x2="177.79" y2="-24.18" style="fill: none;stroke: #ccc;stroke-miterlimit: 10;stroke-width: 0.5px"/>
        <line x1="-146.07" y1="306.68" x2="184.79" y2="-24.18" style="fill: none;stroke: #ccc;stroke-miterlimit: 10;stroke-width: 0.5px"/>
        <line x1="-139.07" y1="306.68" x2="191.79" y2="-24.18" style="fill: none;stroke: #ccc;stroke-miterlimit: 10;stroke-width: 0.5px"/>
        <line x1="-132.07" y1="306.68" x2="198.79" y2="-24.18" style="fill: none;stroke: #ccc;stroke-miterlimit: 10;stroke-width: 0.5px"/>
        <line x1="-125.07" y1="306.68" x2="205.79" y2="-24.18" style="fill: none;stroke: #ccc;stroke-miterlimit: 10;stroke-width: 0.5px"/>
        <line x1="-118.07" y1="306.68" x2="212.79" y2="-24.18" style="fill: none;stroke: #ccc;stroke-miterlimit: 10;stroke-width: 0.5px"/>
        <line x1="-111.07" y1="306.68" x2="219.79" y2="-24.18" style="fill: none;stroke: #ccc;stroke-miterlimit: 10;stroke-width: 0.5px"/>
        <line x1="-104.07" y1="306.68" x2="226.79" y2="-24.18" style="fill: none;stroke: #ccc;stroke-miterlimit: 10;stroke-width: 0.5px"/>
        <line x1="-97.07" y1="306.68" x2="233.79" y2="-24.18" style="fill: none;stroke: #ccc;stroke-miterlimit: 10;stroke-width: 0.5px"/>
        <line x1="-90.07" y1="306.68" x2="240.79" y2="-24.18" style="fill: none;stroke: #ccc;stroke-miterlimit: 10;stroke-width: 0.5px"/>
        <line x1="-83.07" y1="306.68" x2="247.79" y2="-24.18" style="fill: none;stroke: #ccc;stroke-miterlimit: 10;stroke-width: 0.5px"/>
        <line x1="-76.07" y1="306.68" x2="254.79" y2="-24.18" style="fill: none;stroke: #ccc;stroke-miterlimit: 10;stroke-width: 0.5px"/>
        <line x1="-69.07" y1="306.68" x2="261.79" y2="-24.18" style="fill: none;stroke: #ccc;stroke-miterlimit: 10;stroke-width: 0.5px"/>
        <line x1="-62.07" y1="306.68" x2="268.79" y2="-24.18" style="fill: none;stroke: #ccc;stroke-miterlimit: 10;stroke-width: 0.5px"/>
        <line x1="-55.07" y1="306.68" x2="275.79" y2="-24.18" style="fill: none;stroke: #ccc;stroke-miterlimit: 10;stroke-width: 0.5px"/>
        <line x1="-48.07" y1="306.68" x2="282.79" y2="-24.18" style="fill: none;stroke: #ccc;stroke-miterlimit: 10;stroke-width: 0.5px"/>
        <line x1="-41.07" y1="306.68" x2="289.79" y2="-24.18" style="fill: none;stroke: #ccc;stroke-miterlimit: 10;stroke-width: 0.5px"/>
        <line x1="-34.07" y1="306.68" x2="296.79" y2="-24.18" style="fill: none;stroke: #ccc;stroke-miterlimit: 10;stroke-width: 0.5px"/>
        <line x1="-27.07" y1="306.68" x2="303.79" y2="-24.18" style="fill: none;stroke: #ccc;stroke-miterlimit: 10;stroke-width: 0.5px"/>
        <line x1="-20.07" y1="306.68" x2="310.79" y2="-24.18" style="fill: none;stroke: #ccc;stroke-miterlimit: 10;stroke-width: 0.5px"/>
        <line x1="-13.07" y1="306.68" x2="317.79" y2="-24.18" style="fill: none;stroke: #ccc;stroke-miterlimit: 10;stroke-width: 0.5px"/>
        <line x1="-6.07" y1="306.68" x2="324.79" y2="-24.18" style="fill: none;stroke: #ccc;stroke-miterlimit: 10;stroke-width: 0.5px"/>
        <line x1="0.93" y1="306.68" x2="331.79" y2="-24.18" style="fill: none;stroke: #ccc;stroke-miterlimit: 10;stroke-width: 0.5px"/>
        <line x1="7.93" y1="306.68" x2="338.79" y2="-24.18" style="fill: none;stroke: #ccc;stroke-miterlimit: 10;stroke-width: 0.5px"/>
        <line x1="14.93" y1="306.68" x2="345.79" y2="-24.18" style="fill: none;stroke: #ccc;stroke-miterlimit: 10;stroke-width: 0.5px"/>
        <line x1="21.93" y1="306.68" x2="352.79" y2="-24.18" style="fill: none;stroke: #ccc;stroke-miterlimit: 10;stroke-width: 0.5px"/>
        <line x1="28.93" y1="306.68" x2="359.79" y2="-24.18" style="fill: none;stroke: #ccc;stroke-miterlimit: 10;stroke-width: 0.5px"/>
        <line x1="35.93" y1="306.68" x2="366.79" y2="-24.18" style="fill: none;stroke: #ccc;stroke-miterlimit: 10;stroke-width: 0.5px"/>
        <line x1="42.93" y1="306.68" x2="373.79" y2="-24.18" style="fill: none;stroke: #ccc;stroke-miterlimit: 10;stroke-width: 0.5px"/>
        <line x1="49.93" y1="306.68" x2="380.79" y2="-24.18" style="fill: none;stroke: #ccc;stroke-miterlimit: 10;stroke-width: 0.5px"/>
        <line x1="56.93" y1="306.68" x2="387.79" y2="-24.18" style="fill: none;stroke: #ccc;stroke-miterlimit: 10;stroke-width: 0.5px"/>
        <line x1="63.93" y1="306.68" x2="394.79" y2="-24.18" style="fill: none;stroke: #ccc;stroke-miterlimit: 10;stroke-width: 0.5px"/>
        <line x1="70.93" y1="306.68" x2="401.79" y2="-24.18" style="fill: none;stroke: #ccc;stroke-miterlimit: 10;stroke-width: 0.5px"/>
        <line x1="77.93" y1="306.68" x2="408.79" y2="-24.18" style="fill: none;stroke: #ccc;stroke-miterlimit: 10;stroke-width: 0.5px"/>
        <line x1="84.93" y1="306.68" x2="415.79" y2="-24.18" style="fill: none;stroke: #ccc;stroke-miterlimit: 10;stroke-width: 0.5px"/>
        <line x1="91.93" y1="306.68" x2="422.79" y2="-24.18" style="fill: none;stroke: #ccc;stroke-miterlimit: 10;stroke-width: 0.5px"/>
      </g>
    </g>
    <g style="clip-path: url(#clip-path-7)">
      <g>
        <line x1="-324.07" y1="305.68" x2="6.79" y2="-25.18" style="fill: none;stroke: #ccc;stroke-miterlimit: 10;stroke-width: 0.5px"/>
        <line x1="-317.07" y1="305.68" x2="13.79" y2="-25.18" style="fill: none;stroke: #ccc;stroke-miterlimit: 10;stroke-width: 0.5px"/>
        <line x1="-310.07" y1="305.68" x2="20.79" y2="-25.18" style="fill: none;stroke: #ccc;stroke-miterlimit: 10;stroke-width: 0.5px"/>
        <line x1="-303.07" y1="305.68" x2="27.79" y2="-25.18" style="fill: none;stroke: #ccc;stroke-miterlimit: 10;stroke-width: 0.5px"/>
        <line x1="-296.07" y1="305.68" x2="34.79" y2="-25.18" style="fill: none;stroke: #ccc;stroke-miterlimit: 10;stroke-width: 0.5px"/>
        <line x1="-289.07" y1="305.68" x2="41.79" y2="-25.18" style="fill: none;stroke: #ccc;stroke-miterlimit: 10;stroke-width: 0.5px"/>
        <line x1="-282.07" y1="305.68" x2="48.79" y2="-25.18" style="fill: none;stroke: #ccc;stroke-miterlimit: 10;stroke-width: 0.5px"/>
        <line x1="-275.07" y1="305.68" x2="55.79" y2="-25.18" style="fill: none;stroke: #ccc;stroke-miterlimit: 10;stroke-width: 0.5px"/>
        <line x1="-268.07" y1="305.68" x2="62.79" y2="-25.18" style="fill: none;stroke: #ccc;stroke-miterlimit: 10;stroke-width: 0.5px"/>
        <line x1="-261.07" y1="305.68" x2="69.79" y2="-25.18" style="fill: none;stroke: #ccc;stroke-miterlimit: 10;stroke-width: 0.5px"/>
        <line x1="-254.07" y1="305.68" x2="76.79" y2="-25.18" style="fill: none;stroke: #ccc;stroke-miterlimit: 10;stroke-width: 0.5px"/>
        <line x1="-247.07" y1="305.68" x2="83.79" y2="-25.18" style="fill: none;stroke: #ccc;stroke-miterlimit: 10;stroke-width: 0.5px"/>
        <line x1="-240.07" y1="305.68" x2="90.79" y2="-25.18" style="fill: none;stroke: #ccc;stroke-miterlimit: 10;stroke-width: 0.5px"/>
        <line x1="-233.07" y1="305.68" x2="97.79" y2="-25.18" style="fill: none;stroke: #ccc;stroke-miterlimit: 10;stroke-width: 0.5px"/>
        <line x1="-226.07" y1="305.68" x2="104.79" y2="-25.18" style="fill: none;stroke: #ccc;stroke-miterlimit: 10;stroke-width: 0.5px"/>
        <line x1="-219.07" y1="305.68" x2="111.79" y2="-25.18" style="fill: none;stroke: #ccc;stroke-miterlimit: 10;stroke-width: 0.5px"/>
        <line x1="-212.07" y1="305.68" x2="118.79" y2="-25.18" style="fill: none;stroke: #ccc;stroke-miterlimit: 10;stroke-width: 0.5px"/>
        <line x1="-205.07" y1="305.68" x2="125.79" y2="-25.18" style="fill: none;stroke: #ccc;stroke-miterlimit: 10;stroke-width: 0.5px"/>
        <line x1="-198.07" y1="305.68" x2="132.79" y2="-25.18" style="fill: none;stroke: #ccc;stroke-miterlimit: 10;stroke-width: 0.5px"/>
        <line x1="-191.07" y1="305.68" x2="139.79" y2="-25.18" style="fill: none;stroke: #ccc;stroke-miterlimit: 10;stroke-width: 0.5px"/>
        <line x1="-184.07" y1="305.68" x2="146.79" y2="-25.18" style="fill: none;stroke: #ccc;stroke-miterlimit: 10;stroke-width: 0.5px"/>
        <line x1="-177.07" y1="305.68" x2="153.79" y2="-25.18" style="fill: none;stroke: #ccc;stroke-miterlimit: 10;stroke-width: 0.5px"/>
        <line x1="-170.07" y1="305.68" x2="160.79" y2="-25.18" style="fill: none;stroke: #ccc;stroke-miterlimit: 10;stroke-width: 0.5px"/>
        <line x1="-163.07" y1="305.68" x2="167.79" y2="-25.18" style="fill: none;stroke: #ccc;stroke-miterlimit: 10;stroke-width: 0.5px"/>
        <line x1="-156.07" y1="305.68" x2="174.79" y2="-25.18" style="fill: none;stroke: #ccc;stroke-miterlimit: 10;stroke-width: 0.5px"/>
        <line x1="-149.07" y1="305.68" x2="181.79" y2="-25.18" style="fill: none;stroke: #ccc;stroke-miterlimit: 10;stroke-width: 0.5px"/>
        <line x1="-142.07" y1="305.68" x2="188.79" y2="-25.18" style="fill: none;stroke: #ccc;stroke-miterlimit: 10;stroke-width: 0.5px"/>
        <line x1="-135.07" y1="305.68" x2="195.79" y2="-25.18" style="fill: none;stroke: #ccc;stroke-miterlimit: 10;stroke-width: 0.5px"/>
        <line x1="-128.07" y1="305.68" x2="202.79" y2="-25.18" style="fill: none;stroke: #ccc;stroke-miterlimit: 10;stroke-width: 0.5px"/>
        <line x1="-121.07" y1="305.68" x2="209.79" y2="-25.18" style="fill: none;stroke: #ccc;stroke-miterlimit: 10;stroke-width: 0.5px"/>
        <line x1="-114.07" y1="305.68" x2="216.79" y2="-25.18" style="fill: none;stroke: #ccc;stroke-miterlimit: 10;stroke-width: 0.5px"/>
        <line x1="-107.07" y1="305.68" x2="223.79" y2="-25.18" style="fill: none;stroke: #ccc;stroke-miterlimit: 10;stroke-width: 0.5px"/>
        <line x1="-100.07" y1="305.68" x2="230.79" y2="-25.18" style="fill: none;stroke: #ccc;stroke-miterlimit: 10;stroke-width: 0.5px"/>
        <line x1="-93.07" y1="305.68" x2="237.79" y2="-25.18" style="fill: none;stroke: #ccc;stroke-miterlimit: 10;stroke-width: 0.5px"/>
        <line x1="-86.07" y1="305.68" x2="244.79" y2="-25.18" style="fill: none;stroke: #ccc;stroke-miterlimit: 10;stroke-width: 0.5px"/>
        <line x1="-79.07" y1="305.68" x2="251.79" y2="-25.18" style="fill: none;stroke: #ccc;stroke-miterlimit: 10;stroke-width: 0.5px"/>
        <line x1="-72.07" y1="305.68" x2="258.79" y2="-25.18" style="fill: none;stroke: #ccc;stroke-miterlimit: 10;stroke-width: 0.5px"/>
        <line x1="-65.07" y1="305.68" x2="265.79" y2="-25.18" style="fill: none;stroke: #ccc;stroke-miterlimit: 10;stroke-width: 0.5px"/>
        <line x1="-58.07" y1="305.68" x2="272.79" y2="-25.18" style="fill: none;stroke: #ccc;stroke-miterlimit: 10;stroke-width: 0.5px"/>
        <line x1="-51.07" y1="305.68" x2="279.79" y2="-25.18" style="fill: none;stroke: #ccc;stroke-miterlimit: 10;stroke-width: 0.5px"/>
        <line x1="-44.07" y1="305.68" x2="286.79" y2="-25.18" style="fill: none;stroke: #ccc;stroke-miterlimit: 10;stroke-width: 0.5px"/>
        <line x1="-37.07" y1="305.68" x2="293.79" y2="-25.18" style="fill: none;stroke: #ccc;stroke-miterlimit: 10;stroke-width: 0.5px"/>
        <line x1="-30.07" y1="305.68" x2="300.79" y2="-25.18" style="fill: none;stroke: #ccc;stroke-miterlimit: 10;stroke-width: 0.5px"/>
        <line x1="-23.07" y1="305.68" x2="307.79" y2="-25.18" style="fill: none;stroke: #ccc;stroke-miterlimit: 10;stroke-width: 0.5px"/>
        <line x1="-16.07" y1="305.68" x2="314.79" y2="-25.18" style="fill: none;stroke: #ccc;stroke-miterlimit: 10;stroke-width: 0.5px"/>
        <line x1="-9.07" y1="305.68" x2="321.79" y2="-25.18" style="fill: none;stroke: #ccc;stroke-miterlimit: 10;stroke-width: 0.5px"/>
        <line x1="-2.07" y1="305.68" x2="328.79" y2="-25.18" style="fill: none;stroke: #ccc;stroke-miterlimit: 10;stroke-width: 0.5px"/>
        <line x1="4.93" y1="305.68" x2="335.79" y2="-25.18" style="fill: none;stroke: #ccc;stroke-miterlimit: 10;stroke-width: 0.5px"/>
        <line x1="11.93" y1="305.68" x2="342.79" y2="-25.18" style="fill: none;stroke: #ccc;stroke-miterlimit: 10;stroke-width: 0.5px"/>
        <line x1="18.93" y1="305.68" x2="349.79" y2="-25.18" style="fill: none;stroke: #ccc;stroke-miterlimit: 10;stroke-width: 0.5px"/>
        <line x1="25.93" y1="305.68" x2="356.79" y2="-25.18" style="fill: none;stroke: #ccc;stroke-miterlimit: 10;stroke-width: 0.5px"/>
        <line x1="32.93" y1="305.68" x2="363.79" y2="-25.18" style="fill: none;stroke: #ccc;stroke-miterlimit: 10;stroke-width: 0.5px"/>
        <line x1="39.93" y1="305.68" x2="370.79" y2="-25.18" style="fill: none;stroke: #ccc;stroke-miterlimit: 10;stroke-width: 0.5px"/>
        <line x1="46.93" y1="305.68" x2="377.79" y2="-25.18" style="fill: none;stroke: #ccc;stroke-miterlimit: 10;stroke-width: 0.5px"/>
        <line x1="53.93" y1="305.68" x2="384.79" y2="-25.18" style="fill: none;stroke: #ccc;stroke-miterlimit: 10;stroke-width: 0.5px"/>
        <line x1="60.93" y1="305.68" x2="391.79" y2="-25.18" style="fill: none;stroke: #ccc;stroke-miterlimit: 10;stroke-width: 0.5px"/>
        <line x1="67.93" y1="305.68" x2="398.79" y2="-25.18" style="fill: none;stroke: #ccc;stroke-miterlimit: 10;stroke-width: 0.5px"/>
        <line x1="74.93" y1="305.68" x2="405.79" y2="-25.18" style="fill: none;stroke: #ccc;stroke-miterlimit: 10;stroke-width: 0.5px"/>
        <line x1="81.93" y1="305.68" x2="412.79" y2="-25.18" style="fill: none;stroke: #ccc;stroke-miterlimit: 10;stroke-width: 0.5px"/>
        <line x1="88.93" y1="305.68" x2="419.79" y2="-25.18" style="fill: none;stroke: #ccc;stroke-miterlimit: 10;stroke-width: 0.5px"/>
      </g>
    </g>
    <g>
      <polyline points="0.36 10.02 76.92 53.85 77.58 142.07 1.69 186.45" style="fill: none;stroke: #999;stroke-miterlimit: 10;stroke-width: 0.5px"/>
      <polyline points="0.46 24.14 64.77 60.96 65.33 135.05 1.58 172.33" style="fill: none;stroke: #22b573;stroke-miterlimit: 10"/>
      <polyline points="0.56 36.94 53.75 67.4 54.21 128.69 1.49 159.52" style="fill: none;stroke: #fbb03b;stroke-miterlimit: 10"/>
      <polyline points="0.66 49.64 42.83 73.79 43.19 122.38 1.39 146.83" style="fill: none;stroke: #c1272d;stroke-miterlimit: 10"/>
      <polyline points="0.75 62.18 32.04 80.1 32.31 116.15 1.29 134.29" style="fill: none;stroke: #999;stroke-miterlimit: 10;stroke-width: 0.5px"/>
      <line x1="76.91" y1="53.85" x2="0.65" y2="98.55" style="fill: none;stroke: #999;stroke-miterlimit: 10;stroke-width: 0.5px"/>
      <line x1="0.65" y1="98.55" x2="77.58" y2="142.07" style="fill: none;stroke: #999;stroke-miterlimit: 10;stroke-width: 0.5px"/>
      <path d="M.65,93.57a4.63,4.63,0,0,1,0,9.26" style="fill: #9e005d"/>
    </g>
  </g>
</svg>
