<svg id="Capa_1" data-name="Capa 1" xmlns="http://www.w3.org/2000/svg" viewBox="0 0 500.92 513.53">
  <title>icono_pc</title>
  <rect x="59.69" y="360.62" width="381.54" height="151.9" style="fill: none"/>
  <g style="isolation: isolate">
    <text transform="translate(55.36 378.82)" style="isolation: isolate;font-size: 26px;font-family: 'Barlow', sans-serif;">Para mejorar tu experiencia en el </text>
    <text transform="translate(57.7 410.02)" style="isolation: isolate;font-size: 26px;font-family: 'Barlow', sans-serif;">sitio, te recomendamos ingresar </text>
    <text transform="translate(115.16 441.22)" style="isolation: isolate;font-size: 26px;font-family: 'Barlow', sans-serif;">desde un computado<tspan x="242.85" y="0" style="letter-spacing: -0.05517578125em">r</tspan><tspan x="250.07" y="0">.</tspan></text>
  </g>
  <g>
    <g>
      <path d="M409.23,281.24a3.15,3.15,0,0,1-3.15,3.15H96.42a3.15,3.15,0,0,1-3.15-3.15V71.61a3.15,3.15,0,0,1,3.15-3.15H406.08a3.15,3.15,0,0,1,3.15,3.15V281.24Z" style="fill: #fff"/>
      <path d="M406.08,288H96.42a6.77,6.77,0,0,1-6.76-6.76V71.61a6.77,6.77,0,0,1,6.76-6.76H406.08a6.77,6.77,0,0,1,6.76,6.76V281.24A6.77,6.77,0,0,1,406.08,288Zm-309.2-7.22H405.62V72.07H96.88Z"/>
    </g>
    <g>
      <rect x="206.49" y="285.24" width="88.92" height="27.36" style="fill: #fff"/>
      <path d="M295.41,316.21H206.49a3.61,3.61,0,0,1-3.61-3.61V285.24a3.61,3.61,0,0,1,3.61-3.61h88.92a3.61,3.61,0,0,1,3.61,3.61V312.6A3.61,3.61,0,0,1,295.41,316.21ZM210.1,309h81.7V288.85H210.1Z"/>
    </g>
    <g>
      <path d="M191.41,327.69a14.82,14.82,0,0,1,14.82-14.82" style="fill: #fff"/>
      <path d="M195,327.69H187.8a18.45,18.45,0,0,1,18.43-18.43v7.22A11.22,11.22,0,0,0,195,327.69Z"/>
    </g>
    <g>
      <path d="M310.29,327.69a14.82,14.82,0,0,0-14.82-14.82" style="fill: #fff"/>
      <path d="M313.91,327.69h-7.22a11.22,11.22,0,0,0-11.21-11.21v-7.22A18.45,18.45,0,0,1,313.91,327.69Z"/>
    </g>
    <path d="M409.1,334.39H91.69a3.61,3.61,0,1,1,0-7.22H409.1a3.61,3.61,0,1,1,0,7.22Z"/>
    <g>
      <rect x="109.48" y="83.86" width="284.32" height="184.56" style="fill: #009245"/>
      <path d="M393.8,272H109.48a3.61,3.61,0,0,1-3.61-3.61V83.86a3.61,3.61,0,0,1,3.61-3.61H393.8a3.61,3.61,0,0,1,3.61,3.61V268.41A3.61,3.61,0,0,1,393.8,272ZM113.1,264.8H390.19V87.47H113.1Z"/>
    </g>
    <path d="M251.13,243.88a64.6,64.6,0,1,1,64.6-64.6A64.67,64.67,0,0,1,251.13,243.88Zm0-122a57.37,57.37,0,1,0,57.38,57.37A57.44,57.44,0,0,0,251.13,121.9Z" style="fill: #fff"/>
    <g>
      <path d="M221.33,188.52l15,15.88s17.63-38,46-48.88" style="fill: #009245"/>
      <path d="M236.37,208a3.62,3.62,0,0,1-2.62-1.13l-15-15.88a3.61,3.61,0,0,1,5.24-5l11.52,12.16c5.83-10.8,22-37,45.64-46.06a3.61,3.61,0,1,1,2.58,6.75c-26.68,10.2-43.88,46.66-44.05,47a3.62,3.62,0,0,1-2.69,2A4,4,0,0,1,236.37,208Z" style="fill: #fff"/>
    </g>
  </g>
</svg>
