<svg id="Capa_1" data-name="Capa 1" xmlns="http://www.w3.org/2000/svg" xmlns:xlink="http://www.w3.org/1999/xlink" viewBox="0 0 118 20">
  <defs>
    <clipPath id="clip-path">
      <polygon points="261.61 -188.19 314.77 -157.67 315.03 -96.34 261 -65.1 261 -78 303.94 -102.62 303.7 -151.21 261.9 -175.5 261.61 -188.19" style="fill: none"/>
    </clipPath>
    <clipPath id="clip-path-2">
      <polygon points="261.61 -188.19 314.77 -157.67 315.3 -96.64 261.85 -65.1 261.42 -77.97 304.19 -102.62 303.7 -151.21 261.65 -175.36 261.61 -188.19" style="fill: none"/>
    </clipPath>
    <clipPath id="clip-path-3">
      <polygon points="42.61 -188.19 95.78 -157.67 96.03 -96.34 42 -65.1 42 -78 84.94 -102.62 84.7 -151.21 42.9 -175.5 42.61 -188.19" style="fill: none"/>
    </clipPath>
    <clipPath id="clip-path-4">
      <polygon points="42.61 -188.19 95.78 -157.67 96.3 -96.64 42.84 -65.1 42.42 -77.97 85.19 -102.62 84.7 -151.21 42.66 -175.36 42.61 -188.19" style="fill: none"/>
    </clipPath>
  </defs>
  <title>inferior</title>
  <g>
    <g style="clip-path: url(#clip-path)">
      <g>
        <line x1="-88.07" y1="81.68" x2="242.79" y2="-249.18" style="fill: none;stroke: #ccc;stroke-miterlimit: 10;stroke-width: 0.5px"/>
        <line x1="-81.07" y1="81.68" x2="249.79" y2="-249.18" style="fill: none;stroke: #ccc;stroke-miterlimit: 10;stroke-width: 0.5px"/>
        <line x1="-74.07" y1="81.68" x2="256.79" y2="-249.18" style="fill: none;stroke: #ccc;stroke-miterlimit: 10;stroke-width: 0.5px"/>
        <line x1="-67.07" y1="81.68" x2="263.79" y2="-249.18" style="fill: none;stroke: #ccc;stroke-miterlimit: 10;stroke-width: 0.5px"/>
        <line x1="-60.07" y1="81.68" x2="270.79" y2="-249.18" style="fill: none;stroke: #ccc;stroke-miterlimit: 10;stroke-width: 0.5px"/>
        <line x1="-53.07" y1="81.68" x2="277.79" y2="-249.18" style="fill: none;stroke: #ccc;stroke-miterlimit: 10;stroke-width: 0.5px"/>
        <line x1="-46.07" y1="81.68" x2="284.79" y2="-249.18" style="fill: none;stroke: #ccc;stroke-miterlimit: 10;stroke-width: 0.5px"/>
        <line x1="-39.07" y1="81.68" x2="291.79" y2="-249.18" style="fill: none;stroke: #ccc;stroke-miterlimit: 10;stroke-width: 0.5px"/>
        <line x1="-32.07" y1="81.68" x2="298.79" y2="-249.18" style="fill: none;stroke: #ccc;stroke-miterlimit: 10;stroke-width: 0.5px"/>
        <line x1="-25.07" y1="81.68" x2="305.79" y2="-249.18" style="fill: none;stroke: #ccc;stroke-miterlimit: 10;stroke-width: 0.5px"/>
        <line x1="-18.07" y1="81.68" x2="312.79" y2="-249.18" style="fill: none;stroke: #ccc;stroke-miterlimit: 10;stroke-width: 0.5px"/>
        <line x1="-11.07" y1="81.68" x2="319.79" y2="-249.18" style="fill: none;stroke: #ccc;stroke-miterlimit: 10;stroke-width: 0.5px"/>
        <line x1="-4.07" y1="81.68" x2="326.79" y2="-249.18" style="fill: none;stroke: #ccc;stroke-miterlimit: 10;stroke-width: 0.5px"/>
        <line x1="2.93" y1="81.68" x2="333.79" y2="-249.18" style="fill: none;stroke: #ccc;stroke-miterlimit: 10;stroke-width: 0.5px"/>
        <line x1="9.93" y1="81.68" x2="340.79" y2="-249.18" style="fill: none;stroke: #ccc;stroke-miterlimit: 10;stroke-width: 0.5px"/>
        <line x1="16.93" y1="81.68" x2="347.79" y2="-249.18" style="fill: none;stroke: #ccc;stroke-miterlimit: 10;stroke-width: 0.5px"/>
        <line x1="23.93" y1="81.68" x2="354.79" y2="-249.18" style="fill: none;stroke: #ccc;stroke-miterlimit: 10;stroke-width: 0.5px"/>
        <line x1="30.93" y1="81.68" x2="361.79" y2="-249.18" style="fill: none;stroke: #ccc;stroke-miterlimit: 10;stroke-width: 0.5px"/>
        <line x1="37.93" y1="81.68" x2="368.79" y2="-249.18" style="fill: none;stroke: #ccc;stroke-miterlimit: 10;stroke-width: 0.5px"/>
        <line x1="44.93" y1="81.68" x2="375.79" y2="-249.18" style="fill: none;stroke: #ccc;stroke-miterlimit: 10;stroke-width: 0.5px"/>
        <line x1="51.93" y1="81.68" x2="382.79" y2="-249.18" style="fill: none;stroke: #ccc;stroke-miterlimit: 10;stroke-width: 0.5px"/>
        <line x1="58.93" y1="81.68" x2="389.79" y2="-249.18" style="fill: none;stroke: #ccc;stroke-miterlimit: 10;stroke-width: 0.5px"/>
        <line x1="65.93" y1="81.68" x2="396.79" y2="-249.18" style="fill: none;stroke: #ccc;stroke-miterlimit: 10;stroke-width: 0.5px"/>
        <line x1="72.93" y1="81.68" x2="403.79" y2="-249.18" style="fill: none;stroke: #ccc;stroke-miterlimit: 10;stroke-width: 0.5px"/>
        <line x1="79.93" y1="81.68" x2="410.79" y2="-249.18" style="fill: none;stroke: #ccc;stroke-miterlimit: 10;stroke-width: 0.5px"/>
        <line x1="86.93" y1="81.68" x2="417.79" y2="-249.18" style="fill: none;stroke: #ccc;stroke-miterlimit: 10;stroke-width: 0.5px"/>
        <line x1="93.93" y1="81.68" x2="424.79" y2="-249.18" style="fill: none;stroke: #ccc;stroke-miterlimit: 10;stroke-width: 0.5px"/>
        <line x1="100.93" y1="81.68" x2="431.79" y2="-249.18" style="fill: none;stroke: #ccc;stroke-miterlimit: 10;stroke-width: 0.5px"/>
        <line x1="107.93" y1="81.68" x2="438.79" y2="-249.18" style="fill: none;stroke: #ccc;stroke-miterlimit: 10;stroke-width: 0.5px"/>
        <line x1="114.93" y1="81.68" x2="445.79" y2="-249.18" style="fill: none;stroke: #ccc;stroke-miterlimit: 10;stroke-width: 0.5px"/>
      </g>
    </g>
    <g style="clip-path: url(#clip-path-2)">
      <g>
        <line x1="-91.07" y1="80.68" x2="239.79" y2="-250.18" style="fill: none;stroke: #ccc;stroke-miterlimit: 10;stroke-width: 0.5px"/>
        <line x1="-84.07" y1="80.68" x2="246.79" y2="-250.18" style="fill: none;stroke: #ccc;stroke-miterlimit: 10;stroke-width: 0.5px"/>
        <line x1="-77.07" y1="80.68" x2="253.79" y2="-250.18" style="fill: none;stroke: #ccc;stroke-miterlimit: 10;stroke-width: 0.5px"/>
        <line x1="-70.07" y1="80.68" x2="260.79" y2="-250.18" style="fill: none;stroke: #ccc;stroke-miterlimit: 10;stroke-width: 0.5px"/>
        <line x1="-63.07" y1="80.68" x2="267.79" y2="-250.18" style="fill: none;stroke: #ccc;stroke-miterlimit: 10;stroke-width: 0.5px"/>
        <line x1="-56.07" y1="80.68" x2="274.79" y2="-250.18" style="fill: none;stroke: #ccc;stroke-miterlimit: 10;stroke-width: 0.5px"/>
        <line x1="-49.07" y1="80.68" x2="281.79" y2="-250.18" style="fill: none;stroke: #ccc;stroke-miterlimit: 10;stroke-width: 0.5px"/>
        <line x1="-42.07" y1="80.68" x2="288.79" y2="-250.18" style="fill: none;stroke: #ccc;stroke-miterlimit: 10;stroke-width: 0.5px"/>
        <line x1="-35.07" y1="80.68" x2="295.79" y2="-250.18" style="fill: none;stroke: #ccc;stroke-miterlimit: 10;stroke-width: 0.5px"/>
        <line x1="-28.07" y1="80.68" x2="302.79" y2="-250.18" style="fill: none;stroke: #ccc;stroke-miterlimit: 10;stroke-width: 0.5px"/>
        <line x1="-21.07" y1="80.68" x2="309.79" y2="-250.18" style="fill: none;stroke: #ccc;stroke-miterlimit: 10;stroke-width: 0.5px"/>
        <line x1="-14.07" y1="80.68" x2="316.79" y2="-250.18" style="fill: none;stroke: #ccc;stroke-miterlimit: 10;stroke-width: 0.5px"/>
        <line x1="-7.07" y1="80.68" x2="323.79" y2="-250.18" style="fill: none;stroke: #ccc;stroke-miterlimit: 10;stroke-width: 0.5px"/>
        <line x1="-0.07" y1="80.68" x2="330.79" y2="-250.18" style="fill: none;stroke: #ccc;stroke-miterlimit: 10;stroke-width: 0.5px"/>
        <line x1="6.93" y1="80.68" x2="337.79" y2="-250.18" style="fill: none;stroke: #ccc;stroke-miterlimit: 10;stroke-width: 0.5px"/>
        <line x1="13.93" y1="80.68" x2="344.79" y2="-250.18" style="fill: none;stroke: #ccc;stroke-miterlimit: 10;stroke-width: 0.5px"/>
        <line x1="20.93" y1="80.68" x2="351.79" y2="-250.18" style="fill: none;stroke: #ccc;stroke-miterlimit: 10;stroke-width: 0.5px"/>
        <line x1="27.93" y1="80.68" x2="358.79" y2="-250.18" style="fill: none;stroke: #ccc;stroke-miterlimit: 10;stroke-width: 0.5px"/>
        <line x1="34.93" y1="80.68" x2="365.79" y2="-250.18" style="fill: none;stroke: #ccc;stroke-miterlimit: 10;stroke-width: 0.5px"/>
        <line x1="41.93" y1="80.68" x2="372.79" y2="-250.18" style="fill: none;stroke: #ccc;stroke-miterlimit: 10;stroke-width: 0.5px"/>
        <line x1="48.93" y1="80.68" x2="379.79" y2="-250.18" style="fill: none;stroke: #ccc;stroke-miterlimit: 10;stroke-width: 0.5px"/>
        <line x1="55.93" y1="80.68" x2="386.79" y2="-250.18" style="fill: none;stroke: #ccc;stroke-miterlimit: 10;stroke-width: 0.5px"/>
        <line x1="62.93" y1="80.68" x2="393.79" y2="-250.18" style="fill: none;stroke: #ccc;stroke-miterlimit: 10;stroke-width: 0.5px"/>
        <line x1="69.93" y1="80.68" x2="400.79" y2="-250.18" style="fill: none;stroke: #ccc;stroke-miterlimit: 10;stroke-width: 0.5px"/>
        <line x1="76.93" y1="80.68" x2="407.79" y2="-250.18" style="fill: none;stroke: #ccc;stroke-miterlimit: 10;stroke-width: 0.5px"/>
        <line x1="83.93" y1="80.68" x2="414.79" y2="-250.18" style="fill: none;stroke: #ccc;stroke-miterlimit: 10;stroke-width: 0.5px"/>
        <line x1="90.93" y1="80.68" x2="421.79" y2="-250.18" style="fill: none;stroke: #ccc;stroke-miterlimit: 10;stroke-width: 0.5px"/>
        <line x1="97.93" y1="80.68" x2="428.79" y2="-250.18" style="fill: none;stroke: #ccc;stroke-miterlimit: 10;stroke-width: 0.5px"/>
        <line x1="104.93" y1="80.68" x2="435.79" y2="-250.18" style="fill: none;stroke: #ccc;stroke-miterlimit: 10;stroke-width: 0.5px"/>
        <line x1="111.93" y1="80.68" x2="442.79" y2="-250.18" style="fill: none;stroke: #ccc;stroke-miterlimit: 10;stroke-width: 0.5px"/>
      </g>
    </g>
  </g>
  <g>
    <g style="clip-path: url(#clip-path-3)">
      <g>
        <line x1="-307.07" y1="81.68" x2="23.79" y2="-249.18" style="fill: none;stroke: #ccc;stroke-miterlimit: 10;stroke-width: 0.5px"/>
        <line x1="-300.07" y1="81.68" x2="30.79" y2="-249.18" style="fill: none;stroke: #ccc;stroke-miterlimit: 10;stroke-width: 0.5px"/>
        <line x1="-293.07" y1="81.68" x2="37.79" y2="-249.18" style="fill: none;stroke: #ccc;stroke-miterlimit: 10;stroke-width: 0.5px"/>
        <line x1="-286.07" y1="81.68" x2="44.79" y2="-249.18" style="fill: none;stroke: #ccc;stroke-miterlimit: 10;stroke-width: 0.5px"/>
        <line x1="-279.07" y1="81.68" x2="51.79" y2="-249.18" style="fill: none;stroke: #ccc;stroke-miterlimit: 10;stroke-width: 0.5px"/>
        <line x1="-272.07" y1="81.68" x2="58.79" y2="-249.18" style="fill: none;stroke: #ccc;stroke-miterlimit: 10;stroke-width: 0.5px"/>
        <line x1="-265.07" y1="81.68" x2="65.79" y2="-249.18" style="fill: none;stroke: #ccc;stroke-miterlimit: 10;stroke-width: 0.5px"/>
        <line x1="-258.07" y1="81.68" x2="72.79" y2="-249.18" style="fill: none;stroke: #ccc;stroke-miterlimit: 10;stroke-width: 0.5px"/>
        <line x1="-251.07" y1="81.68" x2="79.79" y2="-249.18" style="fill: none;stroke: #ccc;stroke-miterlimit: 10;stroke-width: 0.5px"/>
        <line x1="-244.07" y1="81.68" x2="86.79" y2="-249.18" style="fill: none;stroke: #ccc;stroke-miterlimit: 10;stroke-width: 0.5px"/>
        <line x1="-237.07" y1="81.68" x2="93.79" y2="-249.18" style="fill: none;stroke: #ccc;stroke-miterlimit: 10;stroke-width: 0.5px"/>
        <line x1="-230.07" y1="81.68" x2="100.79" y2="-249.18" style="fill: none;stroke: #ccc;stroke-miterlimit: 10;stroke-width: 0.5px"/>
        <line x1="-223.07" y1="81.68" x2="107.79" y2="-249.18" style="fill: none;stroke: #ccc;stroke-miterlimit: 10;stroke-width: 0.5px"/>
        <line x1="-216.07" y1="81.68" x2="114.79" y2="-249.18" style="fill: none;stroke: #ccc;stroke-miterlimit: 10;stroke-width: 0.5px"/>
        <line x1="-209.07" y1="81.68" x2="121.79" y2="-249.18" style="fill: none;stroke: #ccc;stroke-miterlimit: 10;stroke-width: 0.5px"/>
        <line x1="-202.07" y1="81.68" x2="128.79" y2="-249.18" style="fill: none;stroke: #ccc;stroke-miterlimit: 10;stroke-width: 0.5px"/>
        <line x1="-195.07" y1="81.68" x2="135.79" y2="-249.18" style="fill: none;stroke: #ccc;stroke-miterlimit: 10;stroke-width: 0.5px"/>
        <line x1="-188.07" y1="81.68" x2="142.79" y2="-249.18" style="fill: none;stroke: #ccc;stroke-miterlimit: 10;stroke-width: 0.5px"/>
        <line x1="-181.07" y1="81.68" x2="149.79" y2="-249.18" style="fill: none;stroke: #ccc;stroke-miterlimit: 10;stroke-width: 0.5px"/>
        <line x1="-174.07" y1="81.68" x2="156.79" y2="-249.18" style="fill: none;stroke: #ccc;stroke-miterlimit: 10;stroke-width: 0.5px"/>
        <line x1="-167.07" y1="81.68" x2="163.79" y2="-249.18" style="fill: none;stroke: #ccc;stroke-miterlimit: 10;stroke-width: 0.5px"/>
        <line x1="-160.07" y1="81.68" x2="170.79" y2="-249.18" style="fill: none;stroke: #ccc;stroke-miterlimit: 10;stroke-width: 0.5px"/>
        <line x1="-153.07" y1="81.68" x2="177.79" y2="-249.18" style="fill: none;stroke: #ccc;stroke-miterlimit: 10;stroke-width: 0.5px"/>
        <line x1="-146.07" y1="81.68" x2="184.79" y2="-249.18" style="fill: none;stroke: #ccc;stroke-miterlimit: 10;stroke-width: 0.5px"/>
        <line x1="-139.07" y1="81.68" x2="191.79" y2="-249.18" style="fill: none;stroke: #ccc;stroke-miterlimit: 10;stroke-width: 0.5px"/>
        <line x1="-132.07" y1="81.68" x2="198.79" y2="-249.18" style="fill: none;stroke: #ccc;stroke-miterlimit: 10;stroke-width: 0.5px"/>
        <line x1="-125.07" y1="81.68" x2="205.79" y2="-249.18" style="fill: none;stroke: #ccc;stroke-miterlimit: 10;stroke-width: 0.5px"/>
        <line x1="-118.07" y1="81.68" x2="212.79" y2="-249.18" style="fill: none;stroke: #ccc;stroke-miterlimit: 10;stroke-width: 0.5px"/>
        <line x1="-111.07" y1="81.68" x2="219.79" y2="-249.18" style="fill: none;stroke: #ccc;stroke-miterlimit: 10;stroke-width: 0.5px"/>
        <line x1="-104.07" y1="81.68" x2="226.79" y2="-249.18" style="fill: none;stroke: #ccc;stroke-miterlimit: 10;stroke-width: 0.5px"/>
        <line x1="-97.07" y1="81.68" x2="233.79" y2="-249.18" style="fill: none;stroke: #ccc;stroke-miterlimit: 10;stroke-width: 0.5px"/>
        <line x1="-90.07" y1="81.68" x2="240.79" y2="-249.18" style="fill: none;stroke: #ccc;stroke-miterlimit: 10;stroke-width: 0.5px"/>
        <line x1="-83.07" y1="81.68" x2="247.79" y2="-249.18" style="fill: none;stroke: #ccc;stroke-miterlimit: 10;stroke-width: 0.5px"/>
        <line x1="-76.07" y1="81.68" x2="254.79" y2="-249.18" style="fill: none;stroke: #ccc;stroke-miterlimit: 10;stroke-width: 0.5px"/>
        <line x1="-69.07" y1="81.68" x2="261.79" y2="-249.18" style="fill: none;stroke: #ccc;stroke-miterlimit: 10;stroke-width: 0.5px"/>
        <line x1="-62.07" y1="81.68" x2="268.79" y2="-249.18" style="fill: none;stroke: #ccc;stroke-miterlimit: 10;stroke-width: 0.5px"/>
        <line x1="-55.07" y1="81.68" x2="275.79" y2="-249.18" style="fill: none;stroke: #ccc;stroke-miterlimit: 10;stroke-width: 0.5px"/>
        <line x1="-48.07" y1="81.68" x2="282.79" y2="-249.18" style="fill: none;stroke: #ccc;stroke-miterlimit: 10;stroke-width: 0.5px"/>
        <line x1="-41.07" y1="81.68" x2="289.79" y2="-249.18" style="fill: none;stroke: #ccc;stroke-miterlimit: 10;stroke-width: 0.5px"/>
        <line x1="-34.07" y1="81.68" x2="296.79" y2="-249.18" style="fill: none;stroke: #ccc;stroke-miterlimit: 10;stroke-width: 0.5px"/>
        <line x1="-27.07" y1="81.68" x2="303.79" y2="-249.18" style="fill: none;stroke: #ccc;stroke-miterlimit: 10;stroke-width: 0.5px"/>
        <line x1="-20.07" y1="81.68" x2="310.79" y2="-249.18" style="fill: none;stroke: #ccc;stroke-miterlimit: 10;stroke-width: 0.5px"/>
        <line x1="-13.07" y1="81.68" x2="317.79" y2="-249.18" style="fill: none;stroke: #ccc;stroke-miterlimit: 10;stroke-width: 0.5px"/>
        <line x1="-6.07" y1="81.68" x2="324.79" y2="-249.18" style="fill: none;stroke: #ccc;stroke-miterlimit: 10;stroke-width: 0.5px"/>
        <line x1="0.93" y1="81.68" x2="331.79" y2="-249.18" style="fill: none;stroke: #ccc;stroke-miterlimit: 10;stroke-width: 0.5px"/>
        <line x1="7.93" y1="81.68" x2="338.79" y2="-249.18" style="fill: none;stroke: #ccc;stroke-miterlimit: 10;stroke-width: 0.5px"/>
        <line x1="14.93" y1="81.68" x2="345.79" y2="-249.18" style="fill: none;stroke: #ccc;stroke-miterlimit: 10;stroke-width: 0.5px"/>
        <line x1="21.93" y1="81.68" x2="352.79" y2="-249.18" style="fill: none;stroke: #ccc;stroke-miterlimit: 10;stroke-width: 0.5px"/>
        <line x1="28.93" y1="81.68" x2="359.79" y2="-249.18" style="fill: none;stroke: #ccc;stroke-miterlimit: 10;stroke-width: 0.5px"/>
        <line x1="35.93" y1="81.68" x2="366.79" y2="-249.18" style="fill: none;stroke: #ccc;stroke-miterlimit: 10;stroke-width: 0.5px"/>
        <line x1="42.93" y1="81.68" x2="373.79" y2="-249.18" style="fill: none;stroke: #ccc;stroke-miterlimit: 10;stroke-width: 0.5px"/>
        <line x1="49.93" y1="81.68" x2="380.79" y2="-249.18" style="fill: none;stroke: #ccc;stroke-miterlimit: 10;stroke-width: 0.5px"/>
        <line x1="56.93" y1="81.68" x2="387.79" y2="-249.18" style="fill: none;stroke: #ccc;stroke-miterlimit: 10;stroke-width: 0.5px"/>
        <line x1="63.93" y1="81.68" x2="394.79" y2="-249.18" style="fill: none;stroke: #ccc;stroke-miterlimit: 10;stroke-width: 0.5px"/>
        <line x1="70.93" y1="81.68" x2="401.79" y2="-249.18" style="fill: none;stroke: #ccc;stroke-miterlimit: 10;stroke-width: 0.5px"/>
        <line x1="77.93" y1="81.68" x2="408.79" y2="-249.18" style="fill: none;stroke: #ccc;stroke-miterlimit: 10;stroke-width: 0.5px"/>
        <line x1="84.93" y1="81.68" x2="415.79" y2="-249.18" style="fill: none;stroke: #ccc;stroke-miterlimit: 10;stroke-width: 0.5px"/>
        <line x1="91.93" y1="81.68" x2="422.79" y2="-249.18" style="fill: none;stroke: #ccc;stroke-miterlimit: 10;stroke-width: 0.5px"/>
        <line x1="98.93" y1="81.68" x2="429.79" y2="-249.18" style="fill: none;stroke: #ccc;stroke-miterlimit: 10;stroke-width: 0.5px"/>
        <line x1="105.93" y1="81.68" x2="436.79" y2="-249.18" style="fill: none;stroke: #ccc;stroke-miterlimit: 10;stroke-width: 0.5px"/>
        <line x1="112.93" y1="81.68" x2="443.79" y2="-249.18" style="fill: none;stroke: #ccc;stroke-miterlimit: 10;stroke-width: 0.5px"/>
      </g>
    </g>
    <g style="clip-path: url(#clip-path-4)">
      <g>
        <line x1="-310.07" y1="80.68" x2="20.79" y2="-250.18" style="fill: none;stroke: #ccc;stroke-miterlimit: 10;stroke-width: 0.5px"/>
        <line x1="-303.07" y1="80.68" x2="27.79" y2="-250.18" style="fill: none;stroke: #ccc;stroke-miterlimit: 10;stroke-width: 0.5px"/>
        <line x1="-296.07" y1="80.68" x2="34.79" y2="-250.18" style="fill: none;stroke: #ccc;stroke-miterlimit: 10;stroke-width: 0.5px"/>
        <line x1="-289.07" y1="80.68" x2="41.79" y2="-250.18" style="fill: none;stroke: #ccc;stroke-miterlimit: 10;stroke-width: 0.5px"/>
        <line x1="-282.07" y1="80.68" x2="48.79" y2="-250.18" style="fill: none;stroke: #ccc;stroke-miterlimit: 10;stroke-width: 0.5px"/>
        <line x1="-275.07" y1="80.68" x2="55.79" y2="-250.18" style="fill: none;stroke: #ccc;stroke-miterlimit: 10;stroke-width: 0.5px"/>
        <line x1="-268.07" y1="80.68" x2="62.79" y2="-250.18" style="fill: none;stroke: #ccc;stroke-miterlimit: 10;stroke-width: 0.5px"/>
        <line x1="-261.07" y1="80.68" x2="69.79" y2="-250.18" style="fill: none;stroke: #ccc;stroke-miterlimit: 10;stroke-width: 0.5px"/>
        <line x1="-254.07" y1="80.68" x2="76.79" y2="-250.18" style="fill: none;stroke: #ccc;stroke-miterlimit: 10;stroke-width: 0.5px"/>
        <line x1="-247.07" y1="80.68" x2="83.79" y2="-250.18" style="fill: none;stroke: #ccc;stroke-miterlimit: 10;stroke-width: 0.5px"/>
        <line x1="-240.07" y1="80.68" x2="90.79" y2="-250.18" style="fill: none;stroke: #ccc;stroke-miterlimit: 10;stroke-width: 0.5px"/>
        <line x1="-233.07" y1="80.68" x2="97.79" y2="-250.18" style="fill: none;stroke: #ccc;stroke-miterlimit: 10;stroke-width: 0.5px"/>
        <line x1="-226.07" y1="80.68" x2="104.79" y2="-250.18" style="fill: none;stroke: #ccc;stroke-miterlimit: 10;stroke-width: 0.5px"/>
        <line x1="-219.07" y1="80.68" x2="111.79" y2="-250.18" style="fill: none;stroke: #ccc;stroke-miterlimit: 10;stroke-width: 0.5px"/>
        <line x1="-212.07" y1="80.68" x2="118.79" y2="-250.18" style="fill: none;stroke: #ccc;stroke-miterlimit: 10;stroke-width: 0.5px"/>
        <line x1="-205.07" y1="80.68" x2="125.79" y2="-250.18" style="fill: none;stroke: #ccc;stroke-miterlimit: 10;stroke-width: 0.5px"/>
        <line x1="-198.07" y1="80.68" x2="132.79" y2="-250.18" style="fill: none;stroke: #ccc;stroke-miterlimit: 10;stroke-width: 0.5px"/>
        <line x1="-191.07" y1="80.68" x2="139.79" y2="-250.18" style="fill: none;stroke: #ccc;stroke-miterlimit: 10;stroke-width: 0.5px"/>
        <line x1="-184.07" y1="80.68" x2="146.79" y2="-250.18" style="fill: none;stroke: #ccc;stroke-miterlimit: 10;stroke-width: 0.5px"/>
        <line x1="-177.07" y1="80.68" x2="153.79" y2="-250.18" style="fill: none;stroke: #ccc;stroke-miterlimit: 10;stroke-width: 0.5px"/>
        <line x1="-170.07" y1="80.68" x2="160.79" y2="-250.18" style="fill: none;stroke: #ccc;stroke-miterlimit: 10;stroke-width: 0.5px"/>
        <line x1="-163.07" y1="80.68" x2="167.79" y2="-250.18" style="fill: none;stroke: #ccc;stroke-miterlimit: 10;stroke-width: 0.5px"/>
        <line x1="-156.07" y1="80.68" x2="174.79" y2="-250.18" style="fill: none;stroke: #ccc;stroke-miterlimit: 10;stroke-width: 0.5px"/>
        <line x1="-149.07" y1="80.68" x2="181.79" y2="-250.18" style="fill: none;stroke: #ccc;stroke-miterlimit: 10;stroke-width: 0.5px"/>
        <line x1="-142.07" y1="80.68" x2="188.79" y2="-250.18" style="fill: none;stroke: #ccc;stroke-miterlimit: 10;stroke-width: 0.5px"/>
        <line x1="-135.07" y1="80.68" x2="195.79" y2="-250.18" style="fill: none;stroke: #ccc;stroke-miterlimit: 10;stroke-width: 0.5px"/>
        <line x1="-128.07" y1="80.68" x2="202.79" y2="-250.18" style="fill: none;stroke: #ccc;stroke-miterlimit: 10;stroke-width: 0.5px"/>
        <line x1="-121.07" y1="80.68" x2="209.79" y2="-250.18" style="fill: none;stroke: #ccc;stroke-miterlimit: 10;stroke-width: 0.5px"/>
        <line x1="-114.07" y1="80.68" x2="216.79" y2="-250.18" style="fill: none;stroke: #ccc;stroke-miterlimit: 10;stroke-width: 0.5px"/>
        <line x1="-107.07" y1="80.68" x2="223.79" y2="-250.18" style="fill: none;stroke: #ccc;stroke-miterlimit: 10;stroke-width: 0.5px"/>
        <line x1="-100.07" y1="80.68" x2="230.79" y2="-250.18" style="fill: none;stroke: #ccc;stroke-miterlimit: 10;stroke-width: 0.5px"/>
        <line x1="-93.07" y1="80.68" x2="237.79" y2="-250.18" style="fill: none;stroke: #ccc;stroke-miterlimit: 10;stroke-width: 0.5px"/>
        <line x1="-86.07" y1="80.68" x2="244.79" y2="-250.18" style="fill: none;stroke: #ccc;stroke-miterlimit: 10;stroke-width: 0.5px"/>
        <line x1="-79.07" y1="80.68" x2="251.79" y2="-250.18" style="fill: none;stroke: #ccc;stroke-miterlimit: 10;stroke-width: 0.5px"/>
        <line x1="-72.07" y1="80.68" x2="258.79" y2="-250.18" style="fill: none;stroke: #ccc;stroke-miterlimit: 10;stroke-width: 0.5px"/>
        <line x1="-65.07" y1="80.68" x2="265.79" y2="-250.18" style="fill: none;stroke: #ccc;stroke-miterlimit: 10;stroke-width: 0.5px"/>
        <line x1="-58.07" y1="80.68" x2="272.79" y2="-250.18" style="fill: none;stroke: #ccc;stroke-miterlimit: 10;stroke-width: 0.5px"/>
        <line x1="-51.07" y1="80.68" x2="279.79" y2="-250.18" style="fill: none;stroke: #ccc;stroke-miterlimit: 10;stroke-width: 0.5px"/>
        <line x1="-44.07" y1="80.68" x2="286.79" y2="-250.18" style="fill: none;stroke: #ccc;stroke-miterlimit: 10;stroke-width: 0.5px"/>
        <line x1="-37.07" y1="80.68" x2="293.79" y2="-250.18" style="fill: none;stroke: #ccc;stroke-miterlimit: 10;stroke-width: 0.5px"/>
        <line x1="-30.07" y1="80.68" x2="300.79" y2="-250.18" style="fill: none;stroke: #ccc;stroke-miterlimit: 10;stroke-width: 0.5px"/>
        <line x1="-23.07" y1="80.68" x2="307.79" y2="-250.18" style="fill: none;stroke: #ccc;stroke-miterlimit: 10;stroke-width: 0.5px"/>
        <line x1="-16.07" y1="80.68" x2="314.79" y2="-250.18" style="fill: none;stroke: #ccc;stroke-miterlimit: 10;stroke-width: 0.5px"/>
        <line x1="-9.07" y1="80.68" x2="321.79" y2="-250.18" style="fill: none;stroke: #ccc;stroke-miterlimit: 10;stroke-width: 0.5px"/>
        <line x1="-2.07" y1="80.68" x2="328.79" y2="-250.18" style="fill: none;stroke: #ccc;stroke-miterlimit: 10;stroke-width: 0.5px"/>
        <line x1="4.93" y1="80.68" x2="335.79" y2="-250.18" style="fill: none;stroke: #ccc;stroke-miterlimit: 10;stroke-width: 0.5px"/>
        <line x1="11.93" y1="80.68" x2="342.79" y2="-250.18" style="fill: none;stroke: #ccc;stroke-miterlimit: 10;stroke-width: 0.5px"/>
        <line x1="18.93" y1="80.68" x2="349.79" y2="-250.18" style="fill: none;stroke: #ccc;stroke-miterlimit: 10;stroke-width: 0.5px"/>
        <line x1="25.93" y1="80.68" x2="356.79" y2="-250.18" style="fill: none;stroke: #ccc;stroke-miterlimit: 10;stroke-width: 0.5px"/>
        <line x1="32.93" y1="80.68" x2="363.79" y2="-250.18" style="fill: none;stroke: #ccc;stroke-miterlimit: 10;stroke-width: 0.5px"/>
        <line x1="39.93" y1="80.68" x2="370.79" y2="-250.18" style="fill: none;stroke: #ccc;stroke-miterlimit: 10;stroke-width: 0.5px"/>
        <line x1="46.93" y1="80.68" x2="377.79" y2="-250.18" style="fill: none;stroke: #ccc;stroke-miterlimit: 10;stroke-width: 0.5px"/>
        <line x1="53.93" y1="80.68" x2="384.79" y2="-250.18" style="fill: none;stroke: #ccc;stroke-miterlimit: 10;stroke-width: 0.5px"/>
        <line x1="60.93" y1="80.68" x2="391.79" y2="-250.18" style="fill: none;stroke: #ccc;stroke-miterlimit: 10;stroke-width: 0.5px"/>
        <line x1="67.93" y1="80.68" x2="398.79" y2="-250.18" style="fill: none;stroke: #ccc;stroke-miterlimit: 10;stroke-width: 0.5px"/>
        <line x1="74.93" y1="80.68" x2="405.79" y2="-250.18" style="fill: none;stroke: #ccc;stroke-miterlimit: 10;stroke-width: 0.5px"/>
        <line x1="81.93" y1="80.68" x2="412.79" y2="-250.18" style="fill: none;stroke: #ccc;stroke-miterlimit: 10;stroke-width: 0.5px"/>
        <line x1="88.93" y1="80.68" x2="419.79" y2="-250.18" style="fill: none;stroke: #ccc;stroke-miterlimit: 10;stroke-width: 0.5px"/>
        <line x1="95.93" y1="80.68" x2="426.79" y2="-250.18" style="fill: none;stroke: #ccc;stroke-miterlimit: 10;stroke-width: 0.5px"/>
        <line x1="102.93" y1="80.68" x2="433.79" y2="-250.18" style="fill: none;stroke: #ccc;stroke-miterlimit: 10;stroke-width: 0.5px"/>
        <line x1="109.93" y1="80.68" x2="440.79" y2="-250.18" style="fill: none;stroke: #ccc;stroke-miterlimit: 10;stroke-width: 0.5px"/>
        <line x1="116.93" y1="80.68" x2="447.79" y2="-250.18" style="fill: none;stroke: #ccc;stroke-miterlimit: 10;stroke-width: 0.5px"/>
      </g>
    </g>
  </g>
  <g>
    <circle cx="114.73" cy="10.92" r="1.99" style="fill: #c1272d"/>
    <g>
      <line y1="10.5" x2="1.5" y2="10.5" style="fill: none;stroke: #c1272d;stroke-miterlimit: 10"/>
      <line x1="4.47" y1="10.5" x2="110.01" y2="10.5" style="fill: none;stroke: #c1272d;stroke-miterlimit: 10;stroke-dasharray: 2.972972869873047,2.972972869873047"/>
      <line x1="111.5" y1="10.5" x2="113" y2="10.5" style="fill: none;stroke: #c1272d;stroke-miterlimit: 10"/>
    </g>
  </g>
</svg>
