<svg id="Capa_1" data-name="Capa 1" xmlns="http://www.w3.org/2000/svg" xmlns:xlink="http://www.w3.org/1999/xlink" viewBox="0 0 113 17">
  <defs>
    <clipPath id="clip-path">
      <circle cx="42.96" cy="90.15" r="11.04" style="fill: none"/>
    </clipPath>
    <clipPath id="clip-path-2">
      <polygon points="13.46 29.71 54.6 53.33 54.8 100.78 13 124.95 13 114.97 26.33 83.87 46.03 58.32 13.69 39.53 13.46 29.71" style="fill: none"/>
    </clipPath>
    <clipPath id="clip-path-3">
      <polygon points="13.46 29.71 54.6 53.33 55.01 100.55 13.65 124.95 13.32 114.99 29.79 81.76 46.03 58.32 13.5 39.64 13.46 29.71" style="fill: none"/>
    </clipPath>
    <clipPath id="clip-path-4">
      <polygon points="257.61 -256.19 310.77 -225.67 311.03 -164.34 257 -133.1 257 -146 299.94 -170.62 299.7 -219.21 257.9 -243.5 257.61 -256.19" style="fill: none"/>
    </clipPath>
    <clipPath id="clip-path-5">
      <polygon points="257.61 -256.19 310.77 -225.67 311.3 -164.64 257.85 -133.1 257.42 -145.97 300.19 -170.62 299.7 -219.21 257.65 -243.36 257.61 -256.19" style="fill: none"/>
    </clipPath>
    <clipPath id="clip-path-6">
      <polygon points="38.61 -256.19 91.78 -225.67 92.03 -164.34 38 -133.1 38 -146 80.94 -170.62 80.7 -219.21 38.9 -243.5 38.61 -256.19" style="fill: none"/>
    </clipPath>
    <clipPath id="clip-path-7">
      <polygon points="38.61 -256.19 91.78 -225.67 92.3 -164.64 38.84 -133.1 38.42 -145.97 81.19 -170.62 80.7 -219.21 38.66 -243.36 38.61 -256.19" style="fill: none"/>
    </clipPath>
  </defs>
  <title>maximo</title>
  <g style="clip-path: url(#clip-path)">
    <g>
      <g style="clip-path: url(#clip-path-2)">
        <g>
          <line x1="-251.68" y1="238.52" x2="4.32" y2="-17.48" style="fill: none;stroke: #ccc;stroke-miterlimit: 10;stroke-width: 0.5px"/>
          <line x1="-246.26" y1="238.52" x2="9.73" y2="-17.48" style="fill: none;stroke: #ccc;stroke-miterlimit: 10;stroke-width: 0.5px"/>
          <line x1="-240.84" y1="238.52" x2="15.15" y2="-17.48" style="fill: none;stroke: #ccc;stroke-miterlimit: 10;stroke-width: 0.5px"/>
          <line x1="-235.43" y1="238.52" x2="20.56" y2="-17.48" style="fill: none;stroke: #ccc;stroke-miterlimit: 10;stroke-width: 0.5px"/>
          <line x1="-230.01" y1="238.52" x2="25.98" y2="-17.48" style="fill: none;stroke: #ccc;stroke-miterlimit: 10;stroke-width: 0.5px"/>
          <line x1="-224.6" y1="238.52" x2="31.4" y2="-17.48" style="fill: none;stroke: #ccc;stroke-miterlimit: 10;stroke-width: 0.5px"/>
          <line x1="-219.18" y1="238.52" x2="36.81" y2="-17.48" style="fill: none;stroke: #ccc;stroke-miterlimit: 10;stroke-width: 0.5px"/>
          <line x1="-213.76" y1="238.52" x2="42.23" y2="-17.48" style="fill: none;stroke: #ccc;stroke-miterlimit: 10;stroke-width: 0.5px"/>
          <line x1="-208.35" y1="238.52" x2="47.64" y2="-17.48" style="fill: none;stroke: #ccc;stroke-miterlimit: 10;stroke-width: 0.5px"/>
          <line x1="-202.93" y1="238.52" x2="53.06" y2="-17.48" style="fill: none;stroke: #ccc;stroke-miterlimit: 10;stroke-width: 0.5px"/>
          <line x1="-197.52" y1="238.52" x2="58.48" y2="-17.48" style="fill: none;stroke: #ccc;stroke-miterlimit: 10;stroke-width: 0.5px"/>
          <line x1="-192.1" y1="238.52" x2="63.89" y2="-17.48" style="fill: none;stroke: #ccc;stroke-miterlimit: 10;stroke-width: 0.5px"/>
          <line x1="-186.68" y1="238.52" x2="69.31" y2="-17.48" style="fill: none;stroke: #ccc;stroke-miterlimit: 10;stroke-width: 0.5px"/>
          <line x1="-181.27" y1="238.52" x2="74.72" y2="-17.48" style="fill: none;stroke: #ccc;stroke-miterlimit: 10;stroke-width: 0.5px"/>
          <line x1="-175.85" y1="238.52" x2="80.14" y2="-17.48" style="fill: none;stroke: #ccc;stroke-miterlimit: 10;stroke-width: 0.5px"/>
          <line x1="-170.44" y1="238.52" x2="85.56" y2="-17.48" style="fill: none;stroke: #ccc;stroke-miterlimit: 10;stroke-width: 0.5px"/>
          <line x1="-165.02" y1="238.52" x2="90.97" y2="-17.48" style="fill: none;stroke: #ccc;stroke-miterlimit: 10;stroke-width: 0.5px"/>
          <line x1="-159.6" y1="238.52" x2="96.39" y2="-17.48" style="fill: none;stroke: #ccc;stroke-miterlimit: 10;stroke-width: 0.5px"/>
          <line x1="-154.19" y1="238.52" x2="101.8" y2="-17.48" style="fill: none;stroke: #ccc;stroke-miterlimit: 10;stroke-width: 0.5px"/>
          <line x1="-148.77" y1="238.52" x2="107.22" y2="-17.48" style="fill: none;stroke: #ccc;stroke-miterlimit: 10;stroke-width: 0.5px"/>
          <line x1="-143.36" y1="238.52" x2="112.64" y2="-17.48" style="fill: none;stroke: #ccc;stroke-miterlimit: 10;stroke-width: 0.5px"/>
          <line x1="-137.94" y1="238.52" x2="118.05" y2="-17.48" style="fill: none;stroke: #ccc;stroke-miterlimit: 10;stroke-width: 0.5px"/>
          <line x1="-132.52" y1="238.52" x2="123.47" y2="-17.48" style="fill: none;stroke: #ccc;stroke-miterlimit: 10;stroke-width: 0.5px"/>
          <line x1="-127.11" y1="238.52" x2="128.89" y2="-17.48" style="fill: none;stroke: #ccc;stroke-miterlimit: 10;stroke-width: 0.5px"/>
          <line x1="-121.69" y1="238.52" x2="134.3" y2="-17.48" style="fill: none;stroke: #ccc;stroke-miterlimit: 10;stroke-width: 0.5px"/>
          <line x1="-116.28" y1="238.52" x2="139.72" y2="-17.48" style="fill: none;stroke: #ccc;stroke-miterlimit: 10;stroke-width: 0.5px"/>
          <line x1="-110.86" y1="238.52" x2="145.13" y2="-17.48" style="fill: none;stroke: #ccc;stroke-miterlimit: 10;stroke-width: 0.5px"/>
          <line x1="-105.44" y1="238.52" x2="150.55" y2="-17.48" style="fill: none;stroke: #ccc;stroke-miterlimit: 10;stroke-width: 0.5px"/>
          <line x1="-100.03" y1="238.52" x2="155.97" y2="-17.48" style="fill: none;stroke: #ccc;stroke-miterlimit: 10;stroke-width: 0.5px"/>
          <line x1="-94.61" y1="238.52" x2="161.38" y2="-17.48" style="fill: none;stroke: #ccc;stroke-miterlimit: 10;stroke-width: 0.5px"/>
          <line x1="-89.2" y1="238.52" x2="166.8" y2="-17.48" style="fill: none;stroke: #ccc;stroke-miterlimit: 10;stroke-width: 0.5px"/>
          <line x1="-83.78" y1="238.52" x2="172.21" y2="-17.48" style="fill: none;stroke: #ccc;stroke-miterlimit: 10;stroke-width: 0.5px"/>
          <line x1="-78.36" y1="238.52" x2="177.63" y2="-17.48" style="fill: none;stroke: #ccc;stroke-miterlimit: 10;stroke-width: 0.5px"/>
          <line x1="-72.95" y1="238.52" x2="183.05" y2="-17.48" style="fill: none;stroke: #ccc;stroke-miterlimit: 10;stroke-width: 0.5px"/>
          <line x1="-67.53" y1="238.52" x2="188.46" y2="-17.48" style="fill: none;stroke: #ccc;stroke-miterlimit: 10;stroke-width: 0.5px"/>
          <line x1="-62.11" y1="238.52" x2="193.88" y2="-17.48" style="fill: none;stroke: #ccc;stroke-miterlimit: 10;stroke-width: 0.5px"/>
          <line x1="-56.7" y1="238.52" x2="199.29" y2="-17.48" style="fill: none;stroke: #ccc;stroke-miterlimit: 10;stroke-width: 0.5px"/>
          <line x1="-51.28" y1="238.52" x2="204.71" y2="-17.48" style="fill: none;stroke: #ccc;stroke-miterlimit: 10;stroke-width: 0.5px"/>
          <line x1="-45.87" y1="238.52" x2="210.13" y2="-17.48" style="fill: none;stroke: #ccc;stroke-miterlimit: 10;stroke-width: 0.5px"/>
          <line x1="-40.45" y1="238.52" x2="215.54" y2="-17.48" style="fill: none;stroke: #ccc;stroke-miterlimit: 10;stroke-width: 0.5px"/>
          <line x1="-35.03" y1="238.52" x2="220.96" y2="-17.48" style="fill: none;stroke: #ccc;stroke-miterlimit: 10;stroke-width: 0.5px"/>
          <line x1="-29.62" y1="238.52" x2="226.37" y2="-17.48" style="fill: none;stroke: #ccc;stroke-miterlimit: 10;stroke-width: 0.5px"/>
          <line x1="-24.2" y1="238.52" x2="231.79" y2="-17.48" style="fill: none;stroke: #ccc;stroke-miterlimit: 10;stroke-width: 0.5px"/>
          <line x1="-18.79" y1="238.52" x2="237.21" y2="-17.48" style="fill: none;stroke: #ccc;stroke-miterlimit: 10;stroke-width: 0.5px"/>
          <line x1="-13.37" y1="238.52" x2="242.62" y2="-17.48" style="fill: none;stroke: #ccc;stroke-miterlimit: 10;stroke-width: 0.5px"/>
          <line x1="-7.95" y1="238.52" x2="248.04" y2="-17.48" style="fill: none;stroke: #ccc;stroke-miterlimit: 10;stroke-width: 0.5px"/>
          <line x1="-2.54" y1="238.52" x2="253.45" y2="-17.48" style="fill: none;stroke: #ccc;stroke-miterlimit: 10;stroke-width: 0.5px"/>
          <line x1="2.88" y1="238.52" x2="258.87" y2="-17.48" style="fill: none;stroke: #ccc;stroke-miterlimit: 10;stroke-width: 0.5px"/>
          <line x1="8.29" y1="238.52" x2="264.29" y2="-17.48" style="fill: none;stroke: #ccc;stroke-miterlimit: 10;stroke-width: 0.5px"/>
          <line x1="13.71" y1="238.52" x2="269.7" y2="-17.48" style="fill: none;stroke: #ccc;stroke-miterlimit: 10;stroke-width: 0.5px"/>
          <line x1="19.13" y1="238.52" x2="275.12" y2="-17.48" style="fill: none;stroke: #ccc;stroke-miterlimit: 10;stroke-width: 0.5px"/>
          <line x1="24.54" y1="238.52" x2="280.53" y2="-17.48" style="fill: none;stroke: #ccc;stroke-miterlimit: 10;stroke-width: 0.5px"/>
          <line x1="29.96" y1="238.52" x2="285.95" y2="-17.48" style="fill: none;stroke: #ccc;stroke-miterlimit: 10;stroke-width: 0.5px"/>
          <line x1="35.37" y1="238.52" x2="291.37" y2="-17.48" style="fill: none;stroke: #ccc;stroke-miterlimit: 10;stroke-width: 0.5px"/>
          <line x1="40.79" y1="238.52" x2="296.78" y2="-17.48" style="fill: none;stroke: #ccc;stroke-miterlimit: 10;stroke-width: 0.5px"/>
          <line x1="46.21" y1="238.52" x2="302.2" y2="-17.48" style="fill: none;stroke: #ccc;stroke-miterlimit: 10;stroke-width: 0.5px"/>
          <line x1="51.62" y1="238.52" x2="307.61" y2="-17.48" style="fill: none;stroke: #ccc;stroke-miterlimit: 10;stroke-width: 0.5px"/>
          <line x1="57.04" y1="238.52" x2="313.03" y2="-17.48" style="fill: none;stroke: #ccc;stroke-miterlimit: 10;stroke-width: 0.5px"/>
          <line x1="62.45" y1="238.52" x2="318.45" y2="-17.48" style="fill: none;stroke: #ccc;stroke-miterlimit: 10;stroke-width: 0.5px"/>
          <line x1="67.87" y1="238.52" x2="323.86" y2="-17.48" style="fill: none;stroke: #ccc;stroke-miterlimit: 10;stroke-width: 0.5px"/>
          <line x1="73.29" y1="238.52" x2="329.28" y2="-17.48" style="fill: none;stroke: #ccc;stroke-miterlimit: 10;stroke-width: 0.5px"/>
          <line x1="78.7" y1="238.52" x2="334.69" y2="-17.48" style="fill: none;stroke: #ccc;stroke-miterlimit: 10;stroke-width: 0.5px"/>
          <line x1="84.12" y1="238.52" x2="340.11" y2="-17.48" style="fill: none;stroke: #ccc;stroke-miterlimit: 10;stroke-width: 0.5px"/>
          <line x1="89.53" y1="238.52" x2="345.53" y2="-17.48" style="fill: none;stroke: #ccc;stroke-miterlimit: 10;stroke-width: 0.5px"/>
          <line x1="94.95" y1="238.52" x2="350.94" y2="-17.48" style="fill: none;stroke: #ccc;stroke-miterlimit: 10;stroke-width: 0.5px"/>
          <line x1="100.37" y1="238.52" x2="356.36" y2="-17.48" style="fill: none;stroke: #ccc;stroke-miterlimit: 10;stroke-width: 0.5px"/>
          <line x1="105.78" y1="238.52" x2="361.77" y2="-17.48" style="fill: none;stroke: #ccc;stroke-miterlimit: 10;stroke-width: 0.5px"/>
        </g>
      </g>
      <g style="clip-path: url(#clip-path-3)">
        <g>
          <line x1="-254" y1="237.74" x2="1.99" y2="-18.25" style="fill: none;stroke: #ccc;stroke-miterlimit: 10;stroke-width: 0.5px"/>
          <line x1="-248.58" y1="237.74" x2="7.41" y2="-18.25" style="fill: none;stroke: #ccc;stroke-miterlimit: 10;stroke-width: 0.5px"/>
          <line x1="-243.17" y1="237.74" x2="12.83" y2="-18.25" style="fill: none;stroke: #ccc;stroke-miterlimit: 10;stroke-width: 0.5px"/>
          <line x1="-237.75" y1="237.74" x2="18.24" y2="-18.25" style="fill: none;stroke: #ccc;stroke-miterlimit: 10;stroke-width: 0.5px"/>
          <line x1="-232.33" y1="237.74" x2="23.66" y2="-18.25" style="fill: none;stroke: #ccc;stroke-miterlimit: 10;stroke-width: 0.5px"/>
          <line x1="-226.92" y1="237.74" x2="29.08" y2="-18.25" style="fill: none;stroke: #ccc;stroke-miterlimit: 10;stroke-width: 0.5px"/>
          <line x1="-221.5" y1="237.74" x2="34.49" y2="-18.25" style="fill: none;stroke: #ccc;stroke-miterlimit: 10;stroke-width: 0.5px"/>
          <line x1="-216.09" y1="237.74" x2="39.91" y2="-18.25" style="fill: none;stroke: #ccc;stroke-miterlimit: 10;stroke-width: 0.5px"/>
          <line x1="-210.67" y1="237.74" x2="45.32" y2="-18.25" style="fill: none;stroke: #ccc;stroke-miterlimit: 10;stroke-width: 0.5px"/>
          <line x1="-205.25" y1="237.74" x2="50.74" y2="-18.25" style="fill: none;stroke: #ccc;stroke-miterlimit: 10;stroke-width: 0.5px"/>
          <line x1="-199.84" y1="237.74" x2="56.16" y2="-18.25" style="fill: none;stroke: #ccc;stroke-miterlimit: 10;stroke-width: 0.5px"/>
          <line x1="-194.42" y1="237.74" x2="61.57" y2="-18.25" style="fill: none;stroke: #ccc;stroke-miterlimit: 10;stroke-width: 0.5px"/>
          <line x1="-189" y1="237.74" x2="66.99" y2="-18.25" style="fill: none;stroke: #ccc;stroke-miterlimit: 10;stroke-width: 0.5px"/>
          <line x1="-183.59" y1="237.74" x2="72.4" y2="-18.25" style="fill: none;stroke: #ccc;stroke-miterlimit: 10;stroke-width: 0.5px"/>
          <line x1="-178.17" y1="237.74" x2="77.82" y2="-18.25" style="fill: none;stroke: #ccc;stroke-miterlimit: 10;stroke-width: 0.5px"/>
          <line x1="-172.76" y1="237.74" x2="83.24" y2="-18.25" style="fill: none;stroke: #ccc;stroke-miterlimit: 10;stroke-width: 0.5px"/>
          <line x1="-167.34" y1="237.74" x2="88.65" y2="-18.25" style="fill: none;stroke: #ccc;stroke-miterlimit: 10;stroke-width: 0.5px"/>
          <line x1="-161.92" y1="237.74" x2="94.07" y2="-18.25" style="fill: none;stroke: #ccc;stroke-miterlimit: 10;stroke-width: 0.5px"/>
          <line x1="-156.51" y1="237.74" x2="99.48" y2="-18.25" style="fill: none;stroke: #ccc;stroke-miterlimit: 10;stroke-width: 0.5px"/>
          <line x1="-151.09" y1="237.74" x2="104.9" y2="-18.25" style="fill: none;stroke: #ccc;stroke-miterlimit: 10;stroke-width: 0.5px"/>
          <line x1="-145.68" y1="237.74" x2="110.32" y2="-18.25" style="fill: none;stroke: #ccc;stroke-miterlimit: 10;stroke-width: 0.5px"/>
          <line x1="-140.26" y1="237.74" x2="115.73" y2="-18.25" style="fill: none;stroke: #ccc;stroke-miterlimit: 10;stroke-width: 0.5px"/>
          <line x1="-134.84" y1="237.74" x2="121.15" y2="-18.25" style="fill: none;stroke: #ccc;stroke-miterlimit: 10;stroke-width: 0.5px"/>
          <line x1="-129.43" y1="237.74" x2="126.56" y2="-18.25" style="fill: none;stroke: #ccc;stroke-miterlimit: 10;stroke-width: 0.5px"/>
          <line x1="-124.01" y1="237.74" x2="131.98" y2="-18.25" style="fill: none;stroke: #ccc;stroke-miterlimit: 10;stroke-width: 0.5px"/>
          <line x1="-118.6" y1="237.74" x2="137.4" y2="-18.25" style="fill: none;stroke: #ccc;stroke-miterlimit: 10;stroke-width: 0.5px"/>
          <line x1="-113.18" y1="237.74" x2="142.81" y2="-18.25" style="fill: none;stroke: #ccc;stroke-miterlimit: 10;stroke-width: 0.5px"/>
          <line x1="-107.76" y1="237.74" x2="148.23" y2="-18.25" style="fill: none;stroke: #ccc;stroke-miterlimit: 10;stroke-width: 0.5px"/>
          <line x1="-102.35" y1="237.74" x2="153.64" y2="-18.25" style="fill: none;stroke: #ccc;stroke-miterlimit: 10;stroke-width: 0.5px"/>
          <line x1="-96.93" y1="237.74" x2="159.06" y2="-18.25" style="fill: none;stroke: #ccc;stroke-miterlimit: 10;stroke-width: 0.5px"/>
          <line x1="-91.52" y1="237.74" x2="164.48" y2="-18.25" style="fill: none;stroke: #ccc;stroke-miterlimit: 10;stroke-width: 0.5px"/>
          <line x1="-86.1" y1="237.74" x2="169.89" y2="-18.25" style="fill: none;stroke: #ccc;stroke-miterlimit: 10;stroke-width: 0.5px"/>
          <line x1="-80.68" y1="237.74" x2="175.31" y2="-18.25" style="fill: none;stroke: #ccc;stroke-miterlimit: 10;stroke-width: 0.5px"/>
          <line x1="-75.27" y1="237.74" x2="180.72" y2="-18.25" style="fill: none;stroke: #ccc;stroke-miterlimit: 10;stroke-width: 0.5px"/>
          <line x1="-69.85" y1="237.74" x2="186.14" y2="-18.25" style="fill: none;stroke: #ccc;stroke-miterlimit: 10;stroke-width: 0.5px"/>
          <line x1="-64.44" y1="237.74" x2="191.56" y2="-18.25" style="fill: none;stroke: #ccc;stroke-miterlimit: 10;stroke-width: 0.5px"/>
          <line x1="-59.02" y1="237.74" x2="196.97" y2="-18.25" style="fill: none;stroke: #ccc;stroke-miterlimit: 10;stroke-width: 0.5px"/>
          <line x1="-53.6" y1="237.74" x2="202.39" y2="-18.25" style="fill: none;stroke: #ccc;stroke-miterlimit: 10;stroke-width: 0.5px"/>
          <line x1="-48.19" y1="237.74" x2="207.8" y2="-18.25" style="fill: none;stroke: #ccc;stroke-miterlimit: 10;stroke-width: 0.5px"/>
          <line x1="-42.77" y1="237.74" x2="213.22" y2="-18.25" style="fill: none;stroke: #ccc;stroke-miterlimit: 10;stroke-width: 0.5px"/>
          <line x1="-37.36" y1="237.74" x2="218.64" y2="-18.25" style="fill: none;stroke: #ccc;stroke-miterlimit: 10;stroke-width: 0.5px"/>
          <line x1="-31.94" y1="237.74" x2="224.05" y2="-18.25" style="fill: none;stroke: #ccc;stroke-miterlimit: 10;stroke-width: 0.5px"/>
          <line x1="-26.52" y1="237.74" x2="229.47" y2="-18.25" style="fill: none;stroke: #ccc;stroke-miterlimit: 10;stroke-width: 0.5px"/>
          <line x1="-21.11" y1="237.74" x2="234.88" y2="-18.25" style="fill: none;stroke: #ccc;stroke-miterlimit: 10;stroke-width: 0.5px"/>
          <line x1="-15.69" y1="237.74" x2="240.3" y2="-18.25" style="fill: none;stroke: #ccc;stroke-miterlimit: 10;stroke-width: 0.5px"/>
          <line x1="-10.28" y1="237.74" x2="245.72" y2="-18.25" style="fill: none;stroke: #ccc;stroke-miterlimit: 10;stroke-width: 0.5px"/>
          <line x1="-4.86" y1="237.74" x2="251.13" y2="-18.25" style="fill: none;stroke: #ccc;stroke-miterlimit: 10;stroke-width: 0.5px"/>
          <line x1="0.56" y1="237.74" x2="256.55" y2="-18.25" style="fill: none;stroke: #ccc;stroke-miterlimit: 10;stroke-width: 0.5px"/>
          <line x1="5.97" y1="237.74" x2="261.96" y2="-18.25" style="fill: none;stroke: #ccc;stroke-miterlimit: 10;stroke-width: 0.5px"/>
          <line x1="11.39" y1="237.74" x2="267.38" y2="-18.25" style="fill: none;stroke: #ccc;stroke-miterlimit: 10;stroke-width: 0.5px"/>
          <line x1="16.8" y1="237.74" x2="272.8" y2="-18.25" style="fill: none;stroke: #ccc;stroke-miterlimit: 10;stroke-width: 0.5px"/>
          <line x1="22.22" y1="237.74" x2="278.21" y2="-18.25" style="fill: none;stroke: #ccc;stroke-miterlimit: 10;stroke-width: 0.5px"/>
          <line x1="27.64" y1="237.74" x2="283.63" y2="-18.25" style="fill: none;stroke: #ccc;stroke-miterlimit: 10;stroke-width: 0.5px"/>
          <line x1="33.05" y1="237.74" x2="289.05" y2="-18.25" style="fill: none;stroke: #ccc;stroke-miterlimit: 10;stroke-width: 0.5px"/>
          <line x1="38.47" y1="237.74" x2="294.46" y2="-18.25" style="fill: none;stroke: #ccc;stroke-miterlimit: 10;stroke-width: 0.5px"/>
          <line x1="43.88" y1="237.74" x2="299.88" y2="-18.25" style="fill: none;stroke: #ccc;stroke-miterlimit: 10;stroke-width: 0.5px"/>
          <line x1="49.3" y1="237.74" x2="305.29" y2="-18.25" style="fill: none;stroke: #ccc;stroke-miterlimit: 10;stroke-width: 0.5px"/>
          <line x1="54.72" y1="237.74" x2="310.71" y2="-18.25" style="fill: none;stroke: #ccc;stroke-miterlimit: 10;stroke-width: 0.5px"/>
          <line x1="60.13" y1="237.74" x2="316.13" y2="-18.25" style="fill: none;stroke: #ccc;stroke-miterlimit: 10;stroke-width: 0.5px"/>
          <line x1="65.55" y1="237.74" x2="321.54" y2="-18.25" style="fill: none;stroke: #ccc;stroke-miterlimit: 10;stroke-width: 0.5px"/>
          <line x1="70.97" y1="237.74" x2="326.96" y2="-18.25" style="fill: none;stroke: #ccc;stroke-miterlimit: 10;stroke-width: 0.5px"/>
          <line x1="76.38" y1="237.74" x2="332.37" y2="-18.25" style="fill: none;stroke: #ccc;stroke-miterlimit: 10;stroke-width: 0.5px"/>
          <line x1="81.8" y1="237.74" x2="337.79" y2="-18.25" style="fill: none;stroke: #ccc;stroke-miterlimit: 10;stroke-width: 0.5px"/>
          <line x1="87.21" y1="237.74" x2="343.21" y2="-18.25" style="fill: none;stroke: #ccc;stroke-miterlimit: 10;stroke-width: 0.5px"/>
          <line x1="92.63" y1="237.74" x2="348.62" y2="-18.25" style="fill: none;stroke: #ccc;stroke-miterlimit: 10;stroke-width: 0.5px"/>
          <line x1="98.05" y1="237.74" x2="354.04" y2="-18.25" style="fill: none;stroke: #ccc;stroke-miterlimit: 10;stroke-width: 0.5px"/>
          <line x1="103.46" y1="237.74" x2="359.45" y2="-18.25" style="fill: none;stroke: #ccc;stroke-miterlimit: 10;stroke-width: 0.5px"/>
        </g>
      </g>
    </g>
  </g>
  <g>
    <g style="clip-path: url(#clip-path-4)">
      <g>
        <line x1="-92.07" y1="13.68" x2="238.79" y2="-317.18" style="fill: none;stroke: #ccc;stroke-miterlimit: 10;stroke-width: 0.5px"/>
        <line x1="-85.07" y1="13.68" x2="245.79" y2="-317.18" style="fill: none;stroke: #ccc;stroke-miterlimit: 10;stroke-width: 0.5px"/>
        <line x1="-78.07" y1="13.68" x2="252.79" y2="-317.18" style="fill: none;stroke: #ccc;stroke-miterlimit: 10;stroke-width: 0.5px"/>
        <line x1="-71.07" y1="13.68" x2="259.79" y2="-317.18" style="fill: none;stroke: #ccc;stroke-miterlimit: 10;stroke-width: 0.5px"/>
        <line x1="-64.07" y1="13.68" x2="266.79" y2="-317.18" style="fill: none;stroke: #ccc;stroke-miterlimit: 10;stroke-width: 0.5px"/>
        <line x1="-57.07" y1="13.68" x2="273.79" y2="-317.18" style="fill: none;stroke: #ccc;stroke-miterlimit: 10;stroke-width: 0.5px"/>
        <line x1="-50.07" y1="13.68" x2="280.79" y2="-317.18" style="fill: none;stroke: #ccc;stroke-miterlimit: 10;stroke-width: 0.5px"/>
        <line x1="-43.07" y1="13.68" x2="287.79" y2="-317.18" style="fill: none;stroke: #ccc;stroke-miterlimit: 10;stroke-width: 0.5px"/>
        <line x1="-36.07" y1="13.68" x2="294.79" y2="-317.18" style="fill: none;stroke: #ccc;stroke-miterlimit: 10;stroke-width: 0.5px"/>
        <line x1="-29.07" y1="13.68" x2="301.79" y2="-317.18" style="fill: none;stroke: #ccc;stroke-miterlimit: 10;stroke-width: 0.5px"/>
        <line x1="-22.07" y1="13.68" x2="308.79" y2="-317.18" style="fill: none;stroke: #ccc;stroke-miterlimit: 10;stroke-width: 0.5px"/>
        <line x1="-15.07" y1="13.68" x2="315.79" y2="-317.18" style="fill: none;stroke: #ccc;stroke-miterlimit: 10;stroke-width: 0.5px"/>
        <line x1="-8.07" y1="13.68" x2="322.79" y2="-317.18" style="fill: none;stroke: #ccc;stroke-miterlimit: 10;stroke-width: 0.5px"/>
        <line x1="-1.07" y1="13.68" x2="329.79" y2="-317.18" style="fill: none;stroke: #ccc;stroke-miterlimit: 10;stroke-width: 0.5px"/>
        <line x1="5.93" y1="13.68" x2="336.79" y2="-317.18" style="fill: none;stroke: #ccc;stroke-miterlimit: 10;stroke-width: 0.5px"/>
        <line x1="12.93" y1="13.68" x2="343.79" y2="-317.18" style="fill: none;stroke: #ccc;stroke-miterlimit: 10;stroke-width: 0.5px"/>
        <line x1="19.93" y1="13.68" x2="350.79" y2="-317.18" style="fill: none;stroke: #ccc;stroke-miterlimit: 10;stroke-width: 0.5px"/>
        <line x1="26.93" y1="13.68" x2="357.79" y2="-317.18" style="fill: none;stroke: #ccc;stroke-miterlimit: 10;stroke-width: 0.5px"/>
        <line x1="33.93" y1="13.68" x2="364.79" y2="-317.18" style="fill: none;stroke: #ccc;stroke-miterlimit: 10;stroke-width: 0.5px"/>
        <line x1="40.93" y1="13.68" x2="371.79" y2="-317.18" style="fill: none;stroke: #ccc;stroke-miterlimit: 10;stroke-width: 0.5px"/>
        <line x1="47.93" y1="13.68" x2="378.79" y2="-317.18" style="fill: none;stroke: #ccc;stroke-miterlimit: 10;stroke-width: 0.5px"/>
        <line x1="54.93" y1="13.68" x2="385.79" y2="-317.18" style="fill: none;stroke: #ccc;stroke-miterlimit: 10;stroke-width: 0.5px"/>
        <line x1="61.93" y1="13.68" x2="392.79" y2="-317.18" style="fill: none;stroke: #ccc;stroke-miterlimit: 10;stroke-width: 0.5px"/>
        <line x1="68.93" y1="13.68" x2="399.79" y2="-317.18" style="fill: none;stroke: #ccc;stroke-miterlimit: 10;stroke-width: 0.5px"/>
        <line x1="75.93" y1="13.68" x2="406.79" y2="-317.18" style="fill: none;stroke: #ccc;stroke-miterlimit: 10;stroke-width: 0.5px"/>
        <line x1="82.93" y1="13.68" x2="413.79" y2="-317.18" style="fill: none;stroke: #ccc;stroke-miterlimit: 10;stroke-width: 0.5px"/>
        <line x1="89.93" y1="13.68" x2="420.79" y2="-317.18" style="fill: none;stroke: #ccc;stroke-miterlimit: 10;stroke-width: 0.5px"/>
        <line x1="96.93" y1="13.68" x2="427.79" y2="-317.18" style="fill: none;stroke: #ccc;stroke-miterlimit: 10;stroke-width: 0.5px"/>
        <line x1="103.93" y1="13.68" x2="434.79" y2="-317.18" style="fill: none;stroke: #ccc;stroke-miterlimit: 10;stroke-width: 0.5px"/>
        <line x1="110.93" y1="13.68" x2="441.79" y2="-317.18" style="fill: none;stroke: #ccc;stroke-miterlimit: 10;stroke-width: 0.5px"/>
      </g>
    </g>
    <g style="clip-path: url(#clip-path-5)">
      <g>
        <line x1="-95.07" y1="12.68" x2="235.79" y2="-318.18" style="fill: none;stroke: #ccc;stroke-miterlimit: 10;stroke-width: 0.5px"/>
        <line x1="-88.07" y1="12.68" x2="242.79" y2="-318.18" style="fill: none;stroke: #ccc;stroke-miterlimit: 10;stroke-width: 0.5px"/>
        <line x1="-81.07" y1="12.68" x2="249.79" y2="-318.18" style="fill: none;stroke: #ccc;stroke-miterlimit: 10;stroke-width: 0.5px"/>
        <line x1="-74.07" y1="12.68" x2="256.79" y2="-318.18" style="fill: none;stroke: #ccc;stroke-miterlimit: 10;stroke-width: 0.5px"/>
        <line x1="-67.07" y1="12.68" x2="263.79" y2="-318.18" style="fill: none;stroke: #ccc;stroke-miterlimit: 10;stroke-width: 0.5px"/>
        <line x1="-60.07" y1="12.68" x2="270.79" y2="-318.18" style="fill: none;stroke: #ccc;stroke-miterlimit: 10;stroke-width: 0.5px"/>
        <line x1="-53.07" y1="12.68" x2="277.79" y2="-318.18" style="fill: none;stroke: #ccc;stroke-miterlimit: 10;stroke-width: 0.5px"/>
        <line x1="-46.07" y1="12.68" x2="284.79" y2="-318.18" style="fill: none;stroke: #ccc;stroke-miterlimit: 10;stroke-width: 0.5px"/>
        <line x1="-39.07" y1="12.68" x2="291.79" y2="-318.18" style="fill: none;stroke: #ccc;stroke-miterlimit: 10;stroke-width: 0.5px"/>
        <line x1="-32.07" y1="12.68" x2="298.79" y2="-318.18" style="fill: none;stroke: #ccc;stroke-miterlimit: 10;stroke-width: 0.5px"/>
        <line x1="-25.07" y1="12.68" x2="305.79" y2="-318.18" style="fill: none;stroke: #ccc;stroke-miterlimit: 10;stroke-width: 0.5px"/>
        <line x1="-18.07" y1="12.68" x2="312.79" y2="-318.18" style="fill: none;stroke: #ccc;stroke-miterlimit: 10;stroke-width: 0.5px"/>
        <line x1="-11.07" y1="12.68" x2="319.79" y2="-318.18" style="fill: none;stroke: #ccc;stroke-miterlimit: 10;stroke-width: 0.5px"/>
        <line x1="-4.07" y1="12.68" x2="326.79" y2="-318.18" style="fill: none;stroke: #ccc;stroke-miterlimit: 10;stroke-width: 0.5px"/>
        <line x1="2.93" y1="12.68" x2="333.79" y2="-318.18" style="fill: none;stroke: #ccc;stroke-miterlimit: 10;stroke-width: 0.5px"/>
        <line x1="9.93" y1="12.68" x2="340.79" y2="-318.18" style="fill: none;stroke: #ccc;stroke-miterlimit: 10;stroke-width: 0.5px"/>
        <line x1="16.93" y1="12.68" x2="347.79" y2="-318.18" style="fill: none;stroke: #ccc;stroke-miterlimit: 10;stroke-width: 0.5px"/>
        <line x1="23.93" y1="12.68" x2="354.79" y2="-318.18" style="fill: none;stroke: #ccc;stroke-miterlimit: 10;stroke-width: 0.5px"/>
        <line x1="30.93" y1="12.68" x2="361.79" y2="-318.18" style="fill: none;stroke: #ccc;stroke-miterlimit: 10;stroke-width: 0.5px"/>
        <line x1="37.93" y1="12.68" x2="368.79" y2="-318.18" style="fill: none;stroke: #ccc;stroke-miterlimit: 10;stroke-width: 0.5px"/>
        <line x1="44.93" y1="12.68" x2="375.79" y2="-318.18" style="fill: none;stroke: #ccc;stroke-miterlimit: 10;stroke-width: 0.5px"/>
        <line x1="51.93" y1="12.68" x2="382.79" y2="-318.18" style="fill: none;stroke: #ccc;stroke-miterlimit: 10;stroke-width: 0.5px"/>
        <line x1="58.93" y1="12.68" x2="389.79" y2="-318.18" style="fill: none;stroke: #ccc;stroke-miterlimit: 10;stroke-width: 0.5px"/>
        <line x1="65.93" y1="12.68" x2="396.79" y2="-318.18" style="fill: none;stroke: #ccc;stroke-miterlimit: 10;stroke-width: 0.5px"/>
        <line x1="72.93" y1="12.68" x2="403.79" y2="-318.18" style="fill: none;stroke: #ccc;stroke-miterlimit: 10;stroke-width: 0.5px"/>
        <line x1="79.93" y1="12.68" x2="410.79" y2="-318.18" style="fill: none;stroke: #ccc;stroke-miterlimit: 10;stroke-width: 0.5px"/>
        <line x1="86.93" y1="12.68" x2="417.79" y2="-318.18" style="fill: none;stroke: #ccc;stroke-miterlimit: 10;stroke-width: 0.5px"/>
        <line x1="93.93" y1="12.68" x2="424.79" y2="-318.18" style="fill: none;stroke: #ccc;stroke-miterlimit: 10;stroke-width: 0.5px"/>
        <line x1="100.93" y1="12.68" x2="431.79" y2="-318.18" style="fill: none;stroke: #ccc;stroke-miterlimit: 10;stroke-width: 0.5px"/>
        <line x1="107.93" y1="12.68" x2="438.79" y2="-318.18" style="fill: none;stroke: #ccc;stroke-miterlimit: 10;stroke-width: 0.5px"/>
      </g>
    </g>
  </g>
  <g>
    <g style="clip-path: url(#clip-path-6)">
      <g>
        <line x1="-311.07" y1="13.68" x2="19.79" y2="-317.18" style="fill: none;stroke: #ccc;stroke-miterlimit: 10;stroke-width: 0.5px"/>
        <line x1="-304.07" y1="13.68" x2="26.79" y2="-317.18" style="fill: none;stroke: #ccc;stroke-miterlimit: 10;stroke-width: 0.5px"/>
        <line x1="-297.07" y1="13.68" x2="33.79" y2="-317.18" style="fill: none;stroke: #ccc;stroke-miterlimit: 10;stroke-width: 0.5px"/>
        <line x1="-290.07" y1="13.68" x2="40.79" y2="-317.18" style="fill: none;stroke: #ccc;stroke-miterlimit: 10;stroke-width: 0.5px"/>
        <line x1="-283.07" y1="13.68" x2="47.79" y2="-317.18" style="fill: none;stroke: #ccc;stroke-miterlimit: 10;stroke-width: 0.5px"/>
        <line x1="-276.07" y1="13.68" x2="54.79" y2="-317.18" style="fill: none;stroke: #ccc;stroke-miterlimit: 10;stroke-width: 0.5px"/>
        <line x1="-269.07" y1="13.68" x2="61.79" y2="-317.18" style="fill: none;stroke: #ccc;stroke-miterlimit: 10;stroke-width: 0.5px"/>
        <line x1="-262.07" y1="13.68" x2="68.79" y2="-317.18" style="fill: none;stroke: #ccc;stroke-miterlimit: 10;stroke-width: 0.5px"/>
        <line x1="-255.07" y1="13.68" x2="75.79" y2="-317.18" style="fill: none;stroke: #ccc;stroke-miterlimit: 10;stroke-width: 0.5px"/>
        <line x1="-248.07" y1="13.68" x2="82.79" y2="-317.18" style="fill: none;stroke: #ccc;stroke-miterlimit: 10;stroke-width: 0.5px"/>
        <line x1="-241.07" y1="13.68" x2="89.79" y2="-317.18" style="fill: none;stroke: #ccc;stroke-miterlimit: 10;stroke-width: 0.5px"/>
        <line x1="-234.07" y1="13.68" x2="96.79" y2="-317.18" style="fill: none;stroke: #ccc;stroke-miterlimit: 10;stroke-width: 0.5px"/>
        <line x1="-227.07" y1="13.68" x2="103.79" y2="-317.18" style="fill: none;stroke: #ccc;stroke-miterlimit: 10;stroke-width: 0.5px"/>
        <line x1="-220.07" y1="13.68" x2="110.79" y2="-317.18" style="fill: none;stroke: #ccc;stroke-miterlimit: 10;stroke-width: 0.5px"/>
        <line x1="-213.07" y1="13.68" x2="117.79" y2="-317.18" style="fill: none;stroke: #ccc;stroke-miterlimit: 10;stroke-width: 0.5px"/>
        <line x1="-206.07" y1="13.68" x2="124.79" y2="-317.18" style="fill: none;stroke: #ccc;stroke-miterlimit: 10;stroke-width: 0.5px"/>
        <line x1="-199.07" y1="13.68" x2="131.79" y2="-317.18" style="fill: none;stroke: #ccc;stroke-miterlimit: 10;stroke-width: 0.5px"/>
        <line x1="-192.07" y1="13.68" x2="138.79" y2="-317.18" style="fill: none;stroke: #ccc;stroke-miterlimit: 10;stroke-width: 0.5px"/>
        <line x1="-185.07" y1="13.68" x2="145.79" y2="-317.18" style="fill: none;stroke: #ccc;stroke-miterlimit: 10;stroke-width: 0.5px"/>
        <line x1="-178.07" y1="13.68" x2="152.79" y2="-317.18" style="fill: none;stroke: #ccc;stroke-miterlimit: 10;stroke-width: 0.5px"/>
        <line x1="-171.07" y1="13.68" x2="159.79" y2="-317.18" style="fill: none;stroke: #ccc;stroke-miterlimit: 10;stroke-width: 0.5px"/>
        <line x1="-164.07" y1="13.68" x2="166.79" y2="-317.18" style="fill: none;stroke: #ccc;stroke-miterlimit: 10;stroke-width: 0.5px"/>
        <line x1="-157.07" y1="13.68" x2="173.79" y2="-317.18" style="fill: none;stroke: #ccc;stroke-miterlimit: 10;stroke-width: 0.5px"/>
        <line x1="-150.07" y1="13.68" x2="180.79" y2="-317.18" style="fill: none;stroke: #ccc;stroke-miterlimit: 10;stroke-width: 0.5px"/>
        <line x1="-143.07" y1="13.68" x2="187.79" y2="-317.18" style="fill: none;stroke: #ccc;stroke-miterlimit: 10;stroke-width: 0.5px"/>
        <line x1="-136.07" y1="13.68" x2="194.79" y2="-317.18" style="fill: none;stroke: #ccc;stroke-miterlimit: 10;stroke-width: 0.5px"/>
        <line x1="-129.07" y1="13.68" x2="201.79" y2="-317.18" style="fill: none;stroke: #ccc;stroke-miterlimit: 10;stroke-width: 0.5px"/>
        <line x1="-122.07" y1="13.68" x2="208.79" y2="-317.18" style="fill: none;stroke: #ccc;stroke-miterlimit: 10;stroke-width: 0.5px"/>
        <line x1="-115.07" y1="13.68" x2="215.79" y2="-317.18" style="fill: none;stroke: #ccc;stroke-miterlimit: 10;stroke-width: 0.5px"/>
        <line x1="-108.07" y1="13.68" x2="222.79" y2="-317.18" style="fill: none;stroke: #ccc;stroke-miterlimit: 10;stroke-width: 0.5px"/>
        <line x1="-101.07" y1="13.68" x2="229.79" y2="-317.18" style="fill: none;stroke: #ccc;stroke-miterlimit: 10;stroke-width: 0.5px"/>
        <line x1="-94.07" y1="13.68" x2="236.79" y2="-317.18" style="fill: none;stroke: #ccc;stroke-miterlimit: 10;stroke-width: 0.5px"/>
        <line x1="-87.07" y1="13.68" x2="243.79" y2="-317.18" style="fill: none;stroke: #ccc;stroke-miterlimit: 10;stroke-width: 0.5px"/>
        <line x1="-80.07" y1="13.68" x2="250.79" y2="-317.18" style="fill: none;stroke: #ccc;stroke-miterlimit: 10;stroke-width: 0.5px"/>
        <line x1="-73.07" y1="13.68" x2="257.79" y2="-317.18" style="fill: none;stroke: #ccc;stroke-miterlimit: 10;stroke-width: 0.5px"/>
        <line x1="-66.07" y1="13.68" x2="264.79" y2="-317.18" style="fill: none;stroke: #ccc;stroke-miterlimit: 10;stroke-width: 0.5px"/>
        <line x1="-59.07" y1="13.68" x2="271.79" y2="-317.18" style="fill: none;stroke: #ccc;stroke-miterlimit: 10;stroke-width: 0.5px"/>
        <line x1="-52.07" y1="13.68" x2="278.79" y2="-317.18" style="fill: none;stroke: #ccc;stroke-miterlimit: 10;stroke-width: 0.5px"/>
        <line x1="-45.07" y1="13.68" x2="285.79" y2="-317.18" style="fill: none;stroke: #ccc;stroke-miterlimit: 10;stroke-width: 0.5px"/>
        <line x1="-38.07" y1="13.68" x2="292.79" y2="-317.18" style="fill: none;stroke: #ccc;stroke-miterlimit: 10;stroke-width: 0.5px"/>
        <line x1="-31.07" y1="13.68" x2="299.79" y2="-317.18" style="fill: none;stroke: #ccc;stroke-miterlimit: 10;stroke-width: 0.5px"/>
        <line x1="-24.07" y1="13.68" x2="306.79" y2="-317.18" style="fill: none;stroke: #ccc;stroke-miterlimit: 10;stroke-width: 0.5px"/>
        <line x1="-17.07" y1="13.68" x2="313.79" y2="-317.18" style="fill: none;stroke: #ccc;stroke-miterlimit: 10;stroke-width: 0.5px"/>
        <line x1="-10.07" y1="13.68" x2="320.79" y2="-317.18" style="fill: none;stroke: #ccc;stroke-miterlimit: 10;stroke-width: 0.5px"/>
        <line x1="-3.07" y1="13.68" x2="327.79" y2="-317.18" style="fill: none;stroke: #ccc;stroke-miterlimit: 10;stroke-width: 0.5px"/>
        <line x1="3.93" y1="13.68" x2="334.79" y2="-317.18" style="fill: none;stroke: #ccc;stroke-miterlimit: 10;stroke-width: 0.5px"/>
        <line x1="10.93" y1="13.68" x2="341.79" y2="-317.18" style="fill: none;stroke: #ccc;stroke-miterlimit: 10;stroke-width: 0.5px"/>
        <line x1="17.93" y1="13.68" x2="348.79" y2="-317.18" style="fill: none;stroke: #ccc;stroke-miterlimit: 10;stroke-width: 0.5px"/>
        <line x1="24.93" y1="13.68" x2="355.79" y2="-317.18" style="fill: none;stroke: #ccc;stroke-miterlimit: 10;stroke-width: 0.5px"/>
        <line x1="31.93" y1="13.68" x2="362.79" y2="-317.18" style="fill: none;stroke: #ccc;stroke-miterlimit: 10;stroke-width: 0.5px"/>
        <line x1="38.93" y1="13.68" x2="369.79" y2="-317.18" style="fill: none;stroke: #ccc;stroke-miterlimit: 10;stroke-width: 0.5px"/>
        <line x1="45.93" y1="13.68" x2="376.79" y2="-317.18" style="fill: none;stroke: #ccc;stroke-miterlimit: 10;stroke-width: 0.5px"/>
        <line x1="52.93" y1="13.68" x2="383.79" y2="-317.18" style="fill: none;stroke: #ccc;stroke-miterlimit: 10;stroke-width: 0.5px"/>
        <line x1="59.93" y1="13.68" x2="390.79" y2="-317.18" style="fill: none;stroke: #ccc;stroke-miterlimit: 10;stroke-width: 0.5px"/>
        <line x1="66.93" y1="13.68" x2="397.79" y2="-317.18" style="fill: none;stroke: #ccc;stroke-miterlimit: 10;stroke-width: 0.5px"/>
        <line x1="73.93" y1="13.68" x2="404.79" y2="-317.18" style="fill: none;stroke: #ccc;stroke-miterlimit: 10;stroke-width: 0.5px"/>
        <line x1="80.93" y1="13.68" x2="411.79" y2="-317.18" style="fill: none;stroke: #ccc;stroke-miterlimit: 10;stroke-width: 0.5px"/>
        <line x1="87.93" y1="13.68" x2="418.79" y2="-317.18" style="fill: none;stroke: #ccc;stroke-miterlimit: 10;stroke-width: 0.5px"/>
        <line x1="94.93" y1="13.68" x2="425.79" y2="-317.18" style="fill: none;stroke: #ccc;stroke-miterlimit: 10;stroke-width: 0.5px"/>
        <line x1="101.93" y1="13.68" x2="432.79" y2="-317.18" style="fill: none;stroke: #ccc;stroke-miterlimit: 10;stroke-width: 0.5px"/>
        <line x1="108.93" y1="13.68" x2="439.79" y2="-317.18" style="fill: none;stroke: #ccc;stroke-miterlimit: 10;stroke-width: 0.5px"/>
      </g>
    </g>
    <g style="clip-path: url(#clip-path-7)">
      <g>
        <line x1="-314.07" y1="12.68" x2="16.79" y2="-318.18" style="fill: none;stroke: #ccc;stroke-miterlimit: 10;stroke-width: 0.5px"/>
        <line x1="-307.07" y1="12.68" x2="23.79" y2="-318.18" style="fill: none;stroke: #ccc;stroke-miterlimit: 10;stroke-width: 0.5px"/>
        <line x1="-300.07" y1="12.68" x2="30.79" y2="-318.18" style="fill: none;stroke: #ccc;stroke-miterlimit: 10;stroke-width: 0.5px"/>
        <line x1="-293.07" y1="12.68" x2="37.79" y2="-318.18" style="fill: none;stroke: #ccc;stroke-miterlimit: 10;stroke-width: 0.5px"/>
        <line x1="-286.07" y1="12.68" x2="44.79" y2="-318.18" style="fill: none;stroke: #ccc;stroke-miterlimit: 10;stroke-width: 0.5px"/>
        <line x1="-279.07" y1="12.68" x2="51.79" y2="-318.18" style="fill: none;stroke: #ccc;stroke-miterlimit: 10;stroke-width: 0.5px"/>
        <line x1="-272.07" y1="12.68" x2="58.79" y2="-318.18" style="fill: none;stroke: #ccc;stroke-miterlimit: 10;stroke-width: 0.5px"/>
        <line x1="-265.07" y1="12.68" x2="65.79" y2="-318.18" style="fill: none;stroke: #ccc;stroke-miterlimit: 10;stroke-width: 0.5px"/>
        <line x1="-258.07" y1="12.68" x2="72.79" y2="-318.18" style="fill: none;stroke: #ccc;stroke-miterlimit: 10;stroke-width: 0.5px"/>
        <line x1="-251.07" y1="12.68" x2="79.79" y2="-318.18" style="fill: none;stroke: #ccc;stroke-miterlimit: 10;stroke-width: 0.5px"/>
        <line x1="-244.07" y1="12.68" x2="86.79" y2="-318.18" style="fill: none;stroke: #ccc;stroke-miterlimit: 10;stroke-width: 0.5px"/>
        <line x1="-237.07" y1="12.68" x2="93.79" y2="-318.18" style="fill: none;stroke: #ccc;stroke-miterlimit: 10;stroke-width: 0.5px"/>
        <line x1="-230.07" y1="12.68" x2="100.79" y2="-318.18" style="fill: none;stroke: #ccc;stroke-miterlimit: 10;stroke-width: 0.5px"/>
        <line x1="-223.07" y1="12.68" x2="107.79" y2="-318.18" style="fill: none;stroke: #ccc;stroke-miterlimit: 10;stroke-width: 0.5px"/>
        <line x1="-216.07" y1="12.68" x2="114.79" y2="-318.18" style="fill: none;stroke: #ccc;stroke-miterlimit: 10;stroke-width: 0.5px"/>
        <line x1="-209.07" y1="12.68" x2="121.79" y2="-318.18" style="fill: none;stroke: #ccc;stroke-miterlimit: 10;stroke-width: 0.5px"/>
        <line x1="-202.07" y1="12.68" x2="128.79" y2="-318.18" style="fill: none;stroke: #ccc;stroke-miterlimit: 10;stroke-width: 0.5px"/>
        <line x1="-195.07" y1="12.68" x2="135.79" y2="-318.18" style="fill: none;stroke: #ccc;stroke-miterlimit: 10;stroke-width: 0.5px"/>
        <line x1="-188.07" y1="12.68" x2="142.79" y2="-318.18" style="fill: none;stroke: #ccc;stroke-miterlimit: 10;stroke-width: 0.5px"/>
        <line x1="-181.07" y1="12.68" x2="149.79" y2="-318.18" style="fill: none;stroke: #ccc;stroke-miterlimit: 10;stroke-width: 0.5px"/>
        <line x1="-174.07" y1="12.68" x2="156.79" y2="-318.18" style="fill: none;stroke: #ccc;stroke-miterlimit: 10;stroke-width: 0.5px"/>
        <line x1="-167.07" y1="12.68" x2="163.79" y2="-318.18" style="fill: none;stroke: #ccc;stroke-miterlimit: 10;stroke-width: 0.5px"/>
        <line x1="-160.07" y1="12.68" x2="170.79" y2="-318.18" style="fill: none;stroke: #ccc;stroke-miterlimit: 10;stroke-width: 0.5px"/>
        <line x1="-153.07" y1="12.68" x2="177.79" y2="-318.18" style="fill: none;stroke: #ccc;stroke-miterlimit: 10;stroke-width: 0.5px"/>
        <line x1="-146.07" y1="12.68" x2="184.79" y2="-318.18" style="fill: none;stroke: #ccc;stroke-miterlimit: 10;stroke-width: 0.5px"/>
        <line x1="-139.07" y1="12.68" x2="191.79" y2="-318.18" style="fill: none;stroke: #ccc;stroke-miterlimit: 10;stroke-width: 0.5px"/>
        <line x1="-132.07" y1="12.68" x2="198.79" y2="-318.18" style="fill: none;stroke: #ccc;stroke-miterlimit: 10;stroke-width: 0.5px"/>
        <line x1="-125.07" y1="12.68" x2="205.79" y2="-318.18" style="fill: none;stroke: #ccc;stroke-miterlimit: 10;stroke-width: 0.5px"/>
        <line x1="-118.07" y1="12.68" x2="212.79" y2="-318.18" style="fill: none;stroke: #ccc;stroke-miterlimit: 10;stroke-width: 0.5px"/>
        <line x1="-111.07" y1="12.68" x2="219.79" y2="-318.18" style="fill: none;stroke: #ccc;stroke-miterlimit: 10;stroke-width: 0.5px"/>
        <line x1="-104.07" y1="12.68" x2="226.79" y2="-318.18" style="fill: none;stroke: #ccc;stroke-miterlimit: 10;stroke-width: 0.5px"/>
        <line x1="-97.07" y1="12.68" x2="233.79" y2="-318.18" style="fill: none;stroke: #ccc;stroke-miterlimit: 10;stroke-width: 0.5px"/>
        <line x1="-90.07" y1="12.68" x2="240.79" y2="-318.18" style="fill: none;stroke: #ccc;stroke-miterlimit: 10;stroke-width: 0.5px"/>
        <line x1="-83.07" y1="12.68" x2="247.79" y2="-318.18" style="fill: none;stroke: #ccc;stroke-miterlimit: 10;stroke-width: 0.5px"/>
        <line x1="-76.07" y1="12.68" x2="254.79" y2="-318.18" style="fill: none;stroke: #ccc;stroke-miterlimit: 10;stroke-width: 0.5px"/>
        <line x1="-69.07" y1="12.68" x2="261.79" y2="-318.18" style="fill: none;stroke: #ccc;stroke-miterlimit: 10;stroke-width: 0.5px"/>
        <line x1="-62.07" y1="12.68" x2="268.79" y2="-318.18" style="fill: none;stroke: #ccc;stroke-miterlimit: 10;stroke-width: 0.5px"/>
        <line x1="-55.07" y1="12.68" x2="275.79" y2="-318.18" style="fill: none;stroke: #ccc;stroke-miterlimit: 10;stroke-width: 0.5px"/>
        <line x1="-48.07" y1="12.68" x2="282.79" y2="-318.18" style="fill: none;stroke: #ccc;stroke-miterlimit: 10;stroke-width: 0.5px"/>
        <line x1="-41.07" y1="12.68" x2="289.79" y2="-318.18" style="fill: none;stroke: #ccc;stroke-miterlimit: 10;stroke-width: 0.5px"/>
        <line x1="-34.07" y1="12.68" x2="296.79" y2="-318.18" style="fill: none;stroke: #ccc;stroke-miterlimit: 10;stroke-width: 0.5px"/>
        <line x1="-27.07" y1="12.68" x2="303.79" y2="-318.18" style="fill: none;stroke: #ccc;stroke-miterlimit: 10;stroke-width: 0.5px"/>
        <line x1="-20.07" y1="12.68" x2="310.79" y2="-318.18" style="fill: none;stroke: #ccc;stroke-miterlimit: 10;stroke-width: 0.5px"/>
        <line x1="-13.07" y1="12.68" x2="317.79" y2="-318.18" style="fill: none;stroke: #ccc;stroke-miterlimit: 10;stroke-width: 0.5px"/>
        <line x1="-6.07" y1="12.68" x2="324.79" y2="-318.18" style="fill: none;stroke: #ccc;stroke-miterlimit: 10;stroke-width: 0.5px"/>
        <line x1="0.93" y1="12.68" x2="331.79" y2="-318.18" style="fill: none;stroke: #ccc;stroke-miterlimit: 10;stroke-width: 0.5px"/>
        <line x1="7.93" y1="12.68" x2="338.79" y2="-318.18" style="fill: none;stroke: #ccc;stroke-miterlimit: 10;stroke-width: 0.5px"/>
        <line x1="14.93" y1="12.68" x2="345.79" y2="-318.18" style="fill: none;stroke: #ccc;stroke-miterlimit: 10;stroke-width: 0.5px"/>
        <line x1="21.93" y1="12.68" x2="352.79" y2="-318.18" style="fill: none;stroke: #ccc;stroke-miterlimit: 10;stroke-width: 0.5px"/>
        <line x1="28.93" y1="12.68" x2="359.79" y2="-318.18" style="fill: none;stroke: #ccc;stroke-miterlimit: 10;stroke-width: 0.5px"/>
        <line x1="35.93" y1="12.68" x2="366.79" y2="-318.18" style="fill: none;stroke: #ccc;stroke-miterlimit: 10;stroke-width: 0.5px"/>
        <line x1="42.93" y1="12.68" x2="373.79" y2="-318.18" style="fill: none;stroke: #ccc;stroke-miterlimit: 10;stroke-width: 0.5px"/>
        <line x1="49.93" y1="12.68" x2="380.79" y2="-318.18" style="fill: none;stroke: #ccc;stroke-miterlimit: 10;stroke-width: 0.5px"/>
        <line x1="56.93" y1="12.68" x2="387.79" y2="-318.18" style="fill: none;stroke: #ccc;stroke-miterlimit: 10;stroke-width: 0.5px"/>
        <line x1="63.93" y1="12.68" x2="394.79" y2="-318.18" style="fill: none;stroke: #ccc;stroke-miterlimit: 10;stroke-width: 0.5px"/>
        <line x1="70.93" y1="12.68" x2="401.79" y2="-318.18" style="fill: none;stroke: #ccc;stroke-miterlimit: 10;stroke-width: 0.5px"/>
        <line x1="77.93" y1="12.68" x2="408.79" y2="-318.18" style="fill: none;stroke: #ccc;stroke-miterlimit: 10;stroke-width: 0.5px"/>
        <line x1="84.93" y1="12.68" x2="415.79" y2="-318.18" style="fill: none;stroke: #ccc;stroke-miterlimit: 10;stroke-width: 0.5px"/>
        <line x1="91.93" y1="12.68" x2="422.79" y2="-318.18" style="fill: none;stroke: #ccc;stroke-miterlimit: 10;stroke-width: 0.5px"/>
        <line x1="98.93" y1="12.68" x2="429.79" y2="-318.18" style="fill: none;stroke: #ccc;stroke-miterlimit: 10;stroke-width: 0.5px"/>
        <line x1="105.93" y1="12.68" x2="436.79" y2="-318.18" style="fill: none;stroke: #ccc;stroke-miterlimit: 10;stroke-width: 0.5px"/>
        <line x1="112.93" y1="12.68" x2="443.79" y2="-318.18" style="fill: none;stroke: #ccc;stroke-miterlimit: 10;stroke-width: 0.5px"/>
      </g>
    </g>
  </g>
  <g>
    <circle cx="110.73" cy="8.92" r="1.99" style="fill: #22b573"/>
    <g>
      <line x1="-0.14" y1="8.5" x2="1.36" y2="8.5" style="fill: none;stroke: #22b573;stroke-miterlimit: 10"/>
      <line x1="4.39" y1="8.5" x2="105.98" y2="8.5" style="fill: none;stroke: #22b573;stroke-miterlimit: 10;stroke-dasharray: 3.0325253009796143,3.0325253009796143"/>
      <line x1="107.5" y1="8.5" x2="109" y2="8.5" style="fill: none;stroke: #22b573;stroke-miterlimit: 10"/>
    </g>
  </g>
</svg>
