<svg id="Capa_1" data-name="Capa 1" xmlns="http://www.w3.org/2000/svg" xmlns:xlink="http://www.w3.org/1999/xlink" viewBox="0 0 26 25">
  <defs>
    <clipPath id="clip-path">
      <circle cx="12.96" cy="12.15" r="11.04" style="fill: none"/>
    </clipPath>
    <clipPath id="clip-path-2">
      <polygon points="-16.54 -48.29 24.6 -24.67 24.8 22.78 -17 46.95 -17 36.97 -3.67 5.87 16.03 -19.68 -16.31 -38.47 -16.54 -48.29" style="fill: none"/>
    </clipPath>
    <clipPath id="clip-path-3">
      <polygon points="-16.54 -48.29 24.6 -24.67 25.01 22.55 -16.35 46.95 -16.68 36.99 -0.21 3.76 16.03 -19.68 -16.5 -38.36 -16.54 -48.29" style="fill: none"/>
    </clipPath>
  </defs>
  <title>promedio</title>
  <g>
    <g style="clip-path: url(#clip-path)">
      <g>
        <g style="clip-path: url(#clip-path-2)">
          <g>
            <line x1="-254.6" y1="160.52" x2="1.4" y2="-95.48" style="fill: none;stroke: #ccc;stroke-miterlimit: 10;stroke-width: 0.5px"/>
            <line x1="-249.18" y1="160.52" x2="6.81" y2="-95.48" style="fill: none;stroke: #ccc;stroke-miterlimit: 10;stroke-width: 0.5px"/>
            <line x1="-243.76" y1="160.52" x2="12.23" y2="-95.48" style="fill: none;stroke: #ccc;stroke-miterlimit: 10;stroke-width: 0.5px"/>
            <line x1="-238.35" y1="160.52" x2="17.64" y2="-95.48" style="fill: none;stroke: #ccc;stroke-miterlimit: 10;stroke-width: 0.5px"/>
            <line x1="-232.93" y1="160.52" x2="23.06" y2="-95.48" style="fill: none;stroke: #ccc;stroke-miterlimit: 10;stroke-width: 0.5px"/>
            <line x1="-227.52" y1="160.52" x2="28.48" y2="-95.48" style="fill: none;stroke: #ccc;stroke-miterlimit: 10;stroke-width: 0.5px"/>
            <line x1="-222.1" y1="160.52" x2="33.89" y2="-95.48" style="fill: none;stroke: #ccc;stroke-miterlimit: 10;stroke-width: 0.5px"/>
            <line x1="-216.68" y1="160.52" x2="39.31" y2="-95.48" style="fill: none;stroke: #ccc;stroke-miterlimit: 10;stroke-width: 0.5px"/>
            <line x1="-211.27" y1="160.52" x2="44.72" y2="-95.48" style="fill: none;stroke: #ccc;stroke-miterlimit: 10;stroke-width: 0.5px"/>
            <line x1="-205.85" y1="160.52" x2="50.14" y2="-95.48" style="fill: none;stroke: #ccc;stroke-miterlimit: 10;stroke-width: 0.5px"/>
            <line x1="-200.44" y1="160.52" x2="55.56" y2="-95.48" style="fill: none;stroke: #ccc;stroke-miterlimit: 10;stroke-width: 0.5px"/>
            <line x1="-195.02" y1="160.52" x2="60.97" y2="-95.48" style="fill: none;stroke: #ccc;stroke-miterlimit: 10;stroke-width: 0.5px"/>
            <line x1="-189.6" y1="160.52" x2="66.39" y2="-95.48" style="fill: none;stroke: #ccc;stroke-miterlimit: 10;stroke-width: 0.5px"/>
            <line x1="-184.19" y1="160.52" x2="71.8" y2="-95.48" style="fill: none;stroke: #ccc;stroke-miterlimit: 10;stroke-width: 0.5px"/>
            <line x1="-178.77" y1="160.52" x2="77.22" y2="-95.48" style="fill: none;stroke: #ccc;stroke-miterlimit: 10;stroke-width: 0.5px"/>
            <line x1="-173.36" y1="160.52" x2="82.64" y2="-95.48" style="fill: none;stroke: #ccc;stroke-miterlimit: 10;stroke-width: 0.5px"/>
            <line x1="-167.94" y1="160.52" x2="88.05" y2="-95.48" style="fill: none;stroke: #ccc;stroke-miterlimit: 10;stroke-width: 0.5px"/>
            <line x1="-162.52" y1="160.52" x2="93.47" y2="-95.48" style="fill: none;stroke: #ccc;stroke-miterlimit: 10;stroke-width: 0.5px"/>
            <line x1="-157.11" y1="160.52" x2="98.89" y2="-95.48" style="fill: none;stroke: #ccc;stroke-miterlimit: 10;stroke-width: 0.5px"/>
            <line x1="-151.69" y1="160.52" x2="104.3" y2="-95.48" style="fill: none;stroke: #ccc;stroke-miterlimit: 10;stroke-width: 0.5px"/>
            <line x1="-146.28" y1="160.52" x2="109.72" y2="-95.48" style="fill: none;stroke: #ccc;stroke-miterlimit: 10;stroke-width: 0.5px"/>
            <line x1="-140.86" y1="160.52" x2="115.13" y2="-95.48" style="fill: none;stroke: #ccc;stroke-miterlimit: 10;stroke-width: 0.5px"/>
            <line x1="-135.44" y1="160.52" x2="120.55" y2="-95.48" style="fill: none;stroke: #ccc;stroke-miterlimit: 10;stroke-width: 0.5px"/>
            <line x1="-130.03" y1="160.52" x2="125.97" y2="-95.48" style="fill: none;stroke: #ccc;stroke-miterlimit: 10;stroke-width: 0.5px"/>
            <line x1="-124.61" y1="160.52" x2="131.38" y2="-95.48" style="fill: none;stroke: #ccc;stroke-miterlimit: 10;stroke-width: 0.5px"/>
            <line x1="-119.2" y1="160.52" x2="136.8" y2="-95.48" style="fill: none;stroke: #ccc;stroke-miterlimit: 10;stroke-width: 0.5px"/>
            <line x1="-113.78" y1="160.52" x2="142.21" y2="-95.48" style="fill: none;stroke: #ccc;stroke-miterlimit: 10;stroke-width: 0.5px"/>
            <line x1="-108.36" y1="160.52" x2="147.63" y2="-95.48" style="fill: none;stroke: #ccc;stroke-miterlimit: 10;stroke-width: 0.5px"/>
            <line x1="-102.95" y1="160.52" x2="153.05" y2="-95.48" style="fill: none;stroke: #ccc;stroke-miterlimit: 10;stroke-width: 0.5px"/>
            <line x1="-97.53" y1="160.52" x2="158.46" y2="-95.48" style="fill: none;stroke: #ccc;stroke-miterlimit: 10;stroke-width: 0.5px"/>
            <line x1="-92.11" y1="160.52" x2="163.88" y2="-95.48" style="fill: none;stroke: #ccc;stroke-miterlimit: 10;stroke-width: 0.5px"/>
            <line x1="-86.7" y1="160.52" x2="169.29" y2="-95.48" style="fill: none;stroke: #ccc;stroke-miterlimit: 10;stroke-width: 0.5px"/>
            <line x1="-81.28" y1="160.52" x2="174.71" y2="-95.48" style="fill: none;stroke: #ccc;stroke-miterlimit: 10;stroke-width: 0.5px"/>
            <line x1="-75.87" y1="160.52" x2="180.13" y2="-95.48" style="fill: none;stroke: #ccc;stroke-miterlimit: 10;stroke-width: 0.5px"/>
            <line x1="-70.45" y1="160.52" x2="185.54" y2="-95.48" style="fill: none;stroke: #ccc;stroke-miterlimit: 10;stroke-width: 0.5px"/>
            <line x1="-65.03" y1="160.52" x2="190.96" y2="-95.48" style="fill: none;stroke: #ccc;stroke-miterlimit: 10;stroke-width: 0.5px"/>
            <line x1="-59.62" y1="160.52" x2="196.37" y2="-95.48" style="fill: none;stroke: #ccc;stroke-miterlimit: 10;stroke-width: 0.5px"/>
            <line x1="-54.2" y1="160.52" x2="201.79" y2="-95.48" style="fill: none;stroke: #ccc;stroke-miterlimit: 10;stroke-width: 0.5px"/>
            <line x1="-48.79" y1="160.52" x2="207.21" y2="-95.48" style="fill: none;stroke: #ccc;stroke-miterlimit: 10;stroke-width: 0.5px"/>
            <line x1="-43.37" y1="160.52" x2="212.62" y2="-95.48" style="fill: none;stroke: #ccc;stroke-miterlimit: 10;stroke-width: 0.5px"/>
            <line x1="-37.95" y1="160.52" x2="218.04" y2="-95.48" style="fill: none;stroke: #ccc;stroke-miterlimit: 10;stroke-width: 0.5px"/>
            <line x1="-32.54" y1="160.52" x2="223.45" y2="-95.48" style="fill: none;stroke: #ccc;stroke-miterlimit: 10;stroke-width: 0.5px"/>
            <line x1="-27.12" y1="160.52" x2="228.87" y2="-95.48" style="fill: none;stroke: #ccc;stroke-miterlimit: 10;stroke-width: 0.5px"/>
            <line x1="-21.71" y1="160.52" x2="234.29" y2="-95.48" style="fill: none;stroke: #ccc;stroke-miterlimit: 10;stroke-width: 0.5px"/>
            <line x1="-16.29" y1="160.52" x2="239.7" y2="-95.48" style="fill: none;stroke: #ccc;stroke-miterlimit: 10;stroke-width: 0.5px"/>
            <line x1="-10.87" y1="160.52" x2="245.12" y2="-95.48" style="fill: none;stroke: #ccc;stroke-miterlimit: 10;stroke-width: 0.5px"/>
            <line x1="-5.46" y1="160.52" x2="250.53" y2="-95.48" style="fill: none;stroke: #ccc;stroke-miterlimit: 10;stroke-width: 0.5px"/>
            <line x1="-0.04" y1="160.52" x2="255.95" y2="-95.48" style="fill: none;stroke: #ccc;stroke-miterlimit: 10;stroke-width: 0.5px"/>
            <line x1="5.37" y1="160.52" x2="261.37" y2="-95.48" style="fill: none;stroke: #ccc;stroke-miterlimit: 10;stroke-width: 0.5px"/>
            <line x1="10.79" y1="160.52" x2="266.78" y2="-95.48" style="fill: none;stroke: #ccc;stroke-miterlimit: 10;stroke-width: 0.5px"/>
            <line x1="16.21" y1="160.52" x2="272.2" y2="-95.48" style="fill: none;stroke: #ccc;stroke-miterlimit: 10;stroke-width: 0.5px"/>
            <line x1="21.62" y1="160.52" x2="277.61" y2="-95.48" style="fill: none;stroke: #ccc;stroke-miterlimit: 10;stroke-width: 0.5px"/>
          </g>
        </g>
        <g style="clip-path: url(#clip-path-3)">
          <g>
            <line x1="-251.5" y1="159.74" x2="4.49" y2="-96.25" style="fill: none;stroke: #ccc;stroke-miterlimit: 10;stroke-width: 0.5px"/>
            <line x1="-246.09" y1="159.74" x2="9.91" y2="-96.25" style="fill: none;stroke: #ccc;stroke-miterlimit: 10;stroke-width: 0.5px"/>
            <line x1="-240.67" y1="159.74" x2="15.32" y2="-96.25" style="fill: none;stroke: #ccc;stroke-miterlimit: 10;stroke-width: 0.5px"/>
            <line x1="-235.25" y1="159.74" x2="20.74" y2="-96.25" style="fill: none;stroke: #ccc;stroke-miterlimit: 10;stroke-width: 0.5px"/>
            <line x1="-229.84" y1="159.74" x2="26.16" y2="-96.25" style="fill: none;stroke: #ccc;stroke-miterlimit: 10;stroke-width: 0.5px"/>
            <line x1="-224.42" y1="159.74" x2="31.57" y2="-96.25" style="fill: none;stroke: #ccc;stroke-miterlimit: 10;stroke-width: 0.5px"/>
            <line x1="-219" y1="159.74" x2="36.99" y2="-96.25" style="fill: none;stroke: #ccc;stroke-miterlimit: 10;stroke-width: 0.5px"/>
            <line x1="-213.59" y1="159.74" x2="42.4" y2="-96.25" style="fill: none;stroke: #ccc;stroke-miterlimit: 10;stroke-width: 0.5px"/>
            <line x1="-208.17" y1="159.74" x2="47.82" y2="-96.25" style="fill: none;stroke: #ccc;stroke-miterlimit: 10;stroke-width: 0.5px"/>
            <line x1="-202.76" y1="159.74" x2="53.24" y2="-96.25" style="fill: none;stroke: #ccc;stroke-miterlimit: 10;stroke-width: 0.5px"/>
            <line x1="-197.34" y1="159.74" x2="58.65" y2="-96.25" style="fill: none;stroke: #ccc;stroke-miterlimit: 10;stroke-width: 0.5px"/>
            <line x1="-191.92" y1="159.74" x2="64.07" y2="-96.25" style="fill: none;stroke: #ccc;stroke-miterlimit: 10;stroke-width: 0.5px"/>
            <line x1="-186.51" y1="159.74" x2="69.48" y2="-96.25" style="fill: none;stroke: #ccc;stroke-miterlimit: 10;stroke-width: 0.5px"/>
            <line x1="-181.09" y1="159.74" x2="74.9" y2="-96.25" style="fill: none;stroke: #ccc;stroke-miterlimit: 10;stroke-width: 0.5px"/>
            <line x1="-175.68" y1="159.74" x2="80.32" y2="-96.25" style="fill: none;stroke: #ccc;stroke-miterlimit: 10;stroke-width: 0.5px"/>
            <line x1="-170.26" y1="159.74" x2="85.73" y2="-96.25" style="fill: none;stroke: #ccc;stroke-miterlimit: 10;stroke-width: 0.5px"/>
            <line x1="-164.84" y1="159.74" x2="91.15" y2="-96.25" style="fill: none;stroke: #ccc;stroke-miterlimit: 10;stroke-width: 0.5px"/>
            <line x1="-159.43" y1="159.74" x2="96.56" y2="-96.25" style="fill: none;stroke: #ccc;stroke-miterlimit: 10;stroke-width: 0.5px"/>
            <line x1="-154.01" y1="159.74" x2="101.98" y2="-96.25" style="fill: none;stroke: #ccc;stroke-miterlimit: 10;stroke-width: 0.5px"/>
            <line x1="-148.6" y1="159.74" x2="107.4" y2="-96.25" style="fill: none;stroke: #ccc;stroke-miterlimit: 10;stroke-width: 0.5px"/>
            <line x1="-143.18" y1="159.74" x2="112.81" y2="-96.25" style="fill: none;stroke: #ccc;stroke-miterlimit: 10;stroke-width: 0.5px"/>
            <line x1="-137.76" y1="159.74" x2="118.23" y2="-96.25" style="fill: none;stroke: #ccc;stroke-miterlimit: 10;stroke-width: 0.5px"/>
            <line x1="-132.35" y1="159.74" x2="123.64" y2="-96.25" style="fill: none;stroke: #ccc;stroke-miterlimit: 10;stroke-width: 0.5px"/>
            <line x1="-126.93" y1="159.74" x2="129.06" y2="-96.25" style="fill: none;stroke: #ccc;stroke-miterlimit: 10;stroke-width: 0.5px"/>
            <line x1="-121.52" y1="159.74" x2="134.48" y2="-96.25" style="fill: none;stroke: #ccc;stroke-miterlimit: 10;stroke-width: 0.5px"/>
            <line x1="-116.1" y1="159.74" x2="139.89" y2="-96.25" style="fill: none;stroke: #ccc;stroke-miterlimit: 10;stroke-width: 0.5px"/>
            <line x1="-110.68" y1="159.74" x2="145.31" y2="-96.25" style="fill: none;stroke: #ccc;stroke-miterlimit: 10;stroke-width: 0.5px"/>
            <line x1="-105.27" y1="159.74" x2="150.72" y2="-96.25" style="fill: none;stroke: #ccc;stroke-miterlimit: 10;stroke-width: 0.5px"/>
            <line x1="-99.85" y1="159.74" x2="156.14" y2="-96.25" style="fill: none;stroke: #ccc;stroke-miterlimit: 10;stroke-width: 0.5px"/>
            <line x1="-94.44" y1="159.74" x2="161.56" y2="-96.25" style="fill: none;stroke: #ccc;stroke-miterlimit: 10;stroke-width: 0.5px"/>
            <line x1="-89.02" y1="159.74" x2="166.97" y2="-96.25" style="fill: none;stroke: #ccc;stroke-miterlimit: 10;stroke-width: 0.5px"/>
            <line x1="-83.6" y1="159.74" x2="172.39" y2="-96.25" style="fill: none;stroke: #ccc;stroke-miterlimit: 10;stroke-width: 0.5px"/>
            <line x1="-78.19" y1="159.74" x2="177.8" y2="-96.25" style="fill: none;stroke: #ccc;stroke-miterlimit: 10;stroke-width: 0.5px"/>
            <line x1="-72.77" y1="159.74" x2="183.22" y2="-96.25" style="fill: none;stroke: #ccc;stroke-miterlimit: 10;stroke-width: 0.5px"/>
            <line x1="-67.36" y1="159.74" x2="188.64" y2="-96.25" style="fill: none;stroke: #ccc;stroke-miterlimit: 10;stroke-width: 0.5px"/>
            <line x1="-61.94" y1="159.74" x2="194.05" y2="-96.25" style="fill: none;stroke: #ccc;stroke-miterlimit: 10;stroke-width: 0.5px"/>
            <line x1="-56.52" y1="159.74" x2="199.47" y2="-96.25" style="fill: none;stroke: #ccc;stroke-miterlimit: 10;stroke-width: 0.5px"/>
            <line x1="-51.11" y1="159.74" x2="204.88" y2="-96.25" style="fill: none;stroke: #ccc;stroke-miterlimit: 10;stroke-width: 0.5px"/>
            <line x1="-45.69" y1="159.74" x2="210.3" y2="-96.25" style="fill: none;stroke: #ccc;stroke-miterlimit: 10;stroke-width: 0.5px"/>
            <line x1="-40.28" y1="159.74" x2="215.72" y2="-96.25" style="fill: none;stroke: #ccc;stroke-miterlimit: 10;stroke-width: 0.5px"/>
            <line x1="-34.86" y1="159.74" x2="221.13" y2="-96.25" style="fill: none;stroke: #ccc;stroke-miterlimit: 10;stroke-width: 0.5px"/>
            <line x1="-29.44" y1="159.74" x2="226.55" y2="-96.25" style="fill: none;stroke: #ccc;stroke-miterlimit: 10;stroke-width: 0.5px"/>
            <line x1="-24.03" y1="159.74" x2="231.96" y2="-96.25" style="fill: none;stroke: #ccc;stroke-miterlimit: 10;stroke-width: 0.5px"/>
            <line x1="-18.61" y1="159.74" x2="237.38" y2="-96.25" style="fill: none;stroke: #ccc;stroke-miterlimit: 10;stroke-width: 0.5px"/>
            <line x1="-13.2" y1="159.74" x2="242.8" y2="-96.25" style="fill: none;stroke: #ccc;stroke-miterlimit: 10;stroke-width: 0.5px"/>
            <line x1="-7.78" y1="159.74" x2="248.21" y2="-96.25" style="fill: none;stroke: #ccc;stroke-miterlimit: 10;stroke-width: 0.5px"/>
            <line x1="-2.36" y1="159.74" x2="253.63" y2="-96.25" style="fill: none;stroke: #ccc;stroke-miterlimit: 10;stroke-width: 0.5px"/>
            <line x1="3.05" y1="159.74" x2="259.05" y2="-96.25" style="fill: none;stroke: #ccc;stroke-miterlimit: 10;stroke-width: 0.5px"/>
            <line x1="8.47" y1="159.74" x2="264.46" y2="-96.25" style="fill: none;stroke: #ccc;stroke-miterlimit: 10;stroke-width: 0.5px"/>
            <line x1="13.88" y1="159.74" x2="269.88" y2="-96.25" style="fill: none;stroke: #ccc;stroke-miterlimit: 10;stroke-width: 0.5px"/>
            <line x1="19.3" y1="159.74" x2="275.29" y2="-96.25" style="fill: none;stroke: #ccc;stroke-miterlimit: 10;stroke-width: 0.5px"/>
            <line x1="24.72" y1="159.74" x2="280.71" y2="-96.25" style="fill: none;stroke: #ccc;stroke-miterlimit: 10;stroke-width: 0.5px"/>
          </g>
        </g>
      </g>
    </g>
    <circle cx="12.96" cy="12.15" r="11.04" style="fill: none;stroke: #000;stroke-miterlimit: 10"/>
  </g>
</svg>
