<?xml version="1.0" encoding="utf-8"?>
<!-- Generator: Adobe Illustrator 21.0.2, SVG Export Plug-In . SVG Version: 6.00 Build 0)  -->
<svg version="1.1" id="Capa_1" xmlns="http://www.w3.org/2000/svg" xmlns:xlink="http://www.w3.org/1999/xlink" x="0px" y="0px"
	 viewBox="0 0 90 90" style="enable-background:new 0 0 90 90;" xml:space="preserve">
<style type="text/css">
	.st0{fill:none;stroke:#000000;stroke-width:3;stroke-linecap:round;stroke-miterlimit:10;}
</style>
<g>
	<path d="M45.1,59.8c-0.8,0-1.5-0.7-1.5-1.5v-14c0-0.8,0.7-1.5,1.5-1.5s1.5,0.7,1.5,1.5v14C46.6,59.1,45.9,59.8,45.1,59.8z"/>
	<path d="M51.6,53.3h-13c-0.8,0-1.5-0.7-1.5-1.5s0.7-1.5,1.5-1.5h13c0.8,0,1.5,0.7,1.5,1.5S52.4,53.3,51.6,53.3z"/>
	<path d="M45.5,73.5c-0.2,0-0.4,0-0.6-0.1l-1-0.5c-0.1,0-0.1,0-0.2-0.1c-1.1-0.6-26.2-15.5-30.1-35.2c0,0,0-0.1,0-0.1
		c-0.1-0.4-1.2-10.6,4.2-16.7c2.5-2.9,6.1-4.3,10.5-4.3c8.2,0,14.2,4.7,16.9,13.3c2.3-6.3,7.2-12.3,16.6-12.3
		c4.4,0,7.9,1.4,10.5,4.3c5.4,6.1,4.2,16.3,4.2,16.7c0,0,0,0.1,0,0.1c-3.9,19.7-29.1,34-30.1,34.6C46,73.4,45.8,73.5,45.5,73.5z
		 M45.2,70.2l0.2,0.1c3.9-2.4,24.7-15.5,28-32.2c0.1-0.8,0.8-9.5-3.5-14.3c-1.9-2.2-4.7-3.3-8.2-3.3c-14.1,0-15.2,15.9-15.3,17.7
		l0,0.1c0,0.8-0.7,1.4-1.6,1.4c-0.8,0-1.5-0.7-1.4-1.5l0-0.1c0-1.1-0.6-4.9-1.1-7.1c-1.6-5.3-5.3-11.5-14.1-11.5
		c-3.5,0-6.3,1.1-8.2,3.3c-4.3,4.8-3.5,13.5-3.5,14.3C20.1,55,43.7,69.3,45.2,70.2z"/>
	<path class="st0" d="M35,33.5"/>
</g>
</svg>
