<svg id="Capa_1" data-name="Capa 1" xmlns="http://www.w3.org/2000/svg" xmlns:xlink="http://www.w3.org/1999/xlink" viewBox="0 0 106 20">
  <defs>
    <clipPath id="clip-path">
      <circle cx="34.96" cy="124.15" r="11.04" style="fill: none"/>
    </clipPath>
    <clipPath id="clip-path-2">
      <polygon points="5.46 63.71 46.6 87.33 46.8 134.78 5 158.95 5 148.97 18.33 117.87 38.03 92.32 5.69 73.53 5.46 63.71" style="fill: none"/>
    </clipPath>
    <clipPath id="clip-path-3">
      <polygon points="5.46 63.71 46.6 87.33 47.01 134.55 5.65 158.95 5.32 148.99 21.79 115.76 38.03 92.32 5.5 73.64 5.46 63.71" style="fill: none"/>
    </clipPath>
    <clipPath id="clip-path-4">
      <polygon points="249.61 -222.19 302.77 -191.67 303.03 -130.34 249 -99.1 249 -112 291.94 -136.62 291.7 -185.21 249.9 -209.5 249.61 -222.19" style="fill: none"/>
    </clipPath>
    <clipPath id="clip-path-5">
      <polygon points="249.61 -222.19 302.77 -191.67 303.3 -130.64 249.84 -99.1 249.42 -111.97 292.19 -136.62 291.7 -185.21 249.66 -209.36 249.61 -222.19" style="fill: none"/>
    </clipPath>
    <clipPath id="clip-path-6">
      <polygon points="30.61 -222.19 83.78 -191.67 84.03 -130.34 30 -99.1 30 -112 72.94 -136.62 72.7 -185.21 30.9 -209.5 30.61 -222.19" style="fill: none"/>
    </clipPath>
    <clipPath id="clip-path-7">
      <polygon points="30.61 -222.19 83.78 -191.67 84.3 -130.64 30.84 -99.1 30.42 -111.97 73.19 -136.62 72.7 -185.21 30.66 -209.36 30.61 -222.19" style="fill: none"/>
    </clipPath>
  </defs>
  <title>superior</title>
  <g style="clip-path: url(#clip-path)">
    <g>
      <g style="clip-path: url(#clip-path-2)">
        <g>
          <line x1="-254.26" y1="272.52" x2="1.73" y2="16.52" style="fill: none;stroke: #ccc;stroke-miterlimit: 10;stroke-width: 0.5px"/>
          <line x1="-248.84" y1="272.52" x2="7.15" y2="16.52" style="fill: none;stroke: #ccc;stroke-miterlimit: 10;stroke-width: 0.5px"/>
          <line x1="-243.43" y1="272.52" x2="12.56" y2="16.52" style="fill: none;stroke: #ccc;stroke-miterlimit: 10;stroke-width: 0.5px"/>
          <line x1="-238.01" y1="272.52" x2="17.98" y2="16.52" style="fill: none;stroke: #ccc;stroke-miterlimit: 10;stroke-width: 0.5px"/>
          <line x1="-232.6" y1="272.52" x2="23.4" y2="16.52" style="fill: none;stroke: #ccc;stroke-miterlimit: 10;stroke-width: 0.5px"/>
          <line x1="-227.18" y1="272.52" x2="28.81" y2="16.52" style="fill: none;stroke: #ccc;stroke-miterlimit: 10;stroke-width: 0.5px"/>
          <line x1="-221.76" y1="272.52" x2="34.23" y2="16.52" style="fill: none;stroke: #ccc;stroke-miterlimit: 10;stroke-width: 0.5px"/>
          <line x1="-216.35" y1="272.52" x2="39.64" y2="16.52" style="fill: none;stroke: #ccc;stroke-miterlimit: 10;stroke-width: 0.5px"/>
          <line x1="-210.93" y1="272.52" x2="45.06" y2="16.52" style="fill: none;stroke: #ccc;stroke-miterlimit: 10;stroke-width: 0.5px"/>
          <line x1="-205.52" y1="272.52" x2="50.48" y2="16.52" style="fill: none;stroke: #ccc;stroke-miterlimit: 10;stroke-width: 0.5px"/>
          <line x1="-200.1" y1="272.52" x2="55.89" y2="16.52" style="fill: none;stroke: #ccc;stroke-miterlimit: 10;stroke-width: 0.5px"/>
          <line x1="-194.68" y1="272.52" x2="61.31" y2="16.52" style="fill: none;stroke: #ccc;stroke-miterlimit: 10;stroke-width: 0.5px"/>
          <line x1="-189.27" y1="272.52" x2="66.72" y2="16.52" style="fill: none;stroke: #ccc;stroke-miterlimit: 10;stroke-width: 0.5px"/>
          <line x1="-183.85" y1="272.52" x2="72.14" y2="16.52" style="fill: none;stroke: #ccc;stroke-miterlimit: 10;stroke-width: 0.5px"/>
          <line x1="-178.44" y1="272.52" x2="77.56" y2="16.52" style="fill: none;stroke: #ccc;stroke-miterlimit: 10;stroke-width: 0.5px"/>
          <line x1="-173.02" y1="272.52" x2="82.97" y2="16.52" style="fill: none;stroke: #ccc;stroke-miterlimit: 10;stroke-width: 0.5px"/>
          <line x1="-167.6" y1="272.52" x2="88.39" y2="16.52" style="fill: none;stroke: #ccc;stroke-miterlimit: 10;stroke-width: 0.5px"/>
          <line x1="-162.19" y1="272.52" x2="93.8" y2="16.52" style="fill: none;stroke: #ccc;stroke-miterlimit: 10;stroke-width: 0.5px"/>
          <line x1="-156.77" y1="272.52" x2="99.22" y2="16.52" style="fill: none;stroke: #ccc;stroke-miterlimit: 10;stroke-width: 0.5px"/>
          <line x1="-151.36" y1="272.52" x2="104.64" y2="16.52" style="fill: none;stroke: #ccc;stroke-miterlimit: 10;stroke-width: 0.5px"/>
          <line x1="-145.94" y1="272.52" x2="110.05" y2="16.52" style="fill: none;stroke: #ccc;stroke-miterlimit: 10;stroke-width: 0.5px"/>
          <line x1="-140.52" y1="272.52" x2="115.47" y2="16.52" style="fill: none;stroke: #ccc;stroke-miterlimit: 10;stroke-width: 0.5px"/>
          <line x1="-135.11" y1="272.52" x2="120.89" y2="16.52" style="fill: none;stroke: #ccc;stroke-miterlimit: 10;stroke-width: 0.5px"/>
          <line x1="-129.69" y1="272.52" x2="126.3" y2="16.52" style="fill: none;stroke: #ccc;stroke-miterlimit: 10;stroke-width: 0.5px"/>
          <line x1="-124.28" y1="272.52" x2="131.72" y2="16.52" style="fill: none;stroke: #ccc;stroke-miterlimit: 10;stroke-width: 0.5px"/>
          <line x1="-118.86" y1="272.52" x2="137.13" y2="16.52" style="fill: none;stroke: #ccc;stroke-miterlimit: 10;stroke-width: 0.5px"/>
          <line x1="-113.44" y1="272.52" x2="142.55" y2="16.52" style="fill: none;stroke: #ccc;stroke-miterlimit: 10;stroke-width: 0.5px"/>
          <line x1="-108.03" y1="272.52" x2="147.97" y2="16.52" style="fill: none;stroke: #ccc;stroke-miterlimit: 10;stroke-width: 0.5px"/>
          <line x1="-102.61" y1="272.52" x2="153.38" y2="16.52" style="fill: none;stroke: #ccc;stroke-miterlimit: 10;stroke-width: 0.5px"/>
          <line x1="-97.2" y1="272.52" x2="158.8" y2="16.52" style="fill: none;stroke: #ccc;stroke-miterlimit: 10;stroke-width: 0.5px"/>
          <line x1="-91.78" y1="272.52" x2="164.21" y2="16.52" style="fill: none;stroke: #ccc;stroke-miterlimit: 10;stroke-width: 0.5px"/>
          <line x1="-86.36" y1="272.52" x2="169.63" y2="16.52" style="fill: none;stroke: #ccc;stroke-miterlimit: 10;stroke-width: 0.5px"/>
          <line x1="-80.95" y1="272.52" x2="175.05" y2="16.52" style="fill: none;stroke: #ccc;stroke-miterlimit: 10;stroke-width: 0.5px"/>
          <line x1="-75.53" y1="272.52" x2="180.46" y2="16.52" style="fill: none;stroke: #ccc;stroke-miterlimit: 10;stroke-width: 0.5px"/>
          <line x1="-70.11" y1="272.52" x2="185.88" y2="16.52" style="fill: none;stroke: #ccc;stroke-miterlimit: 10;stroke-width: 0.5px"/>
          <line x1="-64.7" y1="272.52" x2="191.29" y2="16.52" style="fill: none;stroke: #ccc;stroke-miterlimit: 10;stroke-width: 0.5px"/>
          <line x1="-59.28" y1="272.52" x2="196.71" y2="16.52" style="fill: none;stroke: #ccc;stroke-miterlimit: 10;stroke-width: 0.5px"/>
          <line x1="-53.87" y1="272.52" x2="202.13" y2="16.52" style="fill: none;stroke: #ccc;stroke-miterlimit: 10;stroke-width: 0.5px"/>
          <line x1="-48.45" y1="272.52" x2="207.54" y2="16.52" style="fill: none;stroke: #ccc;stroke-miterlimit: 10;stroke-width: 0.5px"/>
          <line x1="-43.03" y1="272.52" x2="212.96" y2="16.52" style="fill: none;stroke: #ccc;stroke-miterlimit: 10;stroke-width: 0.5px"/>
          <line x1="-37.62" y1="272.52" x2="218.37" y2="16.52" style="fill: none;stroke: #ccc;stroke-miterlimit: 10;stroke-width: 0.5px"/>
          <line x1="-32.2" y1="272.52" x2="223.79" y2="16.52" style="fill: none;stroke: #ccc;stroke-miterlimit: 10;stroke-width: 0.5px"/>
          <line x1="-26.79" y1="272.52" x2="229.21" y2="16.52" style="fill: none;stroke: #ccc;stroke-miterlimit: 10;stroke-width: 0.5px"/>
          <line x1="-21.37" y1="272.52" x2="234.62" y2="16.52" style="fill: none;stroke: #ccc;stroke-miterlimit: 10;stroke-width: 0.5px"/>
          <line x1="-15.95" y1="272.52" x2="240.04" y2="16.52" style="fill: none;stroke: #ccc;stroke-miterlimit: 10;stroke-width: 0.5px"/>
          <line x1="-10.54" y1="272.52" x2="245.45" y2="16.52" style="fill: none;stroke: #ccc;stroke-miterlimit: 10;stroke-width: 0.5px"/>
          <line x1="-5.12" y1="272.52" x2="250.87" y2="16.52" style="fill: none;stroke: #ccc;stroke-miterlimit: 10;stroke-width: 0.5px"/>
          <line x1="0.29" y1="272.52" x2="256.29" y2="16.52" style="fill: none;stroke: #ccc;stroke-miterlimit: 10;stroke-width: 0.5px"/>
          <line x1="5.71" y1="272.52" x2="261.7" y2="16.52" style="fill: none;stroke: #ccc;stroke-miterlimit: 10;stroke-width: 0.5px"/>
          <line x1="11.13" y1="272.52" x2="267.12" y2="16.52" style="fill: none;stroke: #ccc;stroke-miterlimit: 10;stroke-width: 0.5px"/>
          <line x1="16.54" y1="272.52" x2="272.53" y2="16.52" style="fill: none;stroke: #ccc;stroke-miterlimit: 10;stroke-width: 0.5px"/>
          <line x1="21.96" y1="272.52" x2="277.95" y2="16.52" style="fill: none;stroke: #ccc;stroke-miterlimit: 10;stroke-width: 0.5px"/>
          <line x1="27.37" y1="272.52" x2="283.37" y2="16.52" style="fill: none;stroke: #ccc;stroke-miterlimit: 10;stroke-width: 0.5px"/>
          <line x1="32.79" y1="272.52" x2="288.78" y2="16.52" style="fill: none;stroke: #ccc;stroke-miterlimit: 10;stroke-width: 0.5px"/>
          <line x1="38.21" y1="272.52" x2="294.2" y2="16.52" style="fill: none;stroke: #ccc;stroke-miterlimit: 10;stroke-width: 0.5px"/>
          <line x1="43.62" y1="272.52" x2="299.61" y2="16.52" style="fill: none;stroke: #ccc;stroke-miterlimit: 10;stroke-width: 0.5px"/>
          <line x1="49.04" y1="272.52" x2="305.03" y2="16.52" style="fill: none;stroke: #ccc;stroke-miterlimit: 10;stroke-width: 0.5px"/>
          <line x1="54.45" y1="272.52" x2="310.45" y2="16.52" style="fill: none;stroke: #ccc;stroke-miterlimit: 10;stroke-width: 0.5px"/>
          <line x1="59.87" y1="272.52" x2="315.86" y2="16.52" style="fill: none;stroke: #ccc;stroke-miterlimit: 10;stroke-width: 0.5px"/>
          <line x1="65.29" y1="272.52" x2="321.28" y2="16.52" style="fill: none;stroke: #ccc;stroke-miterlimit: 10;stroke-width: 0.5px"/>
          <line x1="70.7" y1="272.52" x2="326.69" y2="16.52" style="fill: none;stroke: #ccc;stroke-miterlimit: 10;stroke-width: 0.5px"/>
          <line x1="76.12" y1="272.52" x2="332.11" y2="16.52" style="fill: none;stroke: #ccc;stroke-miterlimit: 10;stroke-width: 0.5px"/>
          <line x1="81.53" y1="272.52" x2="337.53" y2="16.52" style="fill: none;stroke: #ccc;stroke-miterlimit: 10;stroke-width: 0.5px"/>
          <line x1="86.95" y1="272.52" x2="342.94" y2="16.52" style="fill: none;stroke: #ccc;stroke-miterlimit: 10;stroke-width: 0.5px"/>
          <line x1="92.37" y1="272.52" x2="348.36" y2="16.52" style="fill: none;stroke: #ccc;stroke-miterlimit: 10;stroke-width: 0.5px"/>
          <line x1="97.78" y1="272.52" x2="353.77" y2="16.52" style="fill: none;stroke: #ccc;stroke-miterlimit: 10;stroke-width: 0.5px"/>
        </g>
      </g>
      <g style="clip-path: url(#clip-path-3)">
        <g>
          <line x1="-251.17" y1="271.74" x2="4.83" y2="15.75" style="fill: none;stroke: #ccc;stroke-miterlimit: 10;stroke-width: 0.5px"/>
          <line x1="-245.75" y1="271.74" x2="10.24" y2="15.75" style="fill: none;stroke: #ccc;stroke-miterlimit: 10;stroke-width: 0.5px"/>
          <line x1="-240.33" y1="271.74" x2="15.66" y2="15.75" style="fill: none;stroke: #ccc;stroke-miterlimit: 10;stroke-width: 0.5px"/>
          <line x1="-234.92" y1="271.74" x2="21.08" y2="15.75" style="fill: none;stroke: #ccc;stroke-miterlimit: 10;stroke-width: 0.5px"/>
          <line x1="-229.5" y1="271.74" x2="26.49" y2="15.75" style="fill: none;stroke: #ccc;stroke-miterlimit: 10;stroke-width: 0.5px"/>
          <line x1="-224.09" y1="271.74" x2="31.91" y2="15.75" style="fill: none;stroke: #ccc;stroke-miterlimit: 10;stroke-width: 0.5px"/>
          <line x1="-218.67" y1="271.74" x2="37.32" y2="15.75" style="fill: none;stroke: #ccc;stroke-miterlimit: 10;stroke-width: 0.5px"/>
          <line x1="-213.25" y1="271.74" x2="42.74" y2="15.75" style="fill: none;stroke: #ccc;stroke-miterlimit: 10;stroke-width: 0.5px"/>
          <line x1="-207.84" y1="271.74" x2="48.16" y2="15.75" style="fill: none;stroke: #ccc;stroke-miterlimit: 10;stroke-width: 0.5px"/>
          <line x1="-202.42" y1="271.74" x2="53.57" y2="15.75" style="fill: none;stroke: #ccc;stroke-miterlimit: 10;stroke-width: 0.5px"/>
          <line x1="-197" y1="271.74" x2="58.99" y2="15.75" style="fill: none;stroke: #ccc;stroke-miterlimit: 10;stroke-width: 0.5px"/>
          <line x1="-191.59" y1="271.74" x2="64.4" y2="15.75" style="fill: none;stroke: #ccc;stroke-miterlimit: 10;stroke-width: 0.5px"/>
          <line x1="-186.17" y1="271.74" x2="69.82" y2="15.75" style="fill: none;stroke: #ccc;stroke-miterlimit: 10;stroke-width: 0.5px"/>
          <line x1="-180.76" y1="271.74" x2="75.24" y2="15.75" style="fill: none;stroke: #ccc;stroke-miterlimit: 10;stroke-width: 0.5px"/>
          <line x1="-175.34" y1="271.74" x2="80.65" y2="15.75" style="fill: none;stroke: #ccc;stroke-miterlimit: 10;stroke-width: 0.5px"/>
          <line x1="-169.92" y1="271.74" x2="86.07" y2="15.75" style="fill: none;stroke: #ccc;stroke-miterlimit: 10;stroke-width: 0.5px"/>
          <line x1="-164.51" y1="271.74" x2="91.48" y2="15.75" style="fill: none;stroke: #ccc;stroke-miterlimit: 10;stroke-width: 0.5px"/>
          <line x1="-159.09" y1="271.74" x2="96.9" y2="15.75" style="fill: none;stroke: #ccc;stroke-miterlimit: 10;stroke-width: 0.5px"/>
          <line x1="-153.68" y1="271.74" x2="102.32" y2="15.75" style="fill: none;stroke: #ccc;stroke-miterlimit: 10;stroke-width: 0.5px"/>
          <line x1="-148.26" y1="271.74" x2="107.73" y2="15.75" style="fill: none;stroke: #ccc;stroke-miterlimit: 10;stroke-width: 0.5px"/>
          <line x1="-142.84" y1="271.74" x2="113.15" y2="15.75" style="fill: none;stroke: #ccc;stroke-miterlimit: 10;stroke-width: 0.5px"/>
          <line x1="-137.43" y1="271.74" x2="118.56" y2="15.75" style="fill: none;stroke: #ccc;stroke-miterlimit: 10;stroke-width: 0.5px"/>
          <line x1="-132.01" y1="271.74" x2="123.98" y2="15.75" style="fill: none;stroke: #ccc;stroke-miterlimit: 10;stroke-width: 0.5px"/>
          <line x1="-126.6" y1="271.74" x2="129.4" y2="15.75" style="fill: none;stroke: #ccc;stroke-miterlimit: 10;stroke-width: 0.5px"/>
          <line x1="-121.18" y1="271.74" x2="134.81" y2="15.75" style="fill: none;stroke: #ccc;stroke-miterlimit: 10;stroke-width: 0.5px"/>
          <line x1="-115.76" y1="271.74" x2="140.23" y2="15.75" style="fill: none;stroke: #ccc;stroke-miterlimit: 10;stroke-width: 0.5px"/>
          <line x1="-110.35" y1="271.74" x2="145.64" y2="15.75" style="fill: none;stroke: #ccc;stroke-miterlimit: 10;stroke-width: 0.5px"/>
          <line x1="-104.93" y1="271.74" x2="151.06" y2="15.75" style="fill: none;stroke: #ccc;stroke-miterlimit: 10;stroke-width: 0.5px"/>
          <line x1="-99.52" y1="271.74" x2="156.48" y2="15.75" style="fill: none;stroke: #ccc;stroke-miterlimit: 10;stroke-width: 0.5px"/>
          <line x1="-94.1" y1="271.74" x2="161.89" y2="15.75" style="fill: none;stroke: #ccc;stroke-miterlimit: 10;stroke-width: 0.5px"/>
          <line x1="-88.68" y1="271.74" x2="167.31" y2="15.75" style="fill: none;stroke: #ccc;stroke-miterlimit: 10;stroke-width: 0.5px"/>
          <line x1="-83.27" y1="271.74" x2="172.72" y2="15.75" style="fill: none;stroke: #ccc;stroke-miterlimit: 10;stroke-width: 0.5px"/>
          <line x1="-77.85" y1="271.74" x2="178.14" y2="15.75" style="fill: none;stroke: #ccc;stroke-miterlimit: 10;stroke-width: 0.5px"/>
          <line x1="-72.44" y1="271.74" x2="183.56" y2="15.75" style="fill: none;stroke: #ccc;stroke-miterlimit: 10;stroke-width: 0.5px"/>
          <line x1="-67.02" y1="271.74" x2="188.97" y2="15.75" style="fill: none;stroke: #ccc;stroke-miterlimit: 10;stroke-width: 0.5px"/>
          <line x1="-61.6" y1="271.74" x2="194.39" y2="15.75" style="fill: none;stroke: #ccc;stroke-miterlimit: 10;stroke-width: 0.5px"/>
          <line x1="-56.19" y1="271.74" x2="199.8" y2="15.75" style="fill: none;stroke: #ccc;stroke-miterlimit: 10;stroke-width: 0.5px"/>
          <line x1="-50.77" y1="271.74" x2="205.22" y2="15.75" style="fill: none;stroke: #ccc;stroke-miterlimit: 10;stroke-width: 0.5px"/>
          <line x1="-45.36" y1="271.74" x2="210.64" y2="15.75" style="fill: none;stroke: #ccc;stroke-miterlimit: 10;stroke-width: 0.5px"/>
          <line x1="-39.94" y1="271.74" x2="216.05" y2="15.75" style="fill: none;stroke: #ccc;stroke-miterlimit: 10;stroke-width: 0.5px"/>
          <line x1="-34.52" y1="271.74" x2="221.47" y2="15.75" style="fill: none;stroke: #ccc;stroke-miterlimit: 10;stroke-width: 0.5px"/>
          <line x1="-29.11" y1="271.74" x2="226.88" y2="15.75" style="fill: none;stroke: #ccc;stroke-miterlimit: 10;stroke-width: 0.5px"/>
          <line x1="-23.69" y1="271.74" x2="232.3" y2="15.75" style="fill: none;stroke: #ccc;stroke-miterlimit: 10;stroke-width: 0.5px"/>
          <line x1="-18.28" y1="271.74" x2="237.72" y2="15.75" style="fill: none;stroke: #ccc;stroke-miterlimit: 10;stroke-width: 0.5px"/>
          <line x1="-12.86" y1="271.74" x2="243.13" y2="15.75" style="fill: none;stroke: #ccc;stroke-miterlimit: 10;stroke-width: 0.5px"/>
          <line x1="-7.44" y1="271.74" x2="248.55" y2="15.75" style="fill: none;stroke: #ccc;stroke-miterlimit: 10;stroke-width: 0.5px"/>
          <line x1="-2.03" y1="271.74" x2="253.96" y2="15.75" style="fill: none;stroke: #ccc;stroke-miterlimit: 10;stroke-width: 0.5px"/>
          <line x1="3.39" y1="271.74" x2="259.38" y2="15.75" style="fill: none;stroke: #ccc;stroke-miterlimit: 10;stroke-width: 0.5px"/>
          <line x1="8.8" y1="271.74" x2="264.8" y2="15.75" style="fill: none;stroke: #ccc;stroke-miterlimit: 10;stroke-width: 0.5px"/>
          <line x1="14.22" y1="271.74" x2="270.21" y2="15.75" style="fill: none;stroke: #ccc;stroke-miterlimit: 10;stroke-width: 0.5px"/>
          <line x1="19.64" y1="271.74" x2="275.63" y2="15.75" style="fill: none;stroke: #ccc;stroke-miterlimit: 10;stroke-width: 0.5px"/>
          <line x1="25.05" y1="271.74" x2="281.05" y2="15.75" style="fill: none;stroke: #ccc;stroke-miterlimit: 10;stroke-width: 0.5px"/>
          <line x1="30.47" y1="271.74" x2="286.46" y2="15.75" style="fill: none;stroke: #ccc;stroke-miterlimit: 10;stroke-width: 0.5px"/>
          <line x1="35.88" y1="271.74" x2="291.88" y2="15.75" style="fill: none;stroke: #ccc;stroke-miterlimit: 10;stroke-width: 0.5px"/>
          <line x1="41.3" y1="271.74" x2="297.29" y2="15.75" style="fill: none;stroke: #ccc;stroke-miterlimit: 10;stroke-width: 0.5px"/>
          <line x1="46.72" y1="271.74" x2="302.71" y2="15.75" style="fill: none;stroke: #ccc;stroke-miterlimit: 10;stroke-width: 0.5px"/>
          <line x1="52.13" y1="271.74" x2="308.13" y2="15.75" style="fill: none;stroke: #ccc;stroke-miterlimit: 10;stroke-width: 0.5px"/>
          <line x1="57.55" y1="271.74" x2="313.54" y2="15.75" style="fill: none;stroke: #ccc;stroke-miterlimit: 10;stroke-width: 0.5px"/>
          <line x1="62.97" y1="271.74" x2="318.96" y2="15.75" style="fill: none;stroke: #ccc;stroke-miterlimit: 10;stroke-width: 0.5px"/>
          <line x1="68.38" y1="271.74" x2="324.37" y2="15.75" style="fill: none;stroke: #ccc;stroke-miterlimit: 10;stroke-width: 0.5px"/>
          <line x1="73.8" y1="271.74" x2="329.79" y2="15.75" style="fill: none;stroke: #ccc;stroke-miterlimit: 10;stroke-width: 0.5px"/>
          <line x1="79.21" y1="271.74" x2="335.21" y2="15.75" style="fill: none;stroke: #ccc;stroke-miterlimit: 10;stroke-width: 0.5px"/>
          <line x1="84.63" y1="271.74" x2="340.62" y2="15.75" style="fill: none;stroke: #ccc;stroke-miterlimit: 10;stroke-width: 0.5px"/>
          <line x1="90.05" y1="271.74" x2="346.04" y2="15.75" style="fill: none;stroke: #ccc;stroke-miterlimit: 10;stroke-width: 0.5px"/>
          <line x1="95.46" y1="271.74" x2="351.45" y2="15.75" style="fill: none;stroke: #ccc;stroke-miterlimit: 10;stroke-width: 0.5px"/>
        </g>
      </g>
    </g>
  </g>
  <g>
    <g style="clip-path: url(#clip-path-4)">
      <g>
        <line x1="-100.07" y1="47.68" x2="230.79" y2="-283.18" style="fill: none;stroke: #ccc;stroke-miterlimit: 10;stroke-width: 0.5px"/>
        <line x1="-93.07" y1="47.68" x2="237.79" y2="-283.18" style="fill: none;stroke: #ccc;stroke-miterlimit: 10;stroke-width: 0.5px"/>
        <line x1="-86.07" y1="47.68" x2="244.79" y2="-283.18" style="fill: none;stroke: #ccc;stroke-miterlimit: 10;stroke-width: 0.5px"/>
        <line x1="-79.07" y1="47.68" x2="251.79" y2="-283.18" style="fill: none;stroke: #ccc;stroke-miterlimit: 10;stroke-width: 0.5px"/>
        <line x1="-72.07" y1="47.68" x2="258.79" y2="-283.18" style="fill: none;stroke: #ccc;stroke-miterlimit: 10;stroke-width: 0.5px"/>
        <line x1="-65.07" y1="47.68" x2="265.79" y2="-283.18" style="fill: none;stroke: #ccc;stroke-miterlimit: 10;stroke-width: 0.5px"/>
        <line x1="-58.07" y1="47.68" x2="272.79" y2="-283.18" style="fill: none;stroke: #ccc;stroke-miterlimit: 10;stroke-width: 0.5px"/>
        <line x1="-51.07" y1="47.68" x2="279.79" y2="-283.18" style="fill: none;stroke: #ccc;stroke-miterlimit: 10;stroke-width: 0.5px"/>
        <line x1="-44.07" y1="47.68" x2="286.79" y2="-283.18" style="fill: none;stroke: #ccc;stroke-miterlimit: 10;stroke-width: 0.5px"/>
        <line x1="-37.07" y1="47.68" x2="293.79" y2="-283.18" style="fill: none;stroke: #ccc;stroke-miterlimit: 10;stroke-width: 0.5px"/>
        <line x1="-30.07" y1="47.68" x2="300.79" y2="-283.18" style="fill: none;stroke: #ccc;stroke-miterlimit: 10;stroke-width: 0.5px"/>
        <line x1="-23.07" y1="47.68" x2="307.79" y2="-283.18" style="fill: none;stroke: #ccc;stroke-miterlimit: 10;stroke-width: 0.5px"/>
        <line x1="-16.07" y1="47.68" x2="314.79" y2="-283.18" style="fill: none;stroke: #ccc;stroke-miterlimit: 10;stroke-width: 0.5px"/>
        <line x1="-9.07" y1="47.68" x2="321.79" y2="-283.18" style="fill: none;stroke: #ccc;stroke-miterlimit: 10;stroke-width: 0.5px"/>
        <line x1="-2.07" y1="47.68" x2="328.79" y2="-283.18" style="fill: none;stroke: #ccc;stroke-miterlimit: 10;stroke-width: 0.5px"/>
        <line x1="4.93" y1="47.68" x2="335.79" y2="-283.18" style="fill: none;stroke: #ccc;stroke-miterlimit: 10;stroke-width: 0.5px"/>
        <line x1="11.93" y1="47.68" x2="342.79" y2="-283.18" style="fill: none;stroke: #ccc;stroke-miterlimit: 10;stroke-width: 0.5px"/>
        <line x1="18.93" y1="47.68" x2="349.79" y2="-283.18" style="fill: none;stroke: #ccc;stroke-miterlimit: 10;stroke-width: 0.5px"/>
        <line x1="25.93" y1="47.68" x2="356.79" y2="-283.18" style="fill: none;stroke: #ccc;stroke-miterlimit: 10;stroke-width: 0.5px"/>
        <line x1="32.93" y1="47.68" x2="363.79" y2="-283.18" style="fill: none;stroke: #ccc;stroke-miterlimit: 10;stroke-width: 0.5px"/>
        <line x1="39.93" y1="47.68" x2="370.79" y2="-283.18" style="fill: none;stroke: #ccc;stroke-miterlimit: 10;stroke-width: 0.5px"/>
        <line x1="46.93" y1="47.68" x2="377.79" y2="-283.18" style="fill: none;stroke: #ccc;stroke-miterlimit: 10;stroke-width: 0.5px"/>
        <line x1="53.93" y1="47.68" x2="384.79" y2="-283.18" style="fill: none;stroke: #ccc;stroke-miterlimit: 10;stroke-width: 0.5px"/>
        <line x1="60.93" y1="47.68" x2="391.79" y2="-283.18" style="fill: none;stroke: #ccc;stroke-miterlimit: 10;stroke-width: 0.5px"/>
        <line x1="67.93" y1="47.68" x2="398.79" y2="-283.18" style="fill: none;stroke: #ccc;stroke-miterlimit: 10;stroke-width: 0.5px"/>
        <line x1="74.93" y1="47.68" x2="405.79" y2="-283.18" style="fill: none;stroke: #ccc;stroke-miterlimit: 10;stroke-width: 0.5px"/>
        <line x1="81.93" y1="47.68" x2="412.79" y2="-283.18" style="fill: none;stroke: #ccc;stroke-miterlimit: 10;stroke-width: 0.5px"/>
        <line x1="88.93" y1="47.68" x2="419.79" y2="-283.18" style="fill: none;stroke: #ccc;stroke-miterlimit: 10;stroke-width: 0.5px"/>
        <line x1="95.93" y1="47.68" x2="426.79" y2="-283.18" style="fill: none;stroke: #ccc;stroke-miterlimit: 10;stroke-width: 0.5px"/>
        <line x1="102.93" y1="47.68" x2="433.79" y2="-283.18" style="fill: none;stroke: #ccc;stroke-miterlimit: 10;stroke-width: 0.5px"/>
      </g>
    </g>
    <g style="clip-path: url(#clip-path-5)">
      <g>
        <line x1="-103.07" y1="46.68" x2="227.79" y2="-284.18" style="fill: none;stroke: #ccc;stroke-miterlimit: 10;stroke-width: 0.5px"/>
        <line x1="-96.07" y1="46.68" x2="234.79" y2="-284.18" style="fill: none;stroke: #ccc;stroke-miterlimit: 10;stroke-width: 0.5px"/>
        <line x1="-89.07" y1="46.68" x2="241.79" y2="-284.18" style="fill: none;stroke: #ccc;stroke-miterlimit: 10;stroke-width: 0.5px"/>
        <line x1="-82.07" y1="46.68" x2="248.79" y2="-284.18" style="fill: none;stroke: #ccc;stroke-miterlimit: 10;stroke-width: 0.5px"/>
        <line x1="-75.07" y1="46.68" x2="255.79" y2="-284.18" style="fill: none;stroke: #ccc;stroke-miterlimit: 10;stroke-width: 0.5px"/>
        <line x1="-68.07" y1="46.68" x2="262.79" y2="-284.18" style="fill: none;stroke: #ccc;stroke-miterlimit: 10;stroke-width: 0.5px"/>
        <line x1="-61.07" y1="46.68" x2="269.79" y2="-284.18" style="fill: none;stroke: #ccc;stroke-miterlimit: 10;stroke-width: 0.5px"/>
        <line x1="-54.07" y1="46.68" x2="276.79" y2="-284.18" style="fill: none;stroke: #ccc;stroke-miterlimit: 10;stroke-width: 0.5px"/>
        <line x1="-47.07" y1="46.68" x2="283.79" y2="-284.18" style="fill: none;stroke: #ccc;stroke-miterlimit: 10;stroke-width: 0.5px"/>
        <line x1="-40.07" y1="46.68" x2="290.79" y2="-284.18" style="fill: none;stroke: #ccc;stroke-miterlimit: 10;stroke-width: 0.5px"/>
        <line x1="-33.07" y1="46.68" x2="297.79" y2="-284.18" style="fill: none;stroke: #ccc;stroke-miterlimit: 10;stroke-width: 0.5px"/>
        <line x1="-26.07" y1="46.68" x2="304.79" y2="-284.18" style="fill: none;stroke: #ccc;stroke-miterlimit: 10;stroke-width: 0.5px"/>
        <line x1="-19.07" y1="46.68" x2="311.79" y2="-284.18" style="fill: none;stroke: #ccc;stroke-miterlimit: 10;stroke-width: 0.5px"/>
        <line x1="-12.07" y1="46.68" x2="318.79" y2="-284.18" style="fill: none;stroke: #ccc;stroke-miterlimit: 10;stroke-width: 0.5px"/>
        <line x1="-5.07" y1="46.68" x2="325.79" y2="-284.18" style="fill: none;stroke: #ccc;stroke-miterlimit: 10;stroke-width: 0.5px"/>
        <line x1="1.93" y1="46.68" x2="332.79" y2="-284.18" style="fill: none;stroke: #ccc;stroke-miterlimit: 10;stroke-width: 0.5px"/>
        <line x1="8.93" y1="46.68" x2="339.79" y2="-284.18" style="fill: none;stroke: #ccc;stroke-miterlimit: 10;stroke-width: 0.5px"/>
        <line x1="15.93" y1="46.68" x2="346.79" y2="-284.18" style="fill: none;stroke: #ccc;stroke-miterlimit: 10;stroke-width: 0.5px"/>
        <line x1="22.93" y1="46.68" x2="353.79" y2="-284.18" style="fill: none;stroke: #ccc;stroke-miterlimit: 10;stroke-width: 0.5px"/>
        <line x1="29.93" y1="46.68" x2="360.79" y2="-284.18" style="fill: none;stroke: #ccc;stroke-miterlimit: 10;stroke-width: 0.5px"/>
        <line x1="36.93" y1="46.68" x2="367.79" y2="-284.18" style="fill: none;stroke: #ccc;stroke-miterlimit: 10;stroke-width: 0.5px"/>
        <line x1="43.93" y1="46.68" x2="374.79" y2="-284.18" style="fill: none;stroke: #ccc;stroke-miterlimit: 10;stroke-width: 0.5px"/>
        <line x1="50.93" y1="46.68" x2="381.79" y2="-284.18" style="fill: none;stroke: #ccc;stroke-miterlimit: 10;stroke-width: 0.5px"/>
        <line x1="57.93" y1="46.68" x2="388.79" y2="-284.18" style="fill: none;stroke: #ccc;stroke-miterlimit: 10;stroke-width: 0.5px"/>
        <line x1="64.93" y1="46.68" x2="395.79" y2="-284.18" style="fill: none;stroke: #ccc;stroke-miterlimit: 10;stroke-width: 0.5px"/>
        <line x1="71.93" y1="46.68" x2="402.79" y2="-284.18" style="fill: none;stroke: #ccc;stroke-miterlimit: 10;stroke-width: 0.5px"/>
        <line x1="78.93" y1="46.68" x2="409.79" y2="-284.18" style="fill: none;stroke: #ccc;stroke-miterlimit: 10;stroke-width: 0.5px"/>
        <line x1="85.93" y1="46.68" x2="416.79" y2="-284.18" style="fill: none;stroke: #ccc;stroke-miterlimit: 10;stroke-width: 0.5px"/>
        <line x1="92.93" y1="46.68" x2="423.79" y2="-284.18" style="fill: none;stroke: #ccc;stroke-miterlimit: 10;stroke-width: 0.5px"/>
        <line x1="99.93" y1="46.68" x2="430.79" y2="-284.18" style="fill: none;stroke: #ccc;stroke-miterlimit: 10;stroke-width: 0.5px"/>
      </g>
    </g>
  </g>
  <g>
    <g style="clip-path: url(#clip-path-6)">
      <g>
        <line x1="-319.07" y1="47.68" x2="11.79" y2="-283.18" style="fill: none;stroke: #ccc;stroke-miterlimit: 10;stroke-width: 0.5px"/>
        <line x1="-312.07" y1="47.68" x2="18.79" y2="-283.18" style="fill: none;stroke: #ccc;stroke-miterlimit: 10;stroke-width: 0.5px"/>
        <line x1="-305.07" y1="47.68" x2="25.79" y2="-283.18" style="fill: none;stroke: #ccc;stroke-miterlimit: 10;stroke-width: 0.5px"/>
        <line x1="-298.07" y1="47.68" x2="32.79" y2="-283.18" style="fill: none;stroke: #ccc;stroke-miterlimit: 10;stroke-width: 0.5px"/>
        <line x1="-291.07" y1="47.68" x2="39.79" y2="-283.18" style="fill: none;stroke: #ccc;stroke-miterlimit: 10;stroke-width: 0.5px"/>
        <line x1="-284.07" y1="47.68" x2="46.79" y2="-283.18" style="fill: none;stroke: #ccc;stroke-miterlimit: 10;stroke-width: 0.5px"/>
        <line x1="-277.07" y1="47.68" x2="53.79" y2="-283.18" style="fill: none;stroke: #ccc;stroke-miterlimit: 10;stroke-width: 0.5px"/>
        <line x1="-270.07" y1="47.68" x2="60.79" y2="-283.18" style="fill: none;stroke: #ccc;stroke-miterlimit: 10;stroke-width: 0.5px"/>
        <line x1="-263.07" y1="47.68" x2="67.79" y2="-283.18" style="fill: none;stroke: #ccc;stroke-miterlimit: 10;stroke-width: 0.5px"/>
        <line x1="-256.07" y1="47.68" x2="74.79" y2="-283.18" style="fill: none;stroke: #ccc;stroke-miterlimit: 10;stroke-width: 0.5px"/>
        <line x1="-249.07" y1="47.68" x2="81.79" y2="-283.18" style="fill: none;stroke: #ccc;stroke-miterlimit: 10;stroke-width: 0.5px"/>
        <line x1="-242.07" y1="47.68" x2="88.79" y2="-283.18" style="fill: none;stroke: #ccc;stroke-miterlimit: 10;stroke-width: 0.5px"/>
        <line x1="-235.07" y1="47.68" x2="95.79" y2="-283.18" style="fill: none;stroke: #ccc;stroke-miterlimit: 10;stroke-width: 0.5px"/>
        <line x1="-228.07" y1="47.68" x2="102.79" y2="-283.18" style="fill: none;stroke: #ccc;stroke-miterlimit: 10;stroke-width: 0.5px"/>
        <line x1="-221.07" y1="47.68" x2="109.79" y2="-283.18" style="fill: none;stroke: #ccc;stroke-miterlimit: 10;stroke-width: 0.5px"/>
        <line x1="-214.07" y1="47.68" x2="116.79" y2="-283.18" style="fill: none;stroke: #ccc;stroke-miterlimit: 10;stroke-width: 0.5px"/>
        <line x1="-207.07" y1="47.68" x2="123.79" y2="-283.18" style="fill: none;stroke: #ccc;stroke-miterlimit: 10;stroke-width: 0.5px"/>
        <line x1="-200.07" y1="47.68" x2="130.79" y2="-283.18" style="fill: none;stroke: #ccc;stroke-miterlimit: 10;stroke-width: 0.5px"/>
        <line x1="-193.07" y1="47.68" x2="137.79" y2="-283.18" style="fill: none;stroke: #ccc;stroke-miterlimit: 10;stroke-width: 0.5px"/>
        <line x1="-186.07" y1="47.68" x2="144.79" y2="-283.18" style="fill: none;stroke: #ccc;stroke-miterlimit: 10;stroke-width: 0.5px"/>
        <line x1="-179.07" y1="47.68" x2="151.79" y2="-283.18" style="fill: none;stroke: #ccc;stroke-miterlimit: 10;stroke-width: 0.5px"/>
        <line x1="-172.07" y1="47.68" x2="158.79" y2="-283.18" style="fill: none;stroke: #ccc;stroke-miterlimit: 10;stroke-width: 0.5px"/>
        <line x1="-165.07" y1="47.68" x2="165.79" y2="-283.18" style="fill: none;stroke: #ccc;stroke-miterlimit: 10;stroke-width: 0.5px"/>
        <line x1="-158.07" y1="47.68" x2="172.79" y2="-283.18" style="fill: none;stroke: #ccc;stroke-miterlimit: 10;stroke-width: 0.5px"/>
        <line x1="-151.07" y1="47.68" x2="179.79" y2="-283.18" style="fill: none;stroke: #ccc;stroke-miterlimit: 10;stroke-width: 0.5px"/>
        <line x1="-144.07" y1="47.68" x2="186.79" y2="-283.18" style="fill: none;stroke: #ccc;stroke-miterlimit: 10;stroke-width: 0.5px"/>
        <line x1="-137.07" y1="47.68" x2="193.79" y2="-283.18" style="fill: none;stroke: #ccc;stroke-miterlimit: 10;stroke-width: 0.5px"/>
        <line x1="-130.07" y1="47.68" x2="200.79" y2="-283.18" style="fill: none;stroke: #ccc;stroke-miterlimit: 10;stroke-width: 0.5px"/>
        <line x1="-123.07" y1="47.68" x2="207.79" y2="-283.18" style="fill: none;stroke: #ccc;stroke-miterlimit: 10;stroke-width: 0.5px"/>
        <line x1="-116.07" y1="47.68" x2="214.79" y2="-283.18" style="fill: none;stroke: #ccc;stroke-miterlimit: 10;stroke-width: 0.5px"/>
        <line x1="-109.07" y1="47.68" x2="221.79" y2="-283.18" style="fill: none;stroke: #ccc;stroke-miterlimit: 10;stroke-width: 0.5px"/>
        <line x1="-102.07" y1="47.68" x2="228.79" y2="-283.18" style="fill: none;stroke: #ccc;stroke-miterlimit: 10;stroke-width: 0.5px"/>
        <line x1="-95.07" y1="47.68" x2="235.79" y2="-283.18" style="fill: none;stroke: #ccc;stroke-miterlimit: 10;stroke-width: 0.5px"/>
        <line x1="-88.07" y1="47.68" x2="242.79" y2="-283.18" style="fill: none;stroke: #ccc;stroke-miterlimit: 10;stroke-width: 0.5px"/>
        <line x1="-81.07" y1="47.68" x2="249.79" y2="-283.18" style="fill: none;stroke: #ccc;stroke-miterlimit: 10;stroke-width: 0.5px"/>
        <line x1="-74.07" y1="47.68" x2="256.79" y2="-283.18" style="fill: none;stroke: #ccc;stroke-miterlimit: 10;stroke-width: 0.5px"/>
        <line x1="-67.07" y1="47.68" x2="263.79" y2="-283.18" style="fill: none;stroke: #ccc;stroke-miterlimit: 10;stroke-width: 0.5px"/>
        <line x1="-60.07" y1="47.68" x2="270.79" y2="-283.18" style="fill: none;stroke: #ccc;stroke-miterlimit: 10;stroke-width: 0.5px"/>
        <line x1="-53.07" y1="47.68" x2="277.79" y2="-283.18" style="fill: none;stroke: #ccc;stroke-miterlimit: 10;stroke-width: 0.5px"/>
        <line x1="-46.07" y1="47.68" x2="284.79" y2="-283.18" style="fill: none;stroke: #ccc;stroke-miterlimit: 10;stroke-width: 0.5px"/>
        <line x1="-39.07" y1="47.68" x2="291.79" y2="-283.18" style="fill: none;stroke: #ccc;stroke-miterlimit: 10;stroke-width: 0.5px"/>
        <line x1="-32.07" y1="47.68" x2="298.79" y2="-283.18" style="fill: none;stroke: #ccc;stroke-miterlimit: 10;stroke-width: 0.5px"/>
        <line x1="-25.07" y1="47.68" x2="305.79" y2="-283.18" style="fill: none;stroke: #ccc;stroke-miterlimit: 10;stroke-width: 0.5px"/>
        <line x1="-18.07" y1="47.68" x2="312.79" y2="-283.18" style="fill: none;stroke: #ccc;stroke-miterlimit: 10;stroke-width: 0.5px"/>
        <line x1="-11.07" y1="47.68" x2="319.79" y2="-283.18" style="fill: none;stroke: #ccc;stroke-miterlimit: 10;stroke-width: 0.5px"/>
        <line x1="-4.07" y1="47.68" x2="326.79" y2="-283.18" style="fill: none;stroke: #ccc;stroke-miterlimit: 10;stroke-width: 0.5px"/>
        <line x1="2.93" y1="47.68" x2="333.79" y2="-283.18" style="fill: none;stroke: #ccc;stroke-miterlimit: 10;stroke-width: 0.5px"/>
        <line x1="9.93" y1="47.68" x2="340.79" y2="-283.18" style="fill: none;stroke: #ccc;stroke-miterlimit: 10;stroke-width: 0.5px"/>
        <line x1="16.93" y1="47.68" x2="347.79" y2="-283.18" style="fill: none;stroke: #ccc;stroke-miterlimit: 10;stroke-width: 0.5px"/>
        <line x1="23.93" y1="47.68" x2="354.79" y2="-283.18" style="fill: none;stroke: #ccc;stroke-miterlimit: 10;stroke-width: 0.5px"/>
        <line x1="30.93" y1="47.68" x2="361.79" y2="-283.18" style="fill: none;stroke: #ccc;stroke-miterlimit: 10;stroke-width: 0.5px"/>
        <line x1="37.93" y1="47.68" x2="368.79" y2="-283.18" style="fill: none;stroke: #ccc;stroke-miterlimit: 10;stroke-width: 0.5px"/>
        <line x1="44.93" y1="47.68" x2="375.79" y2="-283.18" style="fill: none;stroke: #ccc;stroke-miterlimit: 10;stroke-width: 0.5px"/>
        <line x1="51.93" y1="47.68" x2="382.79" y2="-283.18" style="fill: none;stroke: #ccc;stroke-miterlimit: 10;stroke-width: 0.5px"/>
        <line x1="58.93" y1="47.68" x2="389.79" y2="-283.18" style="fill: none;stroke: #ccc;stroke-miterlimit: 10;stroke-width: 0.5px"/>
        <line x1="65.93" y1="47.68" x2="396.79" y2="-283.18" style="fill: none;stroke: #ccc;stroke-miterlimit: 10;stroke-width: 0.5px"/>
        <line x1="72.93" y1="47.68" x2="403.79" y2="-283.18" style="fill: none;stroke: #ccc;stroke-miterlimit: 10;stroke-width: 0.5px"/>
        <line x1="79.93" y1="47.68" x2="410.79" y2="-283.18" style="fill: none;stroke: #ccc;stroke-miterlimit: 10;stroke-width: 0.5px"/>
        <line x1="86.93" y1="47.68" x2="417.79" y2="-283.18" style="fill: none;stroke: #ccc;stroke-miterlimit: 10;stroke-width: 0.5px"/>
        <line x1="93.93" y1="47.68" x2="424.79" y2="-283.18" style="fill: none;stroke: #ccc;stroke-miterlimit: 10;stroke-width: 0.5px"/>
        <line x1="100.93" y1="47.68" x2="431.79" y2="-283.18" style="fill: none;stroke: #ccc;stroke-miterlimit: 10;stroke-width: 0.5px"/>
      </g>
    </g>
    <g style="clip-path: url(#clip-path-7)">
      <g>
        <line x1="-322.07" y1="46.68" x2="8.79" y2="-284.18" style="fill: none;stroke: #ccc;stroke-miterlimit: 10;stroke-width: 0.5px"/>
        <line x1="-315.07" y1="46.68" x2="15.79" y2="-284.18" style="fill: none;stroke: #ccc;stroke-miterlimit: 10;stroke-width: 0.5px"/>
        <line x1="-308.07" y1="46.68" x2="22.79" y2="-284.18" style="fill: none;stroke: #ccc;stroke-miterlimit: 10;stroke-width: 0.5px"/>
        <line x1="-301.07" y1="46.68" x2="29.79" y2="-284.18" style="fill: none;stroke: #ccc;stroke-miterlimit: 10;stroke-width: 0.5px"/>
        <line x1="-294.07" y1="46.68" x2="36.79" y2="-284.18" style="fill: none;stroke: #ccc;stroke-miterlimit: 10;stroke-width: 0.5px"/>
        <line x1="-287.07" y1="46.68" x2="43.79" y2="-284.18" style="fill: none;stroke: #ccc;stroke-miterlimit: 10;stroke-width: 0.5px"/>
        <line x1="-280.07" y1="46.68" x2="50.79" y2="-284.18" style="fill: none;stroke: #ccc;stroke-miterlimit: 10;stroke-width: 0.5px"/>
        <line x1="-273.07" y1="46.68" x2="57.79" y2="-284.18" style="fill: none;stroke: #ccc;stroke-miterlimit: 10;stroke-width: 0.5px"/>
        <line x1="-266.07" y1="46.68" x2="64.79" y2="-284.18" style="fill: none;stroke: #ccc;stroke-miterlimit: 10;stroke-width: 0.5px"/>
        <line x1="-259.07" y1="46.68" x2="71.79" y2="-284.18" style="fill: none;stroke: #ccc;stroke-miterlimit: 10;stroke-width: 0.5px"/>
        <line x1="-252.07" y1="46.68" x2="78.79" y2="-284.18" style="fill: none;stroke: #ccc;stroke-miterlimit: 10;stroke-width: 0.5px"/>
        <line x1="-245.07" y1="46.68" x2="85.79" y2="-284.18" style="fill: none;stroke: #ccc;stroke-miterlimit: 10;stroke-width: 0.5px"/>
        <line x1="-238.07" y1="46.68" x2="92.79" y2="-284.18" style="fill: none;stroke: #ccc;stroke-miterlimit: 10;stroke-width: 0.5px"/>
        <line x1="-231.07" y1="46.68" x2="99.79" y2="-284.18" style="fill: none;stroke: #ccc;stroke-miterlimit: 10;stroke-width: 0.5px"/>
        <line x1="-224.07" y1="46.68" x2="106.79" y2="-284.18" style="fill: none;stroke: #ccc;stroke-miterlimit: 10;stroke-width: 0.5px"/>
        <line x1="-217.07" y1="46.68" x2="113.79" y2="-284.18" style="fill: none;stroke: #ccc;stroke-miterlimit: 10;stroke-width: 0.5px"/>
        <line x1="-210.07" y1="46.68" x2="120.79" y2="-284.18" style="fill: none;stroke: #ccc;stroke-miterlimit: 10;stroke-width: 0.5px"/>
        <line x1="-203.07" y1="46.68" x2="127.79" y2="-284.18" style="fill: none;stroke: #ccc;stroke-miterlimit: 10;stroke-width: 0.5px"/>
        <line x1="-196.07" y1="46.68" x2="134.79" y2="-284.18" style="fill: none;stroke: #ccc;stroke-miterlimit: 10;stroke-width: 0.5px"/>
        <line x1="-189.07" y1="46.68" x2="141.79" y2="-284.18" style="fill: none;stroke: #ccc;stroke-miterlimit: 10;stroke-width: 0.5px"/>
        <line x1="-182.07" y1="46.68" x2="148.79" y2="-284.18" style="fill: none;stroke: #ccc;stroke-miterlimit: 10;stroke-width: 0.5px"/>
        <line x1="-175.07" y1="46.68" x2="155.79" y2="-284.18" style="fill: none;stroke: #ccc;stroke-miterlimit: 10;stroke-width: 0.5px"/>
        <line x1="-168.07" y1="46.68" x2="162.79" y2="-284.18" style="fill: none;stroke: #ccc;stroke-miterlimit: 10;stroke-width: 0.5px"/>
        <line x1="-161.07" y1="46.68" x2="169.79" y2="-284.18" style="fill: none;stroke: #ccc;stroke-miterlimit: 10;stroke-width: 0.5px"/>
        <line x1="-154.07" y1="46.68" x2="176.79" y2="-284.18" style="fill: none;stroke: #ccc;stroke-miterlimit: 10;stroke-width: 0.5px"/>
        <line x1="-147.07" y1="46.68" x2="183.79" y2="-284.18" style="fill: none;stroke: #ccc;stroke-miterlimit: 10;stroke-width: 0.5px"/>
        <line x1="-140.07" y1="46.68" x2="190.79" y2="-284.18" style="fill: none;stroke: #ccc;stroke-miterlimit: 10;stroke-width: 0.5px"/>
        <line x1="-133.07" y1="46.68" x2="197.79" y2="-284.18" style="fill: none;stroke: #ccc;stroke-miterlimit: 10;stroke-width: 0.5px"/>
        <line x1="-126.07" y1="46.68" x2="204.79" y2="-284.18" style="fill: none;stroke: #ccc;stroke-miterlimit: 10;stroke-width: 0.5px"/>
        <line x1="-119.07" y1="46.68" x2="211.79" y2="-284.18" style="fill: none;stroke: #ccc;stroke-miterlimit: 10;stroke-width: 0.5px"/>
        <line x1="-112.07" y1="46.68" x2="218.79" y2="-284.18" style="fill: none;stroke: #ccc;stroke-miterlimit: 10;stroke-width: 0.5px"/>
        <line x1="-105.07" y1="46.68" x2="225.79" y2="-284.18" style="fill: none;stroke: #ccc;stroke-miterlimit: 10;stroke-width: 0.5px"/>
        <line x1="-98.07" y1="46.68" x2="232.79" y2="-284.18" style="fill: none;stroke: #ccc;stroke-miterlimit: 10;stroke-width: 0.5px"/>
        <line x1="-91.07" y1="46.68" x2="239.79" y2="-284.18" style="fill: none;stroke: #ccc;stroke-miterlimit: 10;stroke-width: 0.5px"/>
        <line x1="-84.07" y1="46.68" x2="246.79" y2="-284.18" style="fill: none;stroke: #ccc;stroke-miterlimit: 10;stroke-width: 0.5px"/>
        <line x1="-77.07" y1="46.68" x2="253.79" y2="-284.18" style="fill: none;stroke: #ccc;stroke-miterlimit: 10;stroke-width: 0.5px"/>
        <line x1="-70.07" y1="46.68" x2="260.79" y2="-284.18" style="fill: none;stroke: #ccc;stroke-miterlimit: 10;stroke-width: 0.5px"/>
        <line x1="-63.07" y1="46.68" x2="267.79" y2="-284.18" style="fill: none;stroke: #ccc;stroke-miterlimit: 10;stroke-width: 0.5px"/>
        <line x1="-56.07" y1="46.68" x2="274.79" y2="-284.18" style="fill: none;stroke: #ccc;stroke-miterlimit: 10;stroke-width: 0.5px"/>
        <line x1="-49.07" y1="46.68" x2="281.79" y2="-284.18" style="fill: none;stroke: #ccc;stroke-miterlimit: 10;stroke-width: 0.5px"/>
        <line x1="-42.07" y1="46.68" x2="288.79" y2="-284.18" style="fill: none;stroke: #ccc;stroke-miterlimit: 10;stroke-width: 0.5px"/>
        <line x1="-35.07" y1="46.68" x2="295.79" y2="-284.18" style="fill: none;stroke: #ccc;stroke-miterlimit: 10;stroke-width: 0.5px"/>
        <line x1="-28.07" y1="46.68" x2="302.79" y2="-284.18" style="fill: none;stroke: #ccc;stroke-miterlimit: 10;stroke-width: 0.5px"/>
        <line x1="-21.07" y1="46.68" x2="309.79" y2="-284.18" style="fill: none;stroke: #ccc;stroke-miterlimit: 10;stroke-width: 0.5px"/>
        <line x1="-14.07" y1="46.68" x2="316.79" y2="-284.18" style="fill: none;stroke: #ccc;stroke-miterlimit: 10;stroke-width: 0.5px"/>
        <line x1="-7.07" y1="46.68" x2="323.79" y2="-284.18" style="fill: none;stroke: #ccc;stroke-miterlimit: 10;stroke-width: 0.5px"/>
        <line x1="-0.07" y1="46.68" x2="330.79" y2="-284.18" style="fill: none;stroke: #ccc;stroke-miterlimit: 10;stroke-width: 0.5px"/>
        <line x1="6.93" y1="46.68" x2="337.79" y2="-284.18" style="fill: none;stroke: #ccc;stroke-miterlimit: 10;stroke-width: 0.5px"/>
        <line x1="13.93" y1="46.68" x2="344.79" y2="-284.18" style="fill: none;stroke: #ccc;stroke-miterlimit: 10;stroke-width: 0.5px"/>
        <line x1="20.93" y1="46.68" x2="351.79" y2="-284.18" style="fill: none;stroke: #ccc;stroke-miterlimit: 10;stroke-width: 0.5px"/>
        <line x1="27.93" y1="46.68" x2="358.79" y2="-284.18" style="fill: none;stroke: #ccc;stroke-miterlimit: 10;stroke-width: 0.5px"/>
        <line x1="34.93" y1="46.68" x2="365.79" y2="-284.18" style="fill: none;stroke: #ccc;stroke-miterlimit: 10;stroke-width: 0.5px"/>
        <line x1="41.93" y1="46.68" x2="372.79" y2="-284.18" style="fill: none;stroke: #ccc;stroke-miterlimit: 10;stroke-width: 0.5px"/>
        <line x1="48.93" y1="46.68" x2="379.79" y2="-284.18" style="fill: none;stroke: #ccc;stroke-miterlimit: 10;stroke-width: 0.5px"/>
        <line x1="55.93" y1="46.68" x2="386.79" y2="-284.18" style="fill: none;stroke: #ccc;stroke-miterlimit: 10;stroke-width: 0.5px"/>
        <line x1="62.93" y1="46.68" x2="393.79" y2="-284.18" style="fill: none;stroke: #ccc;stroke-miterlimit: 10;stroke-width: 0.5px"/>
        <line x1="69.93" y1="46.68" x2="400.79" y2="-284.18" style="fill: none;stroke: #ccc;stroke-miterlimit: 10;stroke-width: 0.5px"/>
        <line x1="76.93" y1="46.68" x2="407.79" y2="-284.18" style="fill: none;stroke: #ccc;stroke-miterlimit: 10;stroke-width: 0.5px"/>
        <line x1="83.93" y1="46.68" x2="414.79" y2="-284.18" style="fill: none;stroke: #ccc;stroke-miterlimit: 10;stroke-width: 0.5px"/>
        <line x1="90.93" y1="46.68" x2="421.79" y2="-284.18" style="fill: none;stroke: #ccc;stroke-miterlimit: 10;stroke-width: 0.5px"/>
        <line x1="97.93" y1="46.68" x2="428.79" y2="-284.18" style="fill: none;stroke: #ccc;stroke-miterlimit: 10;stroke-width: 0.5px"/>
        <line x1="104.93" y1="46.68" x2="435.79" y2="-284.18" style="fill: none;stroke: #ccc;stroke-miterlimit: 10;stroke-width: 0.5px"/>
      </g>
    </g>
  </g>
  <g>
    <circle cx="102.73" cy="10.92" r="1.99" style="fill: #fbb03b"/>
    <g>
      <line y1="10.5" x2="1.5" y2="10.5" style="fill: none;stroke: #fbb03b;stroke-miterlimit: 10"/>
      <line x1="4.47" y1="10.5" x2="98.02" y2="10.5" style="fill: none;stroke: #fbb03b;stroke-miterlimit: 10;stroke-dasharray: 2.9696969985961914,2.9696969985961914"/>
      <line x1="99.5" y1="10.5" x2="101" y2="10.5" style="fill: none;stroke: #fbb03b;stroke-miterlimit: 10"/>
    </g>
  </g>
</svg>
