<?xml version="1.0" encoding="utf-8"?>
<!-- Generator: Adobe Illustrator 21.0.2, SVG Export Plug-In . SVG Version: 6.00 Build 0)  -->
<svg version="1.1" id="Capa_1" xmlns="http://www.w3.org/2000/svg" xmlns:xlink="http://www.w3.org/1999/xlink" x="0px" y="0px"
	 viewBox="0 0 90 90" style="enable-background:new 0 0 90 90;" xml:space="preserve">
<g>
	<path d="M51.5,78.6h-11c-0.8,0-1.5-0.7-1.5-1.5V61.6h-7v15.5c0,0.8-0.7,1.5-1.5,1.5h-10c-0.8,0-1.5-0.7-1.5-1.5V56.6h-5
		c-0.6,0-1.2-0.4-1.4-0.9c-0.2-0.6-0.1-1.2,0.3-1.6L35.3,32c0.3-0.3,0.7-0.4,1.1-0.4c0.4,0,0.8,0.2,1.1,0.4l21.8,22.1
		c0.4,0.4,0.6,1.1,0.3,1.6c-0.2,0.6-0.8,0.9-1.4,0.9H53v20.5C53,77.9,52.3,78.6,51.5,78.6z M42,75.6h8V55.1c0-0.8,0.7-1.5,1.5-1.5
		h3.1L36.3,35.1L17.6,53.6h2.8c0.8,0,1.5,0.7,1.5,1.5v20.5h7V60.1c0-0.8,0.7-1.5,1.5-1.5h10c0.8,0,1.5,0.7,1.5,1.5L42,75.6L42,75.6z
		"/>
	<path d="M65.3,78.6C65.3,78.6,65.3,78.6,65.3,78.6c-0.8,0-1.5-0.9-1.5-1.7l0.1-21.9c0-0.8,0.7-1.5,1.5-1.6l4.7-0.1
		c2.4,0,3.6-2.6,3.6-3.2c0-0.1,0-0.2,0-0.2c0,0,0.2-1.7-0.7-2.9c-0.6-0.8-1.7-1.3-3.1-1.5c-0.8-0.1-1.3-0.8-1.3-1.6
		c0-0.8,0.7-1.4,1.4-1.4c0.6,0,3.7-0.4,3.7-4.4c-0.1-0.6-0.8-3.5-3.9-3.5c-0.8,0-1.5-0.7-1.5-1.5c0-0.8,0.7-1.5,1.5-1.5
		c0.6,0,3.9-0.3,3.9-4.1c0-3.5-3.9-3.8-3.9-3.8H67c-0.8,0-1.5-0.7-1.5-1.5l0-5.1c0-2.5-1.9-4.4-4.3-4.4S57,14.5,57,17v5.1
		c0,0.8-0.7,1.5-1.5,1.5h-5.2c-0.6,0.1-3.7,0.6-3.7,3.9c0,3.4,3.2,4,3.5,4c0.8,0.1,1.4,0.9,1.3,1.7c-0.1,0.8-0.8,1.4-1.7,1.3
		c-2.1-0.2-6.2-2-6.2-7c0-5,4.2-6.7,6.5-6.9c0,0,0.1,0,0.1,0H54V17c0-4.1,3.2-7.4,7.3-7.4s7.3,3.2,7.3,7.4l0,3.6h1.4
		c2.4,0,6.9,2,6.9,6.8c0,2.8-1.1,4.5-2.5,5.6c1.6,1.4,2.4,3.4,2.6,4.7c0,0.1,0,0.1,0,0.2c0,3-1.1,4.9-2.6,6.1
		c0.5,0.3,0.8,0.7,1.2,1.2c1.6,2.1,1.4,4.5,1.3,5.1c-0.1,2.1-2.4,6-6.6,6l-3.2,0l-0.1,20.6C66.8,77.7,66.1,78.6,65.3,78.6z"/>
</g>
</svg>
