<svg id="Capa_1" data-name="Capa 1" xmlns="http://www.w3.org/2000/svg" xmlns:xlink="http://www.w3.org/1999/xlink" viewBox="0 0 54.5 23.43">
  <defs>
    <clipPath id="clip-path">
      <rect x="1" y="1" width="47.31" height="21.24" style="fill: none;clip-path: url(#clip-path-2)"/>
    </clipPath>
    <clipPath id="clip-path-2">
      <rect x="1" y="1" width="47.31" height="21.24" style="fill: none;clip-path: url(#clip-path)"/>
    </clipPath>
  </defs>
  <title>logo_ocuc</title>
  <g>
    <g style="clip-path: url(#clip-path-2)">
      <rect x="1" y="8" width="41.03" height="7.24"/>
    </g>
    <g style="clip-path: url(#clip-path-2)">
      <rect x="1.24" y="8.24" width="40.55" height="6.76" style="fill: #fff"/>
    </g>
    <g style="clip-path: url(#clip-path-2)">
      <g style="clip-path: url(#clip-path-2)">
        <path d="M4.26,12.74a.75.75,0,0,1-.82-.8v-.63a.75.75,0,0,1,.82-.8.75.75,0,0,1,.82.8v.63a.75.75,0,0,1-.82.8m.4-1.43a.37.37,0,0,0-.4-.39.37.37,0,0,0-.4.39v.63a.37.37,0,0,0,.4.39.37.37,0,0,0,.4-.39Z"/>
        <path d="M29.36,12.74a.75.75,0,0,1-.82-.8v-.63a.82.82,0,0,1,1.64,0v.63a.75.75,0,0,1-.82.8m.4-1.43a.4.4,0,0,0-.81,0v.63a.4.4,0,0,0,.81,0Z"/>
        <path d="M38.77,12.74a.75.75,0,0,1-.82-.8v-.63a.82.82,0,0,1,1.64,0v.63a.75.75,0,0,1-.82.8m.4-1.43a.4.4,0,0,0-.81,0v.63a.4.4,0,0,0,.81,0Z"/>
        <path d="M6.58,10.53h.9a.61.61,0,0,1,.69.62.53.53,0,0,1-.2.44.59.59,0,0,1,.25.48.61.61,0,0,1-.69.64H6.58Zm.91.41H7v.46h.49c.16,0,.26-.08.26-.23s-.1-.23-.26-.23m.05,1.35c.17,0,.26-.09.26-.24a.23.23,0,0,0-.26-.24H7v.48h.55Z"/>
        <path d="M9.77,12h.43a.35.35,0,0,0,.38.3c.18,0,.31-.07.31-.22s-.07-.19-.22-.23l-.37-.1a.62.62,0,0,1-.5-.64.64.64,0,0,1,.72-.63.7.7,0,0,1,.75.62h-.46a.31.31,0,0,0-.31-.21c-.16,0-.28.07-.28.22s.1.18.22.21l.35.1a.62.62,0,0,1,.52.66c0,.39-.25.63-.73.63a.74.74,0,0,1-.8-.72"/>
        <polygon points="13.43 11.4 14.11 11.4 14.11 11.81 13.43 11.81 13.43 12.29 14.33 12.29 14.33 12.71 13.01 12.71 13.01 10.53 14.33 10.53 14.33 10.95 13.43 10.95 13.43 11.4"/>
        <path d="M16.39,11.81v.89H16V10.53h.92a.61.61,0,0,1,.69.64.58.58,0,0,1-.47.62l.54.92h-.48l-.52-.89h-.26Zm.51-.87h-.51v.46h.51c.16,0,.26-.08.26-.23s-.1-.23-.26-.23"/>
        <path d="M32.08,11.81v.89h-.42V10.53h.92a.61.61,0,0,1,.69.64.58.58,0,0,1-.47.62l.54.92h-.48l-.52-.89h-.25Zm.51-.87h-.51v.46h.51c.16,0,.26-.08.26-.23s-.1-.23-.26-.23"/>
        <polygon points="20.49 10.53 20.92 10.53 20.15 12.71 19.75 12.71 18.97 10.53 19.41 10.53 19.95 12.04 20.49 10.53"/>
        <path d="M22.7,12.27l-.15.44h-.43l.78-2.17h.4l.78,2.17h-.43l-.16-.44Zm.39-1.1-.24.7h.48Z"/>
        <polygon points="26.44 10.95 26.44 12.71 26.01 12.71 26.01 10.95 25.4 10.95 25.4 10.53 27.04 10.53 27.04 10.95 26.44 10.95"/>
        <polygon points="34.97 12.71 34.97 12.29 35.43 12.29 35.43 10.95 34.97 10.95 34.97 10.53 36.3 10.53 36.3 10.95 35.84 10.95 35.84 12.29 36.3 12.29 36.3 12.71 34.97 12.71"/>
        <rect x="1" y="15" width="9.65" height="7.24"/>
        <rect x="1.24" y="15.24" width="9.17" height="6.76" style="fill: #fff"/>
        <polygon points="7.15 18.4 7.84 18.4 7.84 18.82 7.15 18.82 7.15 19.29 8.06 19.29 8.06 19.71 6.74 19.71 6.74 17.53 8.06 17.53 8.06 17.95 7.15 17.95 7.15 18.4"/>
        <path d="M3.44,19.71V17.53h.82a.75.75,0,0,1,.82.8v.57a.75.75,0,0,1-.82.8H3.44Zm1.22-1.37a.37.37,0,0,0-.4-.39h-.4v1.35h.4a.37.37,0,0,0,.4-.39v-.56Z"/>
        <rect x="10.41" y="15" width="28.48" height="7.24"/>
        <rect x="10.65" y="15.24" width="28" height="6.76" style="fill: #fff"/>
        <path d="M34.87,19h.43a.35.35,0,0,0,.38.3c.18,0,.31-.07.31-.22s-.07-.19-.22-.23l-.37-.1a.62.62,0,0,1-.5-.64.64.64,0,0,1,.72-.63.7.7,0,0,1,.75.62h-.46a.31.31,0,0,0-.31-.21c-.16,0-.28.07-.28.22s.1.18.22.21l.35.1a.62.62,0,0,1,.52.66c0,.39-.26.63-.73.63a.74.74,0,0,1-.8-.72"/>
        <polygon points="32.25 18.4 32.94 18.4 32.94 18.82 32.25 18.82 32.25 19.29 33.16 19.29 33.16 19.71 31.84 19.71 31.84 17.53 33.16 17.53 33.16 17.95 32.25 17.95 32.25 18.4"/>
        <path d="M25.84,19.27l-.16.44h-.43L26,17.53h.4l.77,2.17h-.43l-.16-.44Zm.39-1.1-.24.7h.48Z"/>
        <polygon points="16.15 19.71 16.15 19.29 16.6 19.29 16.6 17.95 16.15 17.95 16.15 17.53 17.47 17.53 17.47 17.95 17.02 17.95 17.02 19.29 17.47 19.29 17.47 19.71 16.15 19.71"/>
        <path d="M22.26,19.71V17.53h.82a.75.75,0,0,1,.82.8v.57a.75.75,0,0,1-.82.8h-.82Zm1.22-1.37a.37.37,0,0,0-.4-.39h-.4v1.35h.4a.37.37,0,0,0,.4-.39Z"/>
        <path d="M28.54,19.71V17.53h.82a.75.75,0,0,1,.82.8v.57a.75.75,0,0,1-.82.8h-.82Zm1.22-1.37a.37.37,0,0,0-.4-.39H29v1.35h.4a.37.37,0,0,0,.4-.39Z"/>
        <path d="M20.77,17.53v1.4a.82.82,0,0,1-1.64,0v-1.4h.42v1.4a.4.4,0,0,0,.81,0v-1.4Z"/>
        <path d="M14.49,19a.75.75,0,0,1-.82.76.75.75,0,0,1-.82-.8v-.63a.75.75,0,0,1,.82-.81.75.75,0,0,1,.82.76h-.42a.4.4,0,0,0-.8,0v.63a.4.4,0,0,0,.8,0h.42Z"/>
        <rect x="38.65" y="15" width="9.65" height="7.24"/>
        <rect x="38.89" y="15.24" width="9.17" height="6.76" style="fill: #fff"/>
        <path d="M42.73,17.53v1.4a.82.82,0,0,1-1.64,0v-1.4h.42v1.4a.4.4,0,0,0,.81,0v-1.4Z"/>
        <path d="M45.87,19a.82.82,0,0,1-1.64,0v-.63a.82.82,0,0,1,1.64,0h-.42a.4.4,0,0,0-.8,0v.63a.4.4,0,0,0,.8,0h.42Z"/>
        <rect x="1" y="1" width="15.93" height="7.24"/>
        <path d="M4.26,5.74a.75.75,0,0,1-.82-.8V4.31a.75.75,0,0,1,.82-.8.75.75,0,0,1,.82.8v.63a.75.75,0,0,1-.82.8m.4-1.43a.37.37,0,0,0-.4-.39.37.37,0,0,0-.4.39v.63a.37.37,0,0,0,.4.39.37.37,0,0,0,.4-.39Z" style="fill: #fff"/>
        <path d="M8.22,5a.75.75,0,0,1-.82.76.75.75,0,0,1-.82-.8V4.31a.75.75,0,0,1,.82-.8.75.75,0,0,1,.82.76H7.8a.4.4,0,0,0-.8,0v.63a.4.4,0,0,0,.8,0h.42Z" style="fill: #fff"/>
        <path d="M14.49,5a.75.75,0,0,1-.82.76.75.75,0,0,1-.82-.8V4.31a.75.75,0,0,1,.82-.8.75.75,0,0,1,.82.76h-.42a.4.4,0,0,0-.8,0v.63a.4.4,0,0,0,.8,0h.42Z" style="fill: #fff"/>
        <path d="M11.35,3.53v1.4a.75.75,0,0,1-.82.8.75.75,0,0,1-.82-.8V3.53h.42v1.4a.4.4,0,0,0,.81,0V3.53Z" style="fill: #fff"/>
      </g>
    </g>
  </g>
</svg>
